<svg width="306" height="392" viewBox="0 0 306 392" fill="none" xmlns="http://www.w3.org/2000/svg">
<g filter="url(#filter0_b_5162_15)">
<path d="M0 10.1738C0 4.65098 4.47715 0.173828 10 0.173828H295.739C301.262 0.173828 305.739 4.65098 305.739 10.1738V348.503C305.739 353.598 301.909 357.878 296.845 358.442L11.1061 390.242C5.18182 390.901 0 386.264 0 380.304V10.1738Z" fill="white" fill-opacity="0.03"/>
</g>
<rect opacity="0.6" x="35.4785" y="0.173828" width="232.696" height="1.04348" fill="url(#paint0_radial_5162_15)"/>
<rect opacity="0.6" x="37.0869" y="384.828" width="232.545" height="1.70989" transform="rotate(-6 37.0869 384.828)" fill="url(#paint1_radial_5162_15)"/>
<rect opacity="0.6" y="349.739" width="308.87" height="2.08696" transform="rotate(-90 0 349.739)" fill="url(#paint2_radial_5162_15)"/>
<path opacity="0.6" d="M302.608 246.435V57.565H305.739V246.435H302.608Z" fill="url(#paint3_radial_5162_15)"/>
<defs>
<filter id="filter0_b_5162_15" x="-4" y="-3.82617" width="313.739" height="398.131" filterUnits="userSpaceOnUse" color-interpolation-filters="sRGB">
<feFlood flood-opacity="0" result="BackgroundImageFix"/>
<feGaussianBlur in="BackgroundImageFix" stdDeviation="2"/>
<feComposite in2="SourceAlpha" operator="in" result="effect1_backgroundBlur_5162_15"/>
<feBlend mode="normal" in="SourceGraphic" in2="effect1_backgroundBlur_5162_15" result="shape"/>
</filter>
<radialGradient id="paint0_radial_5162_15" cx="0" cy="0" r="1" gradientUnits="userSpaceOnUse" gradientTransform="translate(151.826 0.695567) scale(116.348 0.521739)">
<stop stop-color="white"/>
<stop offset="1" stop-opacity="0"/>
</radialGradient>
<radialGradient id="paint1_radial_5162_15" cx="0" cy="0" r="1" gradientUnits="userSpaceOnUse" gradientTransform="translate(153.359 385.683) scale(116.273 0.854945)">
<stop stop-color="white"/>
<stop offset="1" stop-opacity="0"/>
</radialGradient>
<radialGradient id="paint2_radial_5162_15" cx="0" cy="0" r="1" gradientUnits="userSpaceOnUse" gradientTransform="translate(154.435 350.783) scale(154.435 1.04348)">
<stop stop-color="white"/>
<stop offset="1" stop-opacity="0"/>
</radialGradient>
<radialGradient id="paint3_radial_5162_15" cx="0" cy="0" r="1" gradientUnits="userSpaceOnUse" gradientTransform="translate(304.174 117.66) rotate(-91.0658) scale(84.1474 1.56511)">
<stop stop-color="white"/>
<stop offset="1" stop-opacity="0"/>
</radialGradient>
</defs>
</svg>
