<svg width="16" height="14" viewBox="0 0 16 14" fill="none" xmlns="http://www.w3.org/2000/svg">
<path d="M15.0312 9.70126C15.0312 10.2011 14.7497 10.6571 14.302 10.8809C14.302 10.8809 10.7164 12.6703 9.15356 13.4462C8.82535 13.6097 8.43945 13.3707 8.43945 13.0027V6.23645C8.43945 5.95767 8.61386 5.70911 8.87616 5.61572L14.5877 3.57501C14.8019 3.49811 15.0285 3.65741 15.0285 3.88538C15.0312 5.33969 15.0312 9.70126 15.0312 9.70126ZM7.56055 6.2337V12.9683C7.56055 13.3419 7.16092 13.5808 6.8327 13.4037L1.66364 10.6282C1.23517 10.3975 0.96875 9.9512 0.96875 9.46643C0.96875 9.46643 0.970123 5.28751 0.97287 3.8634C0.97287 3.63544 1.19946 3.47614 1.4137 3.55441L7.12521 5.61298C7.38614 5.70773 7.56055 5.95493 7.56055 6.2337ZM14.4119 2.70435L8.44632 4.83569C8.15793 4.93869 7.84344 4.93869 7.55505 4.83432L1.62106 2.69473C1.49197 2.64804 1.47275 2.47363 1.5881 2.40085C1.66226 2.35553 1.74054 2.3157 1.82431 2.28412L7.53857 0.141785C7.68826 0.0854797 7.84482 0.0580139 8.00137 0.0580139C8.15793 0.0580139 8.31311 0.0854797 8.46143 0.141785L14.1729 2.27176C14.2718 2.30884 14.3638 2.3569 14.449 2.41321C14.5602 2.48874 14.5382 2.65903 14.4119 2.70435Z" fill="#E08900"/>
</svg>
