<svg width="45" height="45" viewBox="0 0 45 45" fill="none" xmlns="http://www.w3.org/2000/svg">
<ellipse cx="22.6025" cy="22.6955" rx="22.2412" ry="22.2412" fill="white"/>
<path d="M16.7782 15.5918C17.4182 15.5897 17.9148 15.0792 17.9241 14.4074C17.9293 14.0374 17.9251 13.6674 17.9251 13.2976H17.927C17.927 13.2916 17.9271 13.2857 17.9271 13.2798C17.9272 12.9077 17.93 12.5356 17.9261 12.1637C17.9228 11.8563 17.8339 11.5768 17.6192 11.3493C17.2811 10.991 16.8167 10.8861 16.362 11.059C15.918 11.228 15.634 11.6252 15.6285 12.1213C15.6242 12.5075 15.623 12.8936 15.623 13.2798C15.6231 13.6496 15.6242 14.0194 15.6249 14.3891C15.6262 15.064 16.1365 15.5942 16.7782 15.5918Z" fill="black"/>
<path d="M28.3837 15.6133C29.0236 15.6112 29.5202 15.1007 29.5296 14.4289C29.5347 14.0589 29.5305 13.689 29.5305 13.3191H29.5325C29.5325 13.3131 29.5325 13.3072 29.5325 13.3013C29.5326 12.9292 29.5355 12.5571 29.5315 12.1851C29.5283 11.8778 29.4394 11.5983 29.2246 11.3708C28.8865 11.0125 28.4221 10.9075 27.9674 11.0805C27.5234 11.2495 27.2395 11.6467 27.234 12.1428C27.2296 12.5289 27.2285 12.9151 27.2285 13.3013C27.2285 13.6711 27.2297 14.0408 27.2303 14.4106C27.2316 15.0854 27.7419 15.6157 28.3837 15.6133Z" fill="black"/>
<path d="M23.3733 24.1313H26.4207V26.4015H23.3733V24.1313Z" fill="black"/>
<path d="M28.0117 21.0371H31.0543V23.3103H28.0117V21.0371Z" fill="black"/>
<path d="M28.0127 24.1228H31.0521V26.4014H28.0127V24.1228Z" fill="black"/>
<path d="M18.7363 27.2273H21.7788V29.5012H18.7363V27.2273Z" fill="black"/>
<path d="M23.376 27.2227H26.4189V29.4923H23.376V27.2227Z" fill="black"/>
<path d="M28.0144 27.2256H31.0593V29.4935H28.0144V27.2256Z" fill="black"/>
<path d="M14.0898 27.2292H17.1375V29.4989H14.0899L14.0898 27.2292Z" fill="black"/>
<path d="M14.0967 24.1343H17.139V26.408H14.0967V24.1343Z" fill="black"/>
<path d="M23.3691 21.043H26.4168V23.3124H23.3691V21.043Z" fill="black"/>
<path d="M18.7295 24.1362H21.7766V26.406H18.7295V24.1362Z" fill="black"/>
<path d="M18.7363 21.0413H21.7794V23.3135H18.7363V21.0413Z" fill="black"/>
<path d="M33.7093 13.2798H30.8479C30.8471 13.4162 30.8459 13.5525 30.844 13.6888C30.8246 15.0788 29.8382 16.1483 28.5395 16.2372C28.4804 16.2442 28.4202 16.2483 28.3589 16.2484C28.2835 16.2487 28.2094 16.2432 28.1371 16.2329C26.8655 16.116 25.8874 15.0213 25.8848 13.6492C25.8846 13.5261 25.8843 13.403 25.8841 13.2798H19.2024C19.2016 13.4161 19.2004 13.5525 19.1985 13.6888C19.1784 15.1379 18.1072 16.2388 16.727 16.2433C15.3428 16.2485 14.2421 15.1049 14.2393 13.6492C14.2391 13.5261 14.2388 13.4029 14.2386 13.2798H11.3697C11.1202 13.2798 10.918 13.482 10.918 13.7315V32.8958C10.918 33.1452 11.1202 33.3475 11.3697 33.3475H33.7093C33.9587 33.3475 34.161 33.1453 34.161 32.8958V13.7315C34.161 13.4821 33.9587 13.2798 33.7093 13.2798ZM32.802 31.843H12.3757V31.2126V30.4886V19.3323H32.7825V30.4886H32.8019L32.802 31.843Z" fill="black"/>
</svg>
