<svg width="8" height="92" viewBox="0 0 8 92" fill="#E08900" xmlns="http://www.w3.org/2000/svg">
<path d="M4.35355 0.646447C4.15829 0.451184 3.84171 0.451184 3.64645 0.646447L0.464466 3.82843C0.269204 4.02369 0.269204 4.34027 0.464466 4.53553C0.659728 4.7308 0.976311 4.7308 1.17157 4.53553L4 1.70711L6.82843 4.53553C7.02369 4.7308 7.34027 4.7308 7.53553 4.53553C7.7308 4.34027 7.7308 4.02369 7.53553 3.82843L4.35355 0.646447ZM3.5 1V3.84375H4.5V1H3.5ZM3.5 9.53125V15.2188H4.5V9.53125H3.5ZM3.5 20.9062V26.5938H4.5V20.9062H3.5ZM3.5 32.2813V37.9688H4.5V32.2813H3.5ZM3.5 43.6562V49.3438H4.5V43.6562H3.5ZM3.5 55.0312V60.7188H4.5V55.0312H3.5ZM3.5 66.4062V72.0938H4.5V66.4062H3.5ZM3.5 77.7812V83.4688H4.5V77.7812H3.5ZM3.5 89.1562V92H4.5V89.1562H3.5Z" fill="#E08900"/>
</svg>
