<svg width="50" height="48" viewBox="0 0 50 48" fill="none" xmlns="http://www.w3.org/2000/svg">
<path d="M38.7175 44.2857L38.7139 36.5714" stroke="#FC7823" stroke-linecap="round" stroke-linejoin="round"/>
<path d="M45.7929 41.4212C47.2014 40.4307 47.8053 38.6415 47.2853 37C46.7652 35.3585 45.1726 34.4592 43.4507 34.4605H42.456C41.8057 31.9263 39.6602 30.0553 37.061 29.756C34.4618 29.4566 31.9472 30.7908 30.7378 33.1109C29.5284 35.4309 29.8747 38.2565 31.6086 40.2158" stroke="#FC7823" stroke-linecap="round" stroke-linejoin="round"/>
<path d="M41.4422 38.5555L38.7147 35.8281L35.9873 38.5555" stroke="#FC7823" stroke-linecap="round" stroke-linejoin="round"/>
<path d="M49 20.7143V16.4286V4C49 2.34315 47.6569 1 46 1H4C2.34315 1 1 2.34315 1 4V35.7143C1 37.3711 2.34315 38.7143 4 38.7143H17.2857H23.2857" stroke="#FC7823" stroke-linecap="round"/>
<path d="M11.2861 11.2857C15.5718 14.7143 13.0004 19.8571 21.5718 18.1428C28.3482 16.7876 29.2861 13 36.1433 21.5714C41.7336 28.5593 47.2861 21.5714 49.0004 20.7143" stroke="#FC7823" stroke-linecap="round"/>
</svg>
