<svg width="50" height="50" viewBox="0 0 50 50" fill="none" xmlns="http://www.w3.org/2000/svg">
<rect x="0.5" y="0.5" width="49" height="49" rx="24.5" stroke="#E08900"/>
<path d="M36.0499 29.0046C36.503 27.7548 36.75 26.4062 36.75 25C36.75 23.9302 36.607 22.8938 36.3392 21.9088L36.3217 21.9134C36.3133 21.8817 36.3112 21.8486 36.3155 21.8161C36.3199 21.7835 36.3306 21.7522 36.3471 21.7238C36.3635 21.6954 36.3854 21.6705 36.4115 21.6506C36.4376 21.6306 36.4674 21.616 36.4991 21.6076L36.681 21.4531C37.0984 21.0986 37.6702 20.9868 38.1904 21.158C38.2462 21.1431 38.3055 21.1481 38.3581 21.172C38.4108 21.196 38.4534 21.2374 38.479 21.2893L38.5012 21.2832C38.8264 22.4668 39 23.7131 39 25C39 26.7545 38.6773 28.4337 38.0879 29.9813C38.5624 30.5075 38.8512 31.2044 38.8512 31.9688C38.8512 33.6083 37.5221 34.9375 35.8825 34.9375C35.5817 34.9378 35.2825 34.8923 34.9954 34.8027C32.4547 37.393 28.915 39 25 39C17.268 39 11 32.732 11 25C11 23.2807 11.3099 21.6338 11.877 20.1121C11.3395 19.5699 11.0075 18.8237 11.0075 18C11.0075 16.3432 12.3507 15 14.0075 15C14.3646 15 14.7071 15.0624 15.0247 15.1768C17.564 12.5985 21.0953 11 25 11C26.4376 11 27.8246 11.2167 29.1301 11.6192C29.6319 11.231 30.2615 11 30.945 11C32.5846 11 33.9137 12.3292 33.9137 13.9688C33.9137 15.6083 32.5846 16.9375 30.945 16.9375C29.3054 16.9375 27.9762 15.6083 27.9762 13.9688C27.9762 13.8559 27.9825 13.7446 27.9948 13.6351C27.0387 13.3838 26.035 13.25 25 13.25C21.7609 13.25 18.8279 14.5606 16.7025 16.6805C16.8978 17.0787 17.0075 17.5266 17.0075 18C17.0075 19.6568 15.6643 21 14.0075 21C13.9878 21 13.9682 20.9998 13.9486 20.9994C13.4965 22.2481 13.25 23.5953 13.25 25C13.25 31.4893 18.5107 36.75 25 36.75C28.2192 36.75 31.1361 35.4554 33.2584 33.3583C33.0384 32.9438 32.9138 32.4708 32.9138 31.9688C32.9138 30.3292 34.2429 29 35.8825 29C35.9387 29 35.9945 29.0016 36.0499 29.0046Z" fill="#E08900"/>
<path d="M25 31C28.3137 31 31 28.3137 31 25C31 21.6863 28.3137 19 25 19C21.6863 19 19 21.6863 19 25C19 28.3137 21.6863 31 25 31Z" fill="#E08900"/>
<path d="M37.5 23C38.3284 23 39 22.3284 39 21.5C39 20.6716 38.3284 20 37.5 20C36.6716 20 36 20.6716 36 21.5C36 22.3284 36.6716 23 37.5 23Z" fill="#E08900"/>
</svg>
