<svg width="42" height="42" viewBox="0 0 42 42" fill="none" xmlns="http://www.w3.org/2000/svg">
<path d="M0.5 20C0.5 15.2718 0.501062 11.776 0.861658 9.09391C1.22032 6.42621 1.9264 4.63857 3.28249 3.28249C4.63857 1.9264 6.42621 1.22032 9.09391 0.861658C11.776 0.501062 15.2718 0.5 20 0.5H22C26.7282 0.5 30.224 0.501062 32.9061 0.861658C35.5738 1.22032 37.3614 1.9264 38.7175 3.28249C40.0736 4.63857 40.7797 6.42621 41.1383 9.09391C41.4989 11.776 41.5 15.2718 41.5 20V22C41.5 26.7282 41.4989 30.224 41.1383 32.9061C40.7797 35.5738 40.0736 37.3614 38.7175 38.7175C37.3614 40.0736 35.5738 40.7797 32.9061 41.1383C30.224 41.4989 26.7282 41.5 22 41.5H20C15.2718 41.5 11.776 41.4989 9.09391 41.1383C6.42621 40.7797 4.63857 40.0736 3.28249 38.7175C1.9264 37.3614 1.22032 35.5738 0.861658 32.9061C0.501062 30.224 0.5 26.7282 0.5 22V20Z" stroke="#FC7823"/>
<path d="M20.883 25.6667H16.333C15.8663 25.6667 15.458 25.2583 15.458 24.7917C15.458 24.325 15.8663 23.9167 16.333 23.9167H20.883C21.3497 23.9167 21.758 24.325 21.758 24.7917C21.758 25.2583 21.3497 25.6667 20.883 25.6667ZM26.1913 21.4083H16.333C15.8663 21.4083 15.458 21 15.458 20.5333C15.458 20.0667 15.8663 19.6583 16.333 19.6583H26.1913C26.658 19.6583 27.0663 20.0667 27.0663 20.5333C27.0663 21 26.658 21.4083 26.1913 21.4083ZM25.6663 14.7C25.1997 14.7 24.7913 14.2917 24.7913 13.825V9.625C24.7913 9.15833 25.1997 8.75 25.6663 8.75C26.133 8.75 26.5413 9.15833 26.5413 9.625V13.825C26.5413 14.35 26.1913 14.7 25.6663 14.7ZM16.333 14.7C15.8663 14.7 15.458 14.2917 15.5163 13.825V9.625C15.458 9.15833 15.8663 8.75 16.333 8.75C16.7997 8.75 17.208 9.15833 17.208 9.625V13.825C17.208 14.35 16.858 14.7 16.333 14.7Z" fill="#FC7823"/>
<path d="M27.9997 33.25H13.9997C11.8997 33.25 10.208 31.5583 10.208 29.4583V14.6417C10.208 12.5417 11.8997 10.85 13.9997 10.85H27.9997C30.0997 10.85 31.7913 12.5417 31.7913 14.6417V29.4583C31.7913 31.5583 30.0997 33.25 27.9997 33.25ZM13.9997 12.6C12.8913 12.6 11.958 13.5333 11.958 14.6417V29.4583C11.958 30.5667 12.8913 31.5 13.9997 31.5H27.9997C29.108 31.5 30.0413 30.5667 30.0413 29.4583V14.6417C30.0413 13.5333 29.108 12.6 27.9997 12.6H13.9997Z" fill="#FC7823"/>
</svg>
