<svg width="154" height="36" viewBox="0 0 154 36" fill="none" xmlns="http://www.w3.org/2000/svg">
<path d="M0 19.3043L11.4783 35.9998V26.8694L0 19.3043Z" fill="#6C7287"/>
<path d="M11.4783 26.8694V35.9998L22.9565 19.3043L11.4783 26.8694Z" fill="#373C4F"/>
<path d="M0 17.9998L11.4783 13.0433V0L0 17.9998Z" fill="#6C7287"/>
<path d="M11.4783 0V13.0433L22.9565 17.9998L11.4783 0Z" fill="#4D536A"/>
<path d="M0 17.9997L11.4783 24.2605V13.0432L0 17.9997Z" fill="#474D62"/>
<path d="M11.4783 13.0432V24.2605L22.9565 17.9997L11.4783 13.0432Z" fill="#373C4F"/>
<path d="M34.722 8.18797H45.25V9.65797H36.276V16.672H45.026V18.128H36.276V25.198H45.25V26.668H34.722V8.18797ZM48.2316 15.174H50.6256V10.456H52.2076V15.174H55.3436V16.616H52.2076V23.434C52.2076 24.1993 52.3476 24.7453 52.6276 25.072C52.9076 25.3986 53.2576 25.562 53.6776 25.562C54.0789 25.562 54.3822 25.492 54.5876 25.352C54.7929 25.212 54.9142 25.1186 54.9516 25.072L55.6936 26.29C55.6376 26.3366 55.5116 26.4206 55.3156 26.542C55.1196 26.654 54.8629 26.7566 54.5456 26.85C54.2282 26.9526 53.8456 27.004 53.3976 27.004C52.6229 27.004 51.9649 26.7566 51.4236 26.262C50.8916 25.758 50.6256 24.9553 50.6256 23.854V16.616H48.2316V15.174ZM63.8949 14.838C64.6136 14.838 65.3183 14.9966 66.0089 15.314C66.6996 15.622 67.2689 16.1166 67.7169 16.798C68.1649 17.47 68.3889 18.3426 68.3889 19.416V26.668H66.7649V19.794C66.7649 18.5153 66.4663 17.596 65.8689 17.036C65.2809 16.4666 64.5249 16.182 63.6009 16.182C62.9756 16.182 62.3736 16.3593 61.7949 16.714C61.2256 17.0686 60.7543 17.554 60.3809 18.17C60.0076 18.786 59.8209 19.4766 59.8209 20.242V26.668H58.1969V7.40397H59.8209V17.386C59.8863 17.0593 60.1056 16.7 60.4789 16.308C60.8616 15.9066 61.3469 15.5613 61.9349 15.272C62.5323 14.9826 63.1856 14.838 63.8949 14.838ZM72.7576 21.11C72.7669 21.9126 72.9256 22.664 73.2336 23.364C73.5509 24.064 74.0269 24.6286 74.6616 25.058C75.2963 25.4873 76.0943 25.702 77.0556 25.702C77.8396 25.702 78.4929 25.576 79.0156 25.324C79.5476 25.0626 79.9676 24.764 80.2756 24.428C80.5929 24.0826 80.8169 23.7746 80.9476 23.504L81.9416 24.484C81.5963 25.016 81.1949 25.4733 80.7376 25.856C80.2896 26.2293 79.7576 26.514 79.1416 26.71C78.5349 26.906 77.8116 27.004 76.9716 27.004C75.7489 27.004 74.7036 26.7333 73.8356 26.192C72.9769 25.6413 72.3189 24.8946 71.8616 23.952C71.4136 23.0093 71.1896 21.95 71.1896 20.774C71.1896 19.654 71.4136 18.646 71.8616 17.75C72.3096 16.854 72.9536 16.1446 73.7936 15.622C74.6429 15.0993 75.6649 14.838 76.8596 14.838C77.9423 14.838 78.8803 15.076 79.6736 15.552C80.4763 16.028 81.0969 16.6906 81.5356 17.54C81.9836 18.38 82.2076 19.36 82.2076 20.48C82.2076 20.564 82.2029 20.6713 82.1936 20.802C82.1936 20.9326 82.1889 21.0353 82.1796 21.11H72.7576ZM80.6116 19.78C80.6023 19.276 80.4763 18.744 80.2336 18.184C80.0003 17.6146 79.6129 17.134 79.0716 16.742C78.5396 16.3406 77.8069 16.14 76.8736 16.14C75.9029 16.14 75.1283 16.336 74.5496 16.728C73.9803 17.1106 73.5649 17.582 73.3036 18.142C73.0423 18.702 72.8836 19.248 72.8276 19.78H80.6116ZM86.8079 26.668H85.2399V15.174H86.8079V17.246H86.7379C86.7752 17.0033 86.9432 16.6953 87.2419 16.322C87.5499 15.9393 87.9652 15.5986 88.4879 15.3C89.0106 14.992 89.6266 14.838 90.3359 14.838C90.8772 14.838 91.3392 14.908 91.7219 15.048C92.1139 15.1786 92.3846 15.314 92.5339 15.454L91.8339 16.812C91.7126 16.6906 91.4839 16.5693 91.1479 16.448C90.8212 16.3266 90.4246 16.266 89.9579 16.266C89.3139 16.266 88.7539 16.4806 88.2779 16.91C87.8112 17.3393 87.4472 17.8526 87.1859 18.45C86.9339 19.038 86.8079 19.5793 86.8079 20.074V26.668ZM94.7693 21.11C94.7786 21.9126 94.9373 22.664 95.2453 23.364C95.5626 24.064 96.0386 24.6286 96.6733 25.058C97.308 25.4873 98.106 25.702 99.0673 25.702C99.8513 25.702 100.505 25.576 101.027 25.324C101.559 25.0626 101.979 24.764 102.287 24.428C102.605 24.0826 102.829 23.7746 102.959 23.504L103.953 24.484C103.608 25.016 103.207 25.4733 102.749 25.856C102.301 26.2293 101.769 26.514 101.153 26.71C100.547 26.906 99.8233 27.004 98.9833 27.004C97.7606 27.004 96.7153 26.7333 95.8473 26.192C94.9886 25.6413 94.3306 24.8946 93.8733 23.952C93.4253 23.0093 93.2013 21.95 93.2013 20.774C93.2013 19.654 93.4253 18.646 93.8733 17.75C94.3213 16.854 94.9653 16.1446 95.8053 15.622C96.6546 15.0993 97.6766 14.838 98.8713 14.838C99.954 14.838 100.892 15.076 101.685 15.552C102.488 16.028 103.109 16.6906 103.547 17.54C103.995 18.38 104.219 19.36 104.219 20.48C104.219 20.564 104.215 20.6713 104.205 20.802C104.205 20.9326 104.201 21.0353 104.191 21.11H94.7693ZM102.623 19.78C102.614 19.276 102.488 18.744 102.245 18.184C102.012 17.6146 101.625 17.134 101.083 16.742C100.551 16.3406 99.8186 16.14 98.8853 16.14C97.9146 16.14 97.14 16.336 96.5613 16.728C95.992 17.1106 95.5766 17.582 95.3153 18.142C95.054 18.702 94.8953 19.248 94.8393 19.78H102.623ZM108.61 21.18C108.61 22.524 108.904 23.5926 109.492 24.386C110.089 25.17 110.985 25.562 112.18 25.562C113.384 25.562 114.28 25.17 114.868 24.386C115.456 23.5926 115.75 22.524 115.75 21.18V15.174H117.346V21.46C117.346 22.5333 117.145 23.49 116.744 24.33C116.342 25.1606 115.759 25.814 114.994 26.29C114.228 26.766 113.29 27.004 112.18 27.004C111.078 27.004 110.145 26.766 109.38 26.29C108.614 25.814 108.031 25.1606 107.63 24.33C107.228 23.49 107.028 22.5333 107.028 21.46V15.174H108.61V21.18ZM133.841 14.838C134.69 14.838 135.404 15.0246 135.983 15.398C136.562 15.7713 136.996 16.3406 137.285 17.106C137.584 17.862 137.733 18.828 137.733 20.004V26.668H136.151V20.424C136.151 18.9773 135.955 17.9133 135.563 17.232C135.171 16.5506 134.471 16.21 133.463 16.21C132.95 16.21 132.441 16.3546 131.937 16.644C131.442 16.924 131.032 17.372 130.705 17.988C130.378 18.604 130.215 19.416 130.215 20.424V26.668H128.689V20.424C128.689 18.9773 128.437 17.9133 127.933 17.232C127.429 16.5506 126.766 16.21 125.945 16.21C125.422 16.21 124.914 16.3453 124.419 16.616C123.934 16.8866 123.532 17.3346 123.215 17.96C122.907 18.576 122.753 19.3973 122.753 20.424V26.668H121.171V15.174H122.753V16.994C122.846 16.7046 123.056 16.392 123.383 16.056C123.719 15.72 124.148 15.4353 124.671 15.202C125.194 14.9593 125.791 14.838 126.463 14.838C127.172 14.838 127.76 14.9966 128.227 15.314C128.694 15.6313 129.058 16.0093 129.319 16.448C129.58 16.8866 129.744 17.288 129.809 17.652C129.949 17.2133 130.201 16.7793 130.565 16.35C130.929 15.9206 131.391 15.5613 131.951 15.272C132.511 14.9826 133.141 14.838 133.841 14.838Z" fill="#433934"/>
</svg>
