<svg width="101" height="22" viewBox="0 0 101 22" fill="none" xmlns="http://www.w3.org/2000/svg">
<path d="M6.79323 1.58947C7.21783 0.853474 8.00295 0.400024 8.85263 0.400024H22.6586C23.5736 0.400024 24.1456 1.39035 23.6882 2.18288L22.4882 4.26286C22.0282 5.06018 21.1778 5.55142 20.2572 5.55142H6.90879C5.84135 5.55142 5.17403 4.39604 5.70747 3.47144L6.79323 1.58947Z" fill="#373C4F"/>
<path d="M17.9947 8.52332H2.19115C1.20862 8.52332 0.587977 9.57928 1.06595 10.4377L6.43153 20.0738C6.95609 21.016 7.94981 21.6 9.02809 21.6H22.6592C23.4804 21.6 24.0066 20.7262 23.6224 20.0004L22.6316 18.129C22.1166 17.1561 21.106 16.5476 20.005 16.5476H11.9972C11.3402 16.5476 10.7259 16.2219 10.3573 15.6781L9.69939 14.7078C9.38721 14.2473 9.71707 13.6252 10.2734 13.6252H15.7863C16.6511 13.6252 17.4477 13.1555 17.8666 12.3989L19.0348 10.2877C19.4733 9.4954 18.9002 8.52332 17.9947 8.52332Z" fill="#373C4F"/>
<path d="M82.1686 21.904C81.041 21.904 80.267 20.7686 80.6794 19.7189L87.5624 2.19892C87.8028 1.58662 88.3936 1.18396 89.0516 1.18396H90.834C91.4934 1.18396 92.0852 1.58837 92.3248 2.2026L99.1576 19.7226C99.5666 20.7718 98.793 21.904 97.6668 21.904H96.5866C95.9204 21.904 95.324 21.4914 95.0892 20.868L91.2762 10.7448C91.1578 10.4093 91.0098 9.9949 90.8322 9.50156C90.6744 9.00822 90.5066 8.48528 90.329 7.93276C90.1514 7.38022 89.9838 6.8573 89.8258 6.36396C89.737 6.03382 89.6562 5.74454 89.5838 5.4961C89.5284 5.30652 89.6652 5.11356 89.8624 5.10624C90.0644 5.09876 90.2156 5.28938 90.1598 5.48364C90.0682 5.80186 89.9666 6.13476 89.8554 6.48236C89.7174 6.95596 89.5594 7.4493 89.3818 7.96236C89.224 8.47542 89.0562 8.96876 88.8786 9.44236C88.7208 9.91597 88.563 10.3698 88.405 10.804L84.6214 20.8672C84.3868 21.491 83.7902 21.904 83.1236 21.904H82.1686ZM85.9948 17.5528C84.857 17.5528 84.0828 16.3987 84.5142 15.346L84.6828 14.9348C84.929 14.334 85.514 13.9416 86.1632 13.9416H93.467C94.1122 13.9416 94.6942 14.3291 94.9432 14.9245L95.115 15.3357C95.5556 16.3898 94.7814 17.5528 93.6388 17.5528H85.9948Z" fill="#373C4F"/>
<path d="M61.2592 21.904C60.3756 21.904 59.6592 21.1876 59.6592 20.304V2.78396C59.6592 1.9003 60.3756 1.18396 61.2592 1.18396H68.184C69.6838 1.18396 71.0552 1.44049 72.2984 1.95356C73.5416 2.4469 74.6072 3.15728 75.4952 4.08476C76.3832 4.99248 77.064 6.0877 77.5376 7.37036C78.0112 8.6333 78.248 10.0245 78.248 11.544C78.248 13.0832 78.0112 14.4842 77.5376 15.7472C77.064 17.0101 76.3832 18.1053 75.4952 19.0328C74.6072 19.9405 73.5416 20.651 72.2984 21.164C71.075 21.6574 69.7036 21.904 68.184 21.904H61.2592ZM64.0992 18.0755C64.0992 18.2428 63.8808 18.3067 63.7906 18.1658C63.7194 18.0543 63.7994 17.908 63.9318 17.908H68.036C68.924 17.908 69.7134 17.76 70.404 17.464C71.1144 17.168 71.7164 16.7437 72.2096 16.1912C72.7228 15.6189 73.1076 14.948 73.364 14.1784C73.6206 13.389 73.7488 12.5109 73.7488 11.544C73.7488 10.577 73.6206 9.70876 73.364 8.93916C73.1076 8.14982 72.7228 7.4789 72.2096 6.92636C71.7164 6.35408 71.1144 5.91996 70.404 5.62396C69.7134 5.32796 68.924 5.17996 68.036 5.17996H63.9192C63.7668 5.17996 63.6834 5.00262 63.7804 4.8852C63.8878 4.75506 64.0992 4.83108 64.0992 4.99988V18.0755Z" fill="#373C4F"/>
<path d="M40.862 21.904C40.4202 21.904 40.062 21.5458 40.062 21.104V0.8C40.062 0.358172 40.4202 0 40.862 0H43.4356C43.8774 0 44.2356 0.358172 44.2356 0.8V9.22564C44.2356 9.35714 44.1572 9.47598 44.0364 9.52778C43.7828 9.63644 43.5274 9.40578 43.6446 9.15616C43.861 8.69578 44.1666 8.26826 44.5612 7.8736C45.1334 7.2816 45.8142 6.808 46.6036 6.4528C47.393 6.0976 48.2118 5.92 49.0604 5.92C50.2444 5.92 51.231 6.1568 52.0204 6.6304C52.8294 7.104 53.4314 7.82426 53.826 8.7912C54.2404 9.7384 54.4476 10.9224 54.4476 12.3432V21.104C54.4476 21.5458 54.0894 21.904 53.6476 21.904H51.0444C50.6026 21.904 50.2444 21.5458 50.2444 21.104V12.6392C50.2444 11.9288 50.1458 11.3368 49.9484 10.8632C49.751 10.3896 49.455 10.0443 49.0604 9.8272C48.6658 9.61014 48.1626 9.51146 47.5508 9.5312C47.0772 9.5312 46.643 9.61014 46.2484 9.768C45.8538 9.90614 45.4986 10.1133 45.1828 10.3896C44.8868 10.6659 44.6598 10.9816 44.502 11.3368C44.3442 11.692 44.2652 12.0867 44.2652 12.5208V21.104C44.2652 21.5458 43.907 21.904 43.4652 21.904H42.1636C41.7294 21.904 41.3348 21.904 40.9796 21.904C40.9398 21.904 40.9006 21.904 40.862 21.904Z" fill="#373C4F"/>
<path d="M30.1304 21.904C29.6886 21.904 29.3304 21.5458 29.3304 21.104V3.07917C29.3304 2.63735 29.6886 2.27917 30.1304 2.27917H32.7336C33.1754 2.27917 33.5336 2.63735 33.5336 3.07917V21.104C33.5336 21.5458 33.1754 21.904 32.7336 21.904H30.1304ZM27.2 10.0048C26.7582 10.0048 26.4 9.64659 26.4 9.20477V7.04557C26.4 6.60375 26.7582 6.24557 27.2 6.24557H35.96C36.4018 6.24557 36.76 6.60375 36.76 7.04557V9.20477C36.76 9.64659 36.4018 10.0048 35.96 10.0048H27.2Z" fill="#373C4F"/>
</svg>
