<svg width="240" height="240" viewBox="0 0 240 240" fill="none" xmlns="http://www.w3.org/2000/svg">
<path d="M218.4 171C218.4 192.541 174.343 210 120 210C65.6561 210 21.5996 192.541 21.5996 171C21.5996 149.459 65.6561 132 120 132C174.343 132 218.4 149.459 218.4 171Z" fill="url(#paint0_linear_3275_520)"/>
<path d="M181.23 156.918C181.23 159.618 179.04 161.808 176.34 161.808C173.64 161.808 171.45 159.618 171.45 156.918C171.45 154.218 173.64 152.028 176.34 152.028C179.04 152.028 181.23 154.218 181.23 156.918Z" fill="url(#paint1_linear_3275_520)"/>
<path d="M69.5344 67.212C69.5344 71.334 66.1924 74.676 62.0704 74.676C57.9484 74.676 54.6064 71.334 54.6064 67.212C54.6064 63.09 57.9484 59.748 62.0704 59.748C66.1924 59.748 69.5344 63.09 69.5344 67.212Z" fill="url(#paint2_linear_3275_520)"/>
<path d="M54.6956 114.324H54.2816C52.3016 108.624 45.1076 104.4 36.5336 104.4C27.3536 104.4 19.7336 109.248 18.4496 115.566C13.2596 116.91 9.59961 120.186 9.59961 124.02C9.59961 129.054 15.9116 133.134 23.6996 133.134C27.2216 133.2 30.6836 132.27 33.6956 130.446C34.6376 130.548 35.5856 130.602 36.5336 130.602C39.9836 130.632 43.4036 129.9 46.5416 128.466C48.8816 130.248 51.7556 131.19 54.6956 131.136C60.8636 131.136 65.8676 127.368 65.8676 122.736C65.8676 118.104 60.8456 114.324 54.6956 114.324Z" fill="url(#paint3_linear_3275_520)"/>
<path d="M218.508 71.6061C218.393 71.6061 218.278 71.6061 218.167 71.6061C216.517 64.9397 210.536 60 203.406 60C195.768 60 189.445 65.6661 188.356 73.0533C184.044 74.6291 181 78.4624 181 82.9439C181 88.8279 186.25 93.6 192.728 93.6C195.979 93.6 198.916 92.3986 201.042 90.4596C201.829 90.5825 202.616 90.644 203.406 90.644C206.276 90.6719 209.117 89.8226 211.728 88.1462C213.676 90.2305 216.064 91.3257 218.508 91.2643C223.639 91.2643 227.8 86.861 227.8 81.4296C227.8 75.9981 223.639 71.6061 218.508 71.6061Z" fill="url(#paint4_linear_3275_520)"/>
<path d="M194.382 119.142H194.166C193.14 116.19 189.408 114 184.968 114C180.204 114 176.262 116.514 175.584 119.784C172.896 120.486 171 122.184 171 124.17C171 126.78 174.27 128.898 178.308 128.898C180.132 128.934 181.932 128.448 183.492 127.506C183.972 127.554 184.464 127.584 184.968 127.584C186.756 127.596 188.532 127.218 190.158 126.474C191.364 127.392 192.84 127.884 194.358 127.86C197.556 127.86 200.148 125.91 200.148 123.498C200.148 121.086 197.58 119.142 194.382 119.142Z" fill="url(#paint5_linear_3275_520)"/>
<path d="M154.986 160.476C154.986 162.684 139.32 164.472 120 164.472C100.68 164.472 85.0137 162.684 85.0137 160.476C85.0137 158.268 100.68 156.48 120 156.48C139.32 156.48 154.986 158.268 154.986 160.476Z" fill="url(#paint6_linear_3275_520)"/>
<path d="M121.95 142.668C121.95 135.312 125.88 128.514 132.252 124.842C138.63 121.17 146.484 121.182 152.844 124.878V87.6781C152.844 86.1841 152.25 84.7501 151.194 83.6941C150.138 82.6381 148.704 82.05 147.21 82.05H138.654L133.668 90.336H106.332L101.346 82.05H92.7902C91.2962 82.05 89.8622 82.6381 88.8062 83.6941C87.7502 84.7501 87.1562 86.1841 87.1562 87.6781V153.834C87.1562 155.328 87.7502 156.762 88.8062 157.818C89.8622 158.874 91.2962 159.468 92.7902 159.468H130.656C125.196 155.616 121.95 149.352 121.95 142.668Z" fill="url(#paint7_linear_3275_520)"/>
<path d="M110.46 85.8539H129.54C130.548 85.7999 131.34 84.9599 131.34 83.9459C131.34 82.9379 130.548 82.0979 129.54 82.0439H110.46C109.452 82.0979 108.66 82.9379 108.66 83.9459C108.66 84.9599 109.452 85.7999 110.46 85.8539Z" fill="#FC7823" fill-opacity="0.54"/>
<path opacity="0.25" d="M101.694 110.658H138.312C139.344 110.658 140.184 111.498 140.184 112.53C140.184 113.562 139.344 114.402 138.312 114.402H101.694C100.662 114.402 99.8223 113.562 99.8223 112.53C99.8223 111.498 100.662 110.658 101.694 110.658Z" fill="#FC7823"/>
<path opacity="0.25" d="M101.694 124.332H119.676C120.708 124.332 121.548 125.172 121.548 126.204C121.548 127.236 120.708 128.076 119.676 128.076H101.694C100.662 128.076 99.8223 127.236 99.8223 126.204C99.8223 125.172 100.662 124.332 101.694 124.332Z" fill="#FC7823"/>
<path d="M101.694 138.006H112.536C113.568 138.006 114.408 138.846 114.408 139.878C114.408 140.91 113.568 141.75 112.536 141.75H101.694C100.662 141.75 99.8223 140.91 99.8223 139.878C99.8223 138.846 100.662 138.006 101.694 138.006Z" fill="#FC7823" fill-opacity="0.25"/>
<path d="M101.694 109.362H138.312C139.344 109.362 140.184 110.202 140.184 111.234C140.184 112.266 139.344 113.106 138.312 113.106H101.694C100.662 113.106 99.8223 112.266 99.8223 111.234C99.8223 110.202 100.662 109.362 101.694 109.362Z" fill="white"/>
<path d="M101.694 123.036H119.676C120.708 123.036 121.548 123.876 121.548 124.908C121.548 125.94 120.708 126.78 119.676 126.78H101.694C100.662 126.78 99.8223 125.94 99.8223 124.908C99.8223 123.876 100.662 123.036 101.694 123.036Z" fill="white"/>
<path d="M101.694 136.71H112.536C113.568 136.71 114.408 137.55 114.408 138.582C114.408 139.614 113.568 140.454 112.536 140.454H101.694C100.662 140.454 99.8223 139.614 99.8223 138.582C99.8223 137.55 100.662 136.71 101.694 136.71Z" fill="white"/>
<path d="M138.654 82.0439L133.668 90.3299H106.332L101.346 82.0439H92.7903C91.2963 82.0439 89.8623 82.6319 88.8063 83.6879C87.7503 84.7439 87.1562 86.1779 87.1562 87.6719V153.834C87.1562 155.328 87.7503 156.762 88.8063 157.818C89.8623 158.874 91.2963 159.468 92.7903 159.468H93.0423L143.502 82.0679L138.654 82.0439Z" fill="url(#paint8_linear_3275_520)"/>
<path d="M143 161C152.941 161 161 152.941 161 143C161 133.059 152.941 125 143 125C133.059 125 125 133.059 125 143C125 152.941 133.059 161 143 161Z" fill="url(#paint9_linear_3275_520)"/>
<path d="M146.207 143.967L151.34 138.834C151.731 138.408 151.943 137.847 151.931 137.268C151.919 136.69 151.684 136.138 151.275 135.729C150.866 135.319 150.315 135.083 149.737 135.07C149.158 135.057 148.597 135.267 148.17 135.658L143.037 140.791L137.903 135.658C137.482 135.237 136.911 135 136.315 135C135.72 135 135.148 135.237 134.727 135.658C134.306 136.079 134.069 136.65 134.069 137.246C134.069 137.841 134.306 138.413 134.727 138.834L139.861 143.967L134.727 149.1C134.504 149.305 134.324 149.553 134.199 149.829C134.074 150.106 134.007 150.404 134 150.707C133.994 151.011 134.049 151.312 134.163 151.593C134.276 151.874 134.445 152.13 134.659 152.344C134.874 152.558 135.13 152.727 135.411 152.839C135.693 152.952 135.994 153.006 136.297 152.999C136.6 152.992 136.899 152.924 137.175 152.799C137.451 152.673 137.699 152.493 137.903 152.27L143.037 147.137L148.17 152.27C148.378 152.479 148.625 152.645 148.897 152.758C149.169 152.871 149.46 152.929 149.755 152.929C150.05 152.929 150.341 152.871 150.614 152.758C150.886 152.645 151.132 152.479 151.34 152.27C151.549 152.062 151.715 151.815 151.828 151.543C151.942 151.271 152 150.979 152 150.685C152 150.39 151.942 150.098 151.828 149.826C151.715 149.554 151.549 149.307 151.34 149.1L146.207 143.967Z" fill="#FFD5BA"/>
<path d="M146.178 143.019L151.331 137.867C151.542 137.659 151.709 137.411 151.824 137.138C151.939 136.865 151.998 136.571 152 136.275C152.001 135.979 151.945 135.685 151.833 135.411C151.72 135.136 151.556 134.887 151.347 134.676C151.138 134.466 150.891 134.298 150.617 134.183C150.344 134.069 150.051 134.009 149.754 134.007C149.458 134.006 149.164 134.063 148.89 134.175C148.616 134.287 148.366 134.452 148.155 134.66L143.002 139.812L137.849 134.66C137.426 134.237 136.853 134 136.255 134C135.657 134 135.083 134.237 134.66 134.66C134.238 135.083 134 135.656 134 136.254C134 136.852 134.238 137.425 134.66 137.848L139.814 143L134.66 148.152C134.238 148.575 134 149.148 134 149.746C134 150.344 134.238 150.917 134.66 151.34C135.083 151.763 135.657 152 136.255 152C136.853 152 137.426 151.763 137.849 151.34L143.002 146.188L148.155 151.34C148.584 151.732 149.147 151.943 149.728 151.93C150.309 151.916 150.862 151.679 151.272 151.268C151.683 150.857 151.918 150.304 151.93 149.723C151.943 149.143 151.73 148.58 151.337 148.152L146.178 143.019Z" fill="white"/>
<defs>
<linearGradient id="paint0_linear_3275_520" x1="120" y1="132" x2="120" y2="193.5" gradientUnits="userSpaceOnUse">
<stop stop-color="#FC7823" stop-opacity="0.2"/>
<stop offset="1" stop-color="#FC7823" stop-opacity="0"/>
</linearGradient>
<linearGradient id="paint1_linear_3275_520" x1="176.34" y1="152.028" x2="176.34" y2="161.808" gradientUnits="userSpaceOnUse">
<stop stop-color="#FC7823"/>
<stop offset="1" stop-color="#FC7823" stop-opacity="0"/>
</linearGradient>
<linearGradient id="paint2_linear_3275_520" x1="62.0704" y1="59.748" x2="62.0704" y2="74.676" gradientUnits="userSpaceOnUse">
<stop stop-color="#FC7823"/>
<stop offset="1" stop-color="#FC7823" stop-opacity="0"/>
</linearGradient>
<linearGradient id="paint3_linear_3275_520" x1="37.1996" y1="75.5999" x2="37.7336" y2="133.137" gradientUnits="userSpaceOnUse">
<stop stop-color="#FC7823"/>
<stop offset="1" stop-color="#FC7823" stop-opacity="0"/>
</linearGradient>
<linearGradient id="paint4_linear_3275_520" x1="203.2" y1="41.4" x2="205" y2="90" gradientUnits="userSpaceOnUse">
<stop stop-color="#FC7823"/>
<stop offset="1" stop-color="#FC7823" stop-opacity="0"/>
</linearGradient>
<linearGradient id="paint5_linear_3275_520" x1="185.574" y1="114" x2="185.574" y2="128.9" gradientUnits="userSpaceOnUse">
<stop stop-color="#FC7823"/>
<stop offset="1" stop-color="#FC7823" stop-opacity="0"/>
</linearGradient>
<linearGradient id="paint6_linear_3275_520" x1="120" y1="145.8" x2="120" y2="164.472" gradientUnits="userSpaceOnUse">
<stop stop-color="#FC7823"/>
<stop offset="1" stop-color="#FC7823" stop-opacity="0.22"/>
</linearGradient>
<linearGradient id="paint7_linear_3275_520" x1="120" y1="82.05" x2="120" y2="159.468" gradientUnits="userSpaceOnUse">
<stop stop-color="#FC7823"/>
<stop offset="1" stop-color="white"/>
</linearGradient>
<linearGradient id="paint8_linear_3275_520" x1="118.926" y1="72.3059" x2="90.2043" y2="169.212" gradientUnits="userSpaceOnUse">
<stop stop-color="white" stop-opacity="0.3"/>
<stop offset="0.03" stop-color="white" stop-opacity="0.28"/>
<stop offset="0.29" stop-color="white" stop-opacity="0.16"/>
<stop offset="0.55" stop-color="white" stop-opacity="0.07"/>
<stop offset="0.79" stop-color="white" stop-opacity="0.02"/>
<stop offset="1" stop-color="white" stop-opacity="0"/>
</linearGradient>
<linearGradient id="paint9_linear_3275_520" x1="145.5" y1="125" x2="134" y2="158.5" gradientUnits="userSpaceOnUse">
<stop stop-color="#FFB383"/>
<stop offset="1" stop-color="#FFFCFA"/>
</linearGradient>
</defs>
</svg>
