<svg width="880" height="800" viewBox="0 0 880 800" fill="none" xmlns="http://www.w3.org/2000/svg">
<g opacity="0.4">
<rect opacity="0.1" x="240" width="80" height="80" fill="yellow"/>
<rect opacity="0.1" x="400" width="80" height="80" fill="white"/>
<rect opacity="0.2" x="560" width="80" height="80" fill="white"/>
<rect opacity="0.1" x="720" width="80" height="80" fill="white"/>
<rect opacity="0.1" x="80" width="80" height="80" fill="white"/>
<rect opacity="0.2" x="160" y="80" width="80" height="80" fill="white"/>
<rect opacity="0.2" x="320" y="80" width="80" height="80" fill="white"/>
<rect opacity="0.1" x="480" y="80" width="80" height="80" fill="white"/>
<rect opacity="0.1" x="640" y="80" width="80" height="80" fill="white"/>
<rect opacity="0.2" x="800" y="80" width="80" height="80" fill="white"/>
<rect opacity="0.1" x="240" y="160" width="80" height="80" fill="yellow"/>
<rect opacity="0.1" x="400" y="160" width="80" height="80" fill="white"/>
<rect opacity="0.2" x="560" y="160" width="80" height="80" fill="white"/>
<rect opacity="0.1" x="720" y="160" width="80" height="80" fill="white"/>
<rect opacity="0.1" x="80" y="160" width="80" height="80" fill="white"/>
<rect opacity="0.2" x="160" y="240" width="80" height="80" fill="white"/>
<rect opacity="0.2" x="320" y="240" width="80" height="80" fill="white"/>
<rect opacity="0.1" x="480" y="240" width="80" height="80" fill="white"/>
<rect opacity="0.1" x="640" y="240" width="80" height="80" fill="white"/>
<rect opacity="0.2" x="800" y="240" width="80" height="80" fill="white"/>
<rect opacity="0.1" x="240" y="320" width="80" height="80" fill="yellow"/>
<rect opacity="0.2" x="400" y="320" width="80" height="80" fill="yellow"/>
<rect opacity="0.2" x="560" y="320" width="80" height="80" fill="white"/>
<rect opacity="0.1" x="720" y="320" width="80" height="80" fill="white"/>
<rect opacity="0.1" x="80" y="320" width="80" height="80" fill="white"/>
<rect opacity="0.2" x="160" y="400" width="80" height="80" fill="white"/>
<rect opacity="0.2" x="320" y="400" width="80" height="80" fill="white"/>
<rect opacity="0.1" x="480" y="400" width="80" height="80" fill="white"/>
<rect opacity="0.1" x="640" y="400" width="80" height="80" fill="white"/>
<rect opacity="0.2" x="800" y="400" width="80" height="80" fill="white"/>
<rect opacity="0.1" x="240" y="480" width="80" height="80" fill="yellow"/>
<rect opacity="0.2" x="400" y="480" width="80" height="80" fill="yellow"/>
<rect opacity="0.2" x="560" y="480" width="80" height="80" fill="white"/>
<rect opacity="0.1" x="720" y="480" width="80" height="80" fill="white"/>
<rect opacity="0.1" x="80" y="480" width="80" height="80" fill="white"/>
<rect opacity="0.2" x="160" y="560" width="80" height="80" fill="white"/>
<rect opacity="0.2" x="320" y="560" width="80" height="80" fill="white"/>
<rect opacity="0.1" x="480" y="560" width="80" height="80" fill="white"/>
<rect opacity="0.1" x="640" y="560" width="80" height="80" fill="white"/>
<rect opacity="0.2" x="800" y="560" width="80" height="80" fill="white"/>
<rect opacity="0.1" x="240" y="640" width="80" height="80" fill="yellow"/>
<rect opacity="0.2" x="400" y="640" width="80" height="80" fill="yellow"/>
<rect opacity="0.2" x="560" y="640" width="80" height="80" fill="white"/>
<rect opacity="0.1" x="720" y="640" width="80" height="80" fill="white"/>
<rect opacity="0.1" x="80" y="640" width="80" height="80" fill="yellow"/>
<rect opacity="0.2" x="160" y="720" width="80" height="80" fill="white"/>
<rect opacity="0.2" y="80" width="80" height="80" fill="white"/>
<rect opacity="0.2" y="240" width="80" height="80" fill="white"/>
<rect opacity="0.2" y="400" width="80" height="80" fill="white"/>
<rect opacity="0.2" y="560" width="80" height="80" fill="white"/>
<rect opacity="0.2" y="720" width="80" height="80" fill="white"/>
<rect opacity="0.2" x="320" y="720" width="80" height="80" fill="white"/>
<rect opacity="0.1" x="480" y="720" width="80" height="80" fill="white"/>
<rect opacity="0.1" x="640" y="720" width="80" height="80" fill="white"/>
<rect opacity="0.2" x="800" y="720" width="80" height="80" fill="white"/>
</g>
</svg>
