<svg width="800" height="800" viewBox="0 0 800 800" fill="none" xmlns="http://www.w3.org/2000/svg">
<rect width="800" height="800" fill="#E08900"/>
<g opacity="0.4">
<rect opacity="0.1" x="160" width="80" height="80" fill="#D9D9D9"/>
<rect opacity="0.1" x="320" width="80" height="80" fill="white"/>
<rect opacity="0.2" x="480" width="80" height="80" fill="white"/>
<rect opacity="0.1" x="640" width="80" height="80" fill="white"/>
<rect opacity="0.1" width="80" height="80" fill="white"/>
<rect opacity="0.2" x="80" y="80" width="80" height="80" fill="white"/>
<rect opacity="0.2" x="240" y="80" width="80" height="80" fill="white"/>
<rect opacity="0.1" x="400" y="80" width="80" height="80" fill="white"/>
<rect opacity="0.1" x="560" y="80" width="80" height="80" fill="white"/>
<rect opacity="0.2" x="720" y="80" width="80" height="80" fill="white"/>
<rect opacity="0.1" x="160" y="160" width="80" height="80" fill="#D9D9D9"/>
<rect opacity="0.1" x="320" y="160" width="80" height="80" fill="white"/>
<rect opacity="0.2" x="480" y="160" width="80" height="80" fill="white"/>
<rect opacity="0.1" x="640" y="160" width="80" height="80" fill="white"/>
<rect opacity="0.1" y="160" width="80" height="80" fill="white"/>
<rect opacity="0.2" x="80" y="240" width="80" height="80" fill="white"/>
<rect opacity="0.2" x="240" y="240" width="80" height="80" fill="white"/>
<rect opacity="0.1" x="400" y="240" width="80" height="80" fill="white"/>
<rect opacity="0.1" x="560" y="240" width="80" height="80" fill="white"/>
<rect opacity="0.2" x="720" y="240" width="80" height="80" fill="white"/>
<rect opacity="0.1" x="160" y="320" width="80" height="80" fill="#D9D9D9"/>
<rect opacity="0.2" x="320" y="320" width="80" height="80" fill="#D9D9D9"/>
<rect opacity="0.2" x="480" y="320" width="80" height="80" fill="white"/>
<rect opacity="0.1" x="640" y="320" width="80" height="80" fill="white"/>
<rect opacity="0.1" y="320" width="80" height="80" fill="white"/>
<rect opacity="0.2" x="80" y="400" width="80" height="80" fill="white"/>
<rect opacity="0.2" x="240" y="400" width="80" height="80" fill="white"/>
<rect opacity="0.1" x="400" y="400" width="80" height="80" fill="white"/>
<rect opacity="0.1" x="560" y="400" width="80" height="80" fill="white"/>
<rect opacity="0.2" x="720" y="400" width="80" height="80" fill="white"/>
<rect opacity="0.1" x="160" y="480" width="80" height="80" fill="#D9D9D9"/>
<rect opacity="0.2" x="320" y="480" width="80" height="80" fill="#D9D9D9"/>
<rect opacity="0.2" x="480" y="480" width="80" height="80" fill="white"/>
<rect opacity="0.1" x="640" y="480" width="80" height="80" fill="white"/>
<rect opacity="0.1" y="480" width="80" height="80" fill="white"/>
<rect opacity="0.2" x="80" y="560" width="80" height="80" fill="white"/>
<rect opacity="0.2" x="240" y="560" width="80" height="80" fill="white"/>
<rect opacity="0.1" x="400" y="560" width="80" height="80" fill="white"/>
<rect opacity="0.1" x="560" y="560" width="80" height="80" fill="white"/>
<rect opacity="0.2" x="720" y="560" width="80" height="80" fill="white"/>
<rect opacity="0.1" x="160" y="640" width="80" height="80" fill="#D9D9D9"/>
<rect opacity="0.2" x="320" y="640" width="80" height="80" fill="#D9D9D9"/>
<rect opacity="0.2" x="480" y="640" width="80" height="80" fill="white"/>
<rect opacity="0.1" x="640" y="640" width="80" height="80" fill="white"/>
<rect opacity="0.1" y="640" width="80" height="80" fill="#D9D9D9"/>
<rect opacity="0.2" x="80" y="720" width="80" height="80" fill="white"/>
<rect opacity="0.2" x="240" y="720" width="80" height="80" fill="white"/>
<rect opacity="0.1" x="400" y="720" width="80" height="80" fill="white"/>
<rect opacity="0.1" x="560" y="720" width="80" height="80" fill="white"/>
<rect opacity="0.2" x="720" y="720" width="80" height="80" fill="white"/>
</g>
</svg>
