<svg width="566" height="515" viewBox="0 0 566 515" fill="none" xmlns="http://www.w3.org/2000/svg">
<g clip-path="url(#clip0_4867_2607)">
<path d="M227.443 281.741C227.908 280.935 228.769 280.438 229.7 280.438H244.827C245.829 280.438 246.456 281.523 245.955 282.392L244.64 284.671C244.136 285.544 243.204 286.083 242.195 286.083H227.57C226.4 286.083 225.669 284.817 226.253 283.804L227.443 281.741Z" fill="#FC7823"/>
<path d="M239.717 289.339H222.401C221.324 289.339 220.644 290.496 221.168 291.436L227.047 301.995C227.622 303.027 228.711 303.667 229.892 303.667H244.828C245.727 303.667 246.304 302.709 245.883 301.914L244.797 299.864C244.233 298.798 243.126 298.131 241.919 298.131H233.145C232.425 298.131 231.752 297.774 231.348 297.178L230.628 296.115C230.286 295.611 230.647 294.929 231.257 294.929H237.297C238.245 294.929 239.117 294.414 239.576 293.585L240.856 291.272C241.337 290.404 240.709 289.339 239.717 289.339Z" fill="white"/>
</g>
<path d="M310.031 304C308.796 304 307.948 302.756 308.399 301.606L315.941 282.409C316.204 281.738 316.852 281.297 317.573 281.297H319.526C320.248 281.297 320.897 281.74 321.159 282.413L328.646 301.61C329.094 302.759 328.246 304 327.012 304H325.829C325.099 304 324.445 303.548 324.188 302.865L320.01 291.773C319.881 291.405 319.718 290.951 319.524 290.411C319.351 289.87 319.167 289.297 318.972 288.692C318.778 288.086 318.594 287.513 318.421 286.973C318.324 286.611 318.235 286.294 318.156 286.022C318.095 285.814 318.245 285.603 318.461 285.595C318.683 285.587 318.848 285.796 318.787 286.008C318.687 286.357 318.575 286.722 318.453 287.103C318.302 287.622 318.129 288.162 317.935 288.724C317.762 289.286 317.578 289.827 317.383 290.346C317.21 290.865 317.037 291.362 316.864 291.838L312.719 302.864C312.462 303.547 311.808 304 311.078 304H310.031ZM314.223 299.232C312.977 299.232 312.128 297.968 312.601 296.814L312.786 296.364C313.056 295.706 313.697 295.276 314.408 295.276H322.411C323.118 295.276 323.755 295.7 324.028 296.353L324.216 296.803C324.699 297.958 323.851 299.232 322.599 299.232H314.223Z" fill="white"/>
<path d="M287.121 304C286.153 304 285.368 303.215 285.368 302.247V283.05C285.368 282.082 286.153 281.297 287.121 281.297H294.709C296.352 281.297 297.855 281.578 299.217 282.14C300.579 282.681 301.747 283.459 302.72 284.476C303.692 285.47 304.438 286.67 304.957 288.076C305.476 289.459 305.736 290.984 305.736 292.649C305.736 294.335 305.476 295.87 304.957 297.254C304.438 298.638 303.692 299.838 302.72 300.854C301.747 301.849 300.579 302.627 299.217 303.189C297.876 303.73 296.374 304 294.709 304H287.121ZM290.233 299.805C290.233 299.988 289.994 300.058 289.895 299.904C289.817 299.782 289.904 299.622 290.049 299.622H294.547C295.52 299.622 296.384 299.459 297.141 299.135C297.92 298.811 298.579 298.346 299.12 297.74C299.682 297.113 300.103 296.378 300.384 295.535C300.665 294.67 300.806 293.708 300.806 292.649C300.806 291.589 300.665 290.638 300.384 289.795C300.103 288.93 299.682 288.195 299.12 287.589C298.579 286.962 297.92 286.486 297.141 286.162C296.384 285.838 295.52 285.676 294.547 285.676H290.036C289.869 285.676 289.777 285.481 289.884 285.353C290.001 285.21 290.233 285.293 290.233 285.478V299.805Z" fill="white"/>
<path d="M264.772 304C264.288 304 263.896 303.608 263.896 303.123V280.877C263.896 280.392 264.288 280 264.772 280H267.592C268.076 280 268.468 280.392 268.468 280.877V290.108C268.468 290.253 268.383 290.383 268.25 290.44C267.972 290.559 267.692 290.306 267.821 290.032C268.058 289.528 268.393 289.059 268.825 288.627C269.452 287.978 270.198 287.459 271.063 287.07C271.928 286.681 272.825 286.486 273.755 286.486C275.052 286.486 276.133 286.746 276.998 287.265C277.885 287.784 278.544 288.573 278.977 289.632C279.431 290.67 279.658 291.968 279.658 293.524V303.123C279.658 303.608 279.265 304 278.781 304H275.929C275.445 304 275.052 303.608 275.052 303.123V293.849C275.052 293.07 274.944 292.422 274.728 291.903C274.512 291.384 274.187 291.005 273.755 290.768C273.323 290.53 272.771 290.422 272.101 290.443C271.582 290.443 271.106 290.53 270.674 290.703C270.241 290.854 269.852 291.081 269.506 291.384C269.182 291.686 268.933 292.032 268.76 292.422C268.587 292.811 268.501 293.243 268.501 293.719V303.123C268.501 303.608 268.108 304 267.624 304H266.198C265.723 304 265.29 304 264.901 304C264.857 304 264.814 304 264.772 304Z" fill="white"/>
<path d="M253.014 304C252.53 304 252.137 303.608 252.137 303.123V283.374C252.137 282.89 252.53 282.497 253.014 282.497H255.866C256.35 282.497 256.742 282.89 256.742 283.374V303.123C256.742 303.608 256.35 304 255.866 304H253.014ZM249.803 290.962C249.319 290.962 248.926 290.57 248.926 290.086V287.72C248.926 287.236 249.319 286.843 249.803 286.843H259.401C259.885 286.843 260.278 287.236 260.278 287.72V290.086C260.278 290.57 259.885 290.962 259.401 290.962H249.803Z" fill="white"/>
<path d="M275 225H275.5V224.5H275V225ZM25 225V224.5H24.5V225H25ZM24.6464 335.354C24.8417 335.549 25.1583 335.549 25.3536 335.354L28.5355 332.172C28.7308 331.976 28.7308 331.66 28.5355 331.464C28.3403 331.269 28.0237 331.269 27.8284 331.464L25 334.293L22.1716 331.464C21.9763 331.269 21.6597 331.269 21.4645 331.464C21.2692 331.66 21.2692 331.976 21.4645 332.172L24.6464 335.354ZM25.5 335V332.5H24.5V335H25.5ZM25.5 326.5V321.5H24.5V326.5H25.5ZM25.5 315.5V310.5H24.5V315.5H25.5ZM25.5 304.5V299.5H24.5V304.5H25.5ZM25.5 293.5V288.5H24.5V293.5H25.5ZM25.5 282.5V277.5H24.5V282.5H25.5ZM25.5 271.5V266.5H24.5V271.5H25.5ZM25.5 260.5V255.5H24.5V260.5H25.5ZM25.5 249.5V244.5H24.5V249.5H25.5ZM25.5 238.5V233.5H24.5V238.5H25.5ZM25.5 227.5V225H24.5V227.5H25.5ZM25 225.5H27.4704V224.5H25V225.5ZM33.3992 225.5H38.3399V224.5H33.3992V225.5ZM44.2688 225.5H49.2095V224.5H44.2688V225.5ZM55.1383 225.5H60.0791V224.5H55.1383V225.5ZM66.0079 225.5H70.9486V224.5H66.0079V225.5ZM76.8775 225.5H81.8182V224.5H76.8775V225.5ZM87.747 225.5H92.6878V224.5H87.747V225.5ZM98.6166 225.5H103.557V224.5H98.6166V225.5ZM109.486 225.5H114.427V224.5H109.486V225.5ZM120.356 225.5H125.296V224.5H120.356V225.5ZM131.225 225.5H136.166V224.5H131.225V225.5ZM142.095 225.5H147.036V224.5H142.095V225.5ZM152.964 225.5H157.905V224.5H152.964V225.5ZM163.834 225.5H168.775V224.5H163.834V225.5ZM174.704 225.5H179.644V224.5H174.704V225.5ZM185.573 225.5H190.514V224.5H185.573V225.5ZM196.443 225.5H201.383V224.5H196.443V225.5ZM207.312 225.5H212.253V224.5H207.312V225.5ZM218.182 225.5H223.122V224.5H218.182V225.5ZM229.051 225.5H233.992V224.5H229.051V225.5ZM239.921 225.5H244.862V224.5H239.921V225.5ZM250.79 225.5H255.731V224.5H250.79V225.5ZM261.66 225.5H266.601V224.5H261.66V225.5ZM272.53 225.5H275V224.5H272.53V225.5ZM274.5 225V227.227H275.5V225H274.5ZM274.5 232.573V237.027H275.5V232.573H274.5ZM274.5 242.373V244.6H275.5V242.373H274.5Z" fill="#E08900"/>
<path d="M275.354 244.954C275.158 245.149 274.842 245.149 274.646 244.954L271.464 241.772C271.269 241.576 271.269 241.26 271.464 241.064C271.66 240.869 271.976 240.869 272.172 241.064L275 243.893L277.828 241.064C278.024 240.869 278.34 240.869 278.536 241.064C278.731 241.26 278.731 241.576 278.536 241.772L275.354 244.954ZM275 225H274.5V224.5H275V225ZM541 225V224.5H541.5V225H541ZM541.354 335.354C541.158 335.549 540.842 335.549 540.646 335.354L537.464 332.172C537.269 331.976 537.269 331.66 537.464 331.464C537.66 331.269 537.976 331.269 538.172 331.464L541 334.293L543.828 331.464C544.024 331.269 544.34 331.269 544.536 331.464C544.731 331.66 544.731 331.976 544.536 332.172L541.354 335.354ZM540.5 335V332.5H541.5V335H540.5ZM540.5 326.5V321.5H541.5V326.5H540.5ZM540.5 315.5V310.5H541.5V315.5H540.5ZM540.5 304.5V299.5H541.5V304.5H540.5ZM540.5 293.5V288.5H541.5V293.5H540.5ZM540.5 282.5V277.5H541.5V282.5H540.5ZM540.5 271.5V266.5H541.5V271.5H540.5ZM540.5 260.5V255.5H541.5V260.5H540.5ZM540.5 249.5V244.5H541.5V249.5H540.5ZM540.5 238.5V233.5H541.5V238.5H540.5ZM540.5 227.5V225H541.5V227.5H540.5ZM541 225.5H538.481V224.5H541V225.5ZM532.436 225.5H527.398V224.5H532.436V225.5ZM521.352 225.5H516.314V224.5H521.352V225.5ZM510.269 225.5H505.231V224.5H510.269V225.5ZM499.186 225.5H494.148V224.5H499.186V225.5ZM488.102 225.5H483.064V224.5H488.102V225.5ZM477.019 225.5H471.981V224.5H477.019V225.5ZM465.936 225.5H460.898V224.5H465.936V225.5ZM454.852 225.5H449.814V224.5H454.852V225.5ZM443.769 225.5H438.731V224.5H443.769V225.5ZM432.686 225.5H427.648V224.5H432.686V225.5ZM421.602 225.5H416.564V224.5H421.602V225.5ZM410.519 225.5H405.481V224.5H410.519V225.5ZM399.436 225.5H394.398V224.5H399.436V225.5ZM388.352 225.5H383.314V224.5H388.352V225.5ZM377.269 225.5H372.231V224.5H377.269V225.5ZM366.186 225.5H361.148V224.5H366.186V225.5ZM355.102 225.5H350.064V224.5H355.102V225.5ZM344.019 225.5H338.981V224.5H344.019V225.5ZM332.936 225.5H327.898V224.5H332.936V225.5ZM321.852 225.5H316.814V224.5H321.852V225.5ZM310.769 225.5H305.731V224.5H310.769V225.5ZM299.686 225.5H294.648V224.5H299.686V225.5ZM288.602 225.5H283.564V224.5H288.602V225.5ZM277.519 225.5H275V224.5H277.519V225.5ZM275.5 225V227.227H274.5V225H275.5ZM275.5 232.573V237.027H274.5V232.573H275.5ZM275.5 242.373V244.6H274.5V242.373H275.5Z" fill="#E08900"/>
<path d="M58.3536 470.646C58.5488 470.842 58.5488 471.158 58.3536 471.354L55.1716 474.536C54.9763 474.731 54.6597 474.731 54.4645 474.536C54.2692 474.34 54.2692 474.024 54.4645 473.828L57.2929 471L54.4645 468.172C54.2692 467.976 54.2692 467.66 54.4645 467.464C54.6597 467.269 54.9763 467.269 55.1716 467.464L58.3536 470.646ZM25 471V471.5H24.5V471H25ZM25.5 409V412.1H24.5V409H25.5ZM25.5 418.3V424.5H24.5V418.3H25.5ZM25.5 430.7V436.9H24.5V430.7H25.5ZM25.5 443.1V449.3H24.5V443.1H25.5ZM25.5 455.5V461.7H24.5V455.5H25.5ZM25.5 467.9V471H24.5V467.9H25.5ZM25 470.5H27.75V471.5H25V470.5ZM33.25 470.5H38.75V471.5H33.25V470.5ZM44.25 470.5H49.75V471.5H44.25V470.5ZM55.25 470.5H58V471.5H55.25V470.5Z" fill="#E08900"/>
<path d="M493.646 468.646C493.451 468.842 493.451 469.158 493.646 469.354L496.828 472.536C497.024 472.731 497.34 472.731 497.536 472.536C497.731 472.34 497.731 472.024 497.536 471.828L494.707 469L497.536 466.172C497.731 465.976 497.731 465.66 497.536 465.464C497.34 465.269 497.024 465.269 496.828 465.464L493.646 468.646ZM542 469V469.5H542.5V469H542ZM541.5 409V412H542.5V409H541.5ZM541.5 418V424H542.5V418H541.5ZM541.5 430V436H542.5V430H541.5ZM541.5 442V448H542.5V442H541.5ZM541.5 454V460H542.5V454H541.5ZM541.5 466V469H542.5V466H541.5ZM542 468.5H539V469.5H542V468.5ZM533 468.5H527V469.5H533V468.5ZM521 468.5H515V469.5H521V468.5ZM509 468.5H503V469.5H509V468.5ZM497 468.5H494V469.5H497V468.5Z" fill="#E08900"/>
<path d="M110 42V41.5H109.5V42H110ZM109.646 98.3536C109.842 98.5488 110.158 98.5488 110.354 98.3536L113.536 95.1716C113.731 94.9763 113.731 94.6597 113.536 94.4645C113.34 94.2692 113.024 94.2692 112.828 94.4645L110 97.2929L107.172 94.4645C106.976 94.2692 106.66 94.2692 106.464 94.4645C106.269 94.6597 106.269 94.9763 106.464 95.1716L109.646 98.3536ZM110.5 98V95.4545H109.5V98H110.5ZM110.5 89.3455V84.2545H109.5V89.3455H110.5ZM110.5 78.1455V73.0545H109.5V78.1455H110.5ZM110.5 66.9455V61.8545H109.5V66.9455H110.5ZM110.5 55.7455V50.6545H109.5V55.7455H110.5ZM110.5 44.5455V42H109.5V44.5455H110.5ZM110 42.5H112.5V41.5H110V42.5ZM118.5 42.5H123.5V41.5H118.5V42.5ZM129.5 42.5H134.5V41.5H129.5V42.5ZM140.5 42.5H145.5V41.5H140.5V42.5ZM151.5 42.5H156.5V41.5H151.5V42.5ZM162.5 42.5H167.5V41.5H162.5V42.5ZM173.5 42.5H178.5V41.5H173.5V42.5ZM184.5 42.5H189.5V41.5H184.5V42.5ZM195.5 42.5H200.5V41.5H195.5V42.5ZM206.5 42.5H211.5V41.5H206.5V42.5ZM217.5 42.5H222.5V41.5H217.5V42.5ZM228.5 42.5H233.5V41.5H228.5V42.5ZM239.5 42.5H242V41.5H239.5V42.5Z" fill="white"/>
<path d="M212.354 291.646C212.549 291.842 212.549 292.158 212.354 292.354L209.172 295.536C208.976 295.731 208.66 295.731 208.464 295.536C208.269 295.34 208.269 295.024 208.464 294.828L211.293 292L208.464 289.172C208.269 288.976 208.269 288.66 208.464 288.464C208.66 288.269 208.976 288.269 209.172 288.464L212.354 291.646ZM110 292V292.5H109.5V292H110ZM110.5 191V193.55H109.5V191H110.5ZM110.5 199.672V204.773H109.5V199.672H110.5ZM110.5 210.894V215.995H109.5V210.894H110.5ZM110.5 222.116V227.217H109.5V222.116H110.5ZM110.5 233.338V238.439H109.5V233.338H110.5ZM110.5 244.561V249.662H109.5V244.561H110.5ZM110.5 255.783V260.884H109.5V255.783H110.5ZM110.5 267.005V272.106H109.5V267.005H110.5ZM110.5 278.227V283.328H109.5V278.227H110.5ZM110.5 289.45V292H109.5V289.45H110.5ZM110 291.5H112.576V292.5H110V291.5ZM118.758 291.5H123.909V292.5H118.758V291.5ZM130.091 291.5H135.242V292.5H130.091V291.5ZM141.424 291.5H146.576V292.5H141.424V291.5ZM152.758 291.5H157.909V292.5H152.758V291.5ZM164.091 291.5H169.242V292.5H164.091V291.5ZM175.424 291.5H180.576V292.5H175.424V291.5ZM186.758 291.5H191.909V292.5H186.758V291.5ZM198.091 291.5H203.242V292.5H198.091V291.5ZM209.424 291.5H212V292.5H209.424V291.5Z" fill="white"/>
<path d="M305.646 42.3536C305.451 42.1583 305.451 41.8417 305.646 41.6464L308.828 38.4645C309.024 38.2692 309.34 38.2692 309.536 38.4645C309.731 38.6597 309.731 38.9763 309.536 39.1716L306.707 42L309.536 44.8284C309.731 45.0237 309.731 45.3403 309.536 45.5355C309.34 45.7308 309.024 45.7308 308.828 45.5355L305.646 42.3536ZM439 42V41.5H439.5V42H439ZM438.5 98V95.4545H439.5V98H438.5ZM438.5 89.3455V84.2545H439.5V89.3455H438.5ZM438.5 78.1455V73.0545H439.5V78.1455H438.5ZM438.5 66.9455V61.8545H439.5V66.9455H438.5ZM438.5 55.7455V50.6545H439.5V55.7455H438.5ZM438.5 44.5455V42H439.5V44.5455H438.5ZM439 42.5H436.481V41.5H439V42.5ZM430.436 42.5H425.398V41.5H430.436V42.5ZM419.352 42.5H414.314V41.5H419.352V42.5ZM408.269 42.5H403.231V41.5H408.269V42.5ZM397.186 42.5H392.148V41.5H397.186V42.5ZM386.102 42.5H381.064V41.5H386.102V42.5ZM375.019 42.5H369.981V41.5H375.019V42.5ZM363.936 42.5H358.898V41.5H363.936V42.5ZM352.852 42.5H347.814V41.5H352.852V42.5ZM341.769 42.5H336.731V41.5H341.769V42.5ZM330.686 42.5H325.648V41.5H330.686V42.5ZM319.602 42.5H314.564V41.5H319.602V42.5ZM308.519 42.5H306V41.5H308.519V42.5Z" fill="white"/>
<path d="M439 292V292.5H439.5V292H439ZM439.354 190.646C439.158 190.451 438.842 190.451 438.646 190.646L435.464 193.828C435.269 194.024 435.269 194.34 435.464 194.536C435.66 194.731 435.976 194.731 436.172 194.536L439 191.707L441.828 194.536C442.024 194.731 442.34 194.731 442.536 194.536C442.731 194.34 442.731 194.024 442.536 193.828L439.354 190.646ZM438.5 191V193.55H439.5V191H438.5ZM438.5 199.672V204.773H439.5V199.672H438.5ZM438.5 210.894V215.995H439.5V210.894H438.5ZM438.5 222.116V227.217H439.5V222.116H438.5ZM438.5 233.338V238.439H439.5V233.338H438.5ZM438.5 244.561V249.662H439.5V244.561H438.5ZM438.5 255.783V260.884H439.5V255.783H438.5ZM438.5 267.005V272.106H439.5V267.005H438.5ZM438.5 278.227V283.328H439.5V278.227H438.5ZM438.5 289.45V292H439.5V289.45H438.5ZM439 291.5H436.449V292.5H439V291.5ZM430.328 291.5H425.227V292.5H430.328V291.5ZM419.106 291.5H414.005V292.5H419.106V291.5ZM407.884 291.5H402.783V292.5H407.884V291.5ZM396.662 291.5H391.561V292.5H396.662V291.5ZM385.439 291.5H380.338V292.5H385.439V291.5ZM374.217 291.5H369.116V292.5H374.217V291.5ZM362.995 291.5H357.894V292.5H362.995V291.5ZM351.773 291.5H346.672V292.5H351.773V291.5ZM340.55 291.5H338V292.5H340.55V291.5Z" fill="white"/>
<path d="M240.354 469.354C240.549 469.158 240.549 468.842 240.354 468.646L237.172 465.464C236.976 465.269 236.66 465.269 236.464 465.464C236.269 465.66 236.269 465.976 236.464 466.172L239.293 469L236.464 471.828C236.269 472.024 236.269 472.34 236.464 472.536C236.66 472.731 236.976 472.731 237.172 472.536L240.354 469.354ZM189 469.5L191.318 469.5L191.318 468.5L189 468.5L189 469.5ZM196.882 469.5L201.518 469.5L201.518 468.5L196.882 468.5L196.882 469.5ZM207.082 469.5L211.718 469.5L211.718 468.5L207.082 468.5L207.082 469.5ZM217.282 469.5L221.918 469.5L221.918 468.5L217.282 468.5L217.282 469.5ZM227.482 469.5L232.118 469.5L232.118 468.5L227.482 468.5L227.482 469.5ZM237.682 469.5L240 469.5L240 468.5L237.682 468.5L237.682 469.5Z" fill="#E08900"/>
<path d="M309.646 468.646C309.451 468.842 309.451 469.158 309.646 469.354L312.828 472.536C313.024 472.731 313.34 472.731 313.536 472.536C313.731 472.34 313.731 472.024 313.536 471.828L310.707 469L313.536 466.172C313.731 465.976 313.731 465.66 313.536 465.464C313.34 465.269 313.024 465.269 312.828 465.464L309.646 468.646ZM310 469.5L312.784 469.5L312.784 468.5L310 468.5L310 469.5ZM319.466 469.5L325.034 469.5L325.034 468.5L319.466 468.5L319.466 469.5ZM331.716 469.5L337.284 469.5L337.284 468.5L331.716 468.5L331.716 469.5ZM343.966 469.5L349.534 469.5L349.534 468.5L343.966 468.5L343.966 469.5ZM356.216 469.5L359 469.5L359 468.5L356.216 468.5L356.216 469.5Z" fill="#E08900"/>
<path d="M274.354 327.646C274.158 327.451 273.842 327.451 273.646 327.646L270.464 330.828C270.269 331.024 270.269 331.34 270.464 331.536C270.66 331.731 270.976 331.731 271.172 331.536L274 328.707L276.828 331.536C277.024 331.731 277.34 331.731 277.536 331.536C277.731 331.34 277.731 331.024 277.536 330.828L274.354 327.646ZM273.5 328V330.844H274.5V328H273.5ZM273.5 336.531V342.219H274.5V336.531H273.5ZM273.5 347.906V353.594H274.5V347.906H273.5ZM273.5 359.281V364.969H274.5V359.281H273.5ZM273.5 370.656V376.344H274.5V370.656H273.5ZM273.5 382.031V387.719H274.5V382.031H273.5ZM273.5 393.406V399.094H274.5V393.406H273.5ZM273.5 404.781V410.469H274.5V404.781H273.5ZM273.5 416.156V419H274.5V416.156H273.5Z" fill="#E08900"/>
<rect x="249" y="16" width="50" height="50" rx="25" fill="white"/>
<path d="M269.638 39.2225C273.155 39.2225 275.997 36.4918 275.997 33.1257V31.0943C275.997 27.7331 273.148 25 269.64 25C266.123 25 263.283 27.7282 263.283 31.0943V33.1257C263.27 36.4918 266.12 39.2225 269.638 39.2225ZM283.253 39.2323C286.022 39.2323 288.26 37.0144 288.26 34.2764V32.6203C288.26 29.8823 286.017 27.6644 283.253 27.6644C280.488 27.6644 278.245 29.8823 278.245 32.6203V34.2764C278.24 37.0144 280.488 39.2323 283.253 39.2323ZM291.361 43.3541C288.932 42.386 286.333 41.8894 283.709 41.8918C282.468 41.8938 281.229 42.0088 280.009 42.2353C280.197 42.2966 280.385 42.358 280.573 42.4267C282.962 43.4424 284.627 45.7143 284.627 48.3762V52.5323C287.054 52.4745 289.467 52.1661 291.828 51.6123C292.916 51.2737 293.714 50.2335 293.714 48.992V47.1053C293.709 45.4223 292.741 43.9895 291.366 43.3516L291.361 43.3541ZM280.064 44.7206C273.37 42.1249 265.916 42.1232 259.221 44.7157C257.33 45.5646 256 47.4832 256 49.7305V52.233C256 53.8891 257.079 55.2802 258.559 55.7291C262.188 56.5694 265.904 56.9959 269.633 57C273.357 56.9997 277.068 56.5748 280.691 55.734C282.177 55.2875 283.263 53.894 283.263 52.2305V49.7281C283.263 47.4856 281.946 45.5769 280.064 44.7182V44.7206Z" fill="black"/>
<rect x="414" y="108" width="50" height="50" rx="25" fill="white"/>
<path d="M452.75 122.965H447.521V120.599C447.521 119.909 446.962 119.349 446.271 119.349H445.417V118.112C445.417 117.422 444.858 116.862 444.167 116.862H433.911C433.22 116.862 432.661 117.422 432.661 118.112V119.349H431.807C431.116 119.349 430.557 119.909 430.557 120.599V122.965H425.25C424.56 122.965 424 123.525 424 124.215V144.478C424 145.168 424.56 145.728 425.25 145.728H452.75C453.44 145.728 454 145.168 454 144.478V124.215C454 123.525 453.44 122.965 452.75 122.965ZM451.5 143.228H426.5V125.465H431.807C432.497 125.465 433.057 124.905 433.057 124.215V121.849H433.911C434.601 121.849 435.161 121.29 435.161 120.599V119.362H442.917V120.599C442.917 121.29 443.477 121.849 444.167 121.849H445.021V124.215C445.021 124.905 445.581 125.465 446.271 125.465H451.5V143.228Z" fill="black"/>
<path d="M446.5 124H447.5L452.5 124.5V144H425.5V124H431.5V120.5H434.5V118H443.5L444 120.5L446.5 121.5V124Z" fill="black"/>
<path d="M429.021 129.217V139.21C429.021 139.9 429.581 140.46 430.271 140.46H447.77C448.461 140.46 449.02 139.9 449.02 139.21V129.217C449.02 128.526 448.461 127.967 447.77 127.967H430.271C429.581 127.967 429.021 128.526 429.021 129.217ZM431.521 130.467H446.52V137.96H444.902V135.791C444.902 135.1 444.342 134.541 443.652 134.541C442.962 134.541 442.402 135.1 442.402 135.791V137.96H440.321V135.791C440.321 135.1 439.762 134.541 439.071 134.541C438.381 134.541 437.821 135.1 437.821 135.791V137.96H435.85V135.791C435.85 135.1 435.291 134.541 434.6 134.541C433.91 134.541 433.35 135.1 433.35 135.791V137.96H431.521V130.467Z" fill="white"/>
<rect x="85" y="108" width="50" height="50" rx="25" fill="white"/>
<path d="M110 117L126 128.636L110 140.273L94 128.636L110 117ZM123 135.182L126 137.364L110 149L94 137.364L97 135.182L110 144.636L123 135.182Z" fill="black"/>
<rect x="63.5" y="453.5" width="119" height="31" rx="15.5" fill="url(#paint0_linear_4867_2607)" stroke="#E08900"/>
<path d="M88.4704 474H85.1743V463.818H88.5748C89.5725 463.818 90.4292 464.022 91.1452 464.43C91.8611 464.834 92.4096 465.416 92.7907 466.175C93.1752 466.93 93.3675 467.837 93.3675 468.894C93.3675 469.955 93.1736 470.866 92.7858 471.629C92.4013 472.391 91.8445 472.978 91.1153 473.388C90.3862 473.796 89.5045 474 88.4704 474ZM86.7105 472.658H88.3859C89.1615 472.658 89.8061 472.512 90.3199 472.22C90.8336 471.925 91.2181 471.499 91.4733 470.942C91.7285 470.382 91.8561 469.7 91.8561 468.894C91.8561 468.095 91.7285 467.418 91.4733 466.861C91.2214 466.304 90.8452 465.881 90.3447 465.593C89.8443 465.305 89.2228 465.161 88.4804 465.161H86.7105V472.658ZM99.9958 470.833V466.364H101.487V474H100.026V472.678H99.9461C99.7704 473.085 99.4887 473.425 99.1009 473.697C98.7165 473.965 98.2375 474.099 97.6642 474.099C97.1736 474.099 96.7394 473.992 96.3616 473.776C95.9871 473.558 95.6921 473.234 95.4767 472.807C95.2645 472.379 95.1585 471.851 95.1585 471.221V466.364H96.645V471.042C96.645 471.562 96.7892 471.977 97.0775 472.285C97.3659 472.593 97.7404 472.747 98.2011 472.747C98.4795 472.747 98.7562 472.678 99.0313 472.538C99.3097 472.399 99.5401 472.189 99.7224 471.907C99.908 471.625 99.9991 471.267 99.9958 470.833ZM105.707 474.169C105.223 474.169 104.786 474.08 104.394 473.901C104.003 473.718 103.693 473.455 103.465 473.11C103.239 472.765 103.127 472.343 103.127 471.842C103.127 471.411 103.21 471.057 103.375 470.778C103.541 470.5 103.765 470.28 104.046 470.117C104.328 469.955 104.643 469.832 104.991 469.749C105.339 469.666 105.694 469.603 106.055 469.56C106.512 469.507 106.884 469.464 107.169 469.431C107.454 469.395 107.661 469.337 107.79 469.257C107.919 469.178 107.984 469.048 107.984 468.869V468.835C107.984 468.4 107.861 468.064 107.616 467.825C107.374 467.587 107.013 467.467 106.532 467.467C106.032 467.467 105.637 467.578 105.349 467.8C105.064 468.019 104.867 468.263 104.757 468.531L103.36 468.213C103.526 467.749 103.768 467.375 104.086 467.089C104.408 466.801 104.777 466.592 105.195 466.463C105.612 466.33 106.052 466.264 106.512 466.264C106.817 466.264 107.14 466.301 107.482 466.374C107.826 466.443 108.148 466.572 108.446 466.761C108.748 466.95 108.995 467.22 109.187 467.572C109.379 467.92 109.475 468.372 109.475 468.929V474H108.024V472.956H107.964C107.868 473.148 107.724 473.337 107.532 473.523C107.339 473.708 107.092 473.862 106.791 473.985C106.489 474.108 106.128 474.169 105.707 474.169ZM106.03 472.976C106.441 472.976 106.792 472.895 107.084 472.732C107.379 472.57 107.603 472.358 107.755 472.096C107.911 471.831 107.989 471.547 107.989 471.246V470.261C107.936 470.314 107.833 470.364 107.681 470.411C107.532 470.454 107.361 470.492 107.169 470.525C106.976 470.555 106.789 470.583 106.607 470.609C106.425 470.633 106.272 470.652 106.149 470.669C105.861 470.705 105.598 470.767 105.359 470.853C105.124 470.939 104.935 471.063 104.792 471.226C104.653 471.385 104.583 471.597 104.583 471.862C104.583 472.23 104.719 472.509 104.991 472.697C105.263 472.883 105.609 472.976 106.03 472.976ZM112.942 463.818V474H111.455V463.818H112.942ZM119.441 469.053V470.341H114.927V469.053H119.441ZM127.095 466.493C127.042 466.022 126.823 465.658 126.438 465.399C126.054 465.137 125.57 465.006 124.987 465.006C124.569 465.006 124.208 465.073 123.903 465.205C123.598 465.335 123.361 465.513 123.192 465.742C123.026 465.968 122.943 466.224 122.943 466.513C122.943 466.755 123 466.964 123.112 467.139C123.228 467.315 123.379 467.462 123.565 467.582C123.754 467.698 123.956 467.795 124.171 467.875C124.387 467.951 124.594 468.014 124.793 468.064L125.787 468.322C126.112 468.402 126.445 468.51 126.786 468.646C127.128 468.781 127.444 468.96 127.736 469.183C128.028 469.405 128.263 469.68 128.442 470.008C128.624 470.336 128.715 470.729 128.715 471.186C128.715 471.763 128.566 472.275 128.268 472.722C127.973 473.17 127.544 473.523 126.98 473.781C126.42 474.04 125.742 474.169 124.947 474.169C124.185 474.169 123.525 474.048 122.968 473.806C122.411 473.564 121.976 473.221 121.661 472.777C121.346 472.33 121.172 471.799 121.139 471.186H122.68C122.71 471.554 122.829 471.861 123.038 472.106C123.25 472.348 123.52 472.528 123.848 472.648C124.18 472.764 124.543 472.822 124.937 472.822C125.371 472.822 125.757 472.754 126.095 472.618C126.437 472.479 126.705 472.286 126.901 472.041C127.096 471.793 127.194 471.503 127.194 471.171C127.194 470.87 127.108 470.623 126.936 470.43C126.767 470.238 126.536 470.079 126.245 469.953C125.956 469.827 125.63 469.716 125.265 469.62L124.062 469.292C123.247 469.07 122.6 468.743 122.123 468.312C121.649 467.882 121.412 467.312 121.412 466.602C121.412 466.016 121.571 465.504 121.889 465.066C122.208 464.629 122.639 464.289 123.182 464.047C123.726 463.802 124.339 463.679 125.022 463.679C125.711 463.679 126.319 463.8 126.846 464.042C127.376 464.284 127.794 464.617 128.099 465.041C128.404 465.462 128.563 465.946 128.576 466.493H127.095ZM133.997 466.364V467.557H129.825V466.364H133.997ZM130.944 464.534H132.43V471.758C132.43 472.046 132.474 472.263 132.56 472.409C132.646 472.552 132.757 472.649 132.893 472.702C133.032 472.752 133.183 472.777 133.345 472.777C133.465 472.777 133.569 472.769 133.658 472.752C133.748 472.736 133.818 472.722 133.867 472.712L134.136 473.94C134.05 473.973 133.927 474.007 133.768 474.04C133.609 474.076 133.41 474.096 133.171 474.099C132.78 474.106 132.416 474.036 132.078 473.891C131.739 473.745 131.466 473.519 131.257 473.214C131.048 472.91 130.944 472.527 130.944 472.066V464.534ZM137.863 474.169C137.379 474.169 136.942 474.08 136.551 473.901C136.16 473.718 135.85 473.455 135.621 473.11C135.396 472.765 135.283 472.343 135.283 471.842C135.283 471.411 135.366 471.057 135.532 470.778C135.697 470.5 135.921 470.28 136.203 470.117C136.484 469.955 136.799 469.832 137.147 469.749C137.495 469.666 137.85 469.603 138.211 469.56C138.669 469.507 139.04 469.464 139.325 469.431C139.61 469.395 139.817 469.337 139.946 469.257C140.076 469.178 140.14 469.048 140.14 468.869V468.835C140.14 468.4 140.018 468.064 139.772 467.825C139.53 467.587 139.169 467.467 138.688 467.467C138.188 467.467 137.794 467.578 137.505 467.8C137.22 468.019 137.023 468.263 136.914 468.531L135.517 468.213C135.682 467.749 135.924 467.375 136.242 467.089C136.564 466.801 136.934 466.592 137.351 466.463C137.769 466.33 138.208 466.264 138.669 466.264C138.974 466.264 139.297 466.301 139.638 466.374C139.983 466.443 140.304 466.572 140.603 466.761C140.904 466.95 141.151 467.22 141.343 467.572C141.536 467.92 141.632 468.372 141.632 468.929V474H140.18V472.956H140.12C140.024 473.148 139.88 473.337 139.688 473.523C139.496 473.708 139.249 473.862 138.947 473.985C138.645 474.108 138.284 474.169 137.863 474.169ZM138.186 472.976C138.597 472.976 138.949 472.895 139.24 472.732C139.535 472.57 139.759 472.358 139.911 472.096C140.067 471.831 140.145 471.547 140.145 471.246V470.261C140.092 470.314 139.989 470.364 139.837 470.411C139.688 470.454 139.517 470.492 139.325 470.525C139.133 470.555 138.945 470.583 138.763 470.609C138.581 470.633 138.428 470.652 138.306 470.669C138.017 470.705 137.754 470.767 137.515 470.853C137.28 470.939 137.091 471.063 136.948 471.226C136.809 471.385 136.74 471.597 136.74 471.862C136.74 472.23 136.876 472.509 137.147 472.697C137.419 472.883 137.765 472.976 138.186 472.976ZM144.979 471.41L144.969 469.595H145.227L148.27 466.364H150.05L146.58 470.043H146.346L144.979 471.41ZM143.612 474V463.818H145.098V474H143.612ZM148.434 474L145.7 470.371L146.724 469.332L150.259 474H148.434ZM154.381 474.154C153.629 474.154 152.981 473.993 152.437 473.672C151.897 473.347 151.48 472.891 151.185 472.305C150.893 471.715 150.747 471.024 150.747 470.232C150.747 469.449 150.893 468.76 151.185 468.163C151.48 467.567 151.891 467.101 152.418 466.766C152.948 466.432 153.568 466.264 154.277 466.264C154.708 466.264 155.125 466.335 155.53 466.478C155.934 466.621 156.297 466.844 156.619 467.149C156.94 467.454 157.194 467.85 157.379 468.337C157.565 468.821 157.658 469.41 157.658 470.102V470.629H151.587V469.516H156.201C156.201 469.125 156.121 468.778 155.962 468.477C155.803 468.172 155.579 467.931 155.291 467.756C155.006 467.58 154.671 467.492 154.287 467.492C153.869 467.492 153.505 467.595 153.193 467.8C152.885 468.003 152.646 468.268 152.477 468.596C152.311 468.921 152.229 469.274 152.229 469.655V470.525C152.229 471.035 152.318 471.469 152.497 471.827C152.679 472.185 152.933 472.459 153.258 472.648C153.583 472.833 153.962 472.926 154.396 472.926C154.678 472.926 154.935 472.886 155.167 472.807C155.399 472.724 155.599 472.601 155.768 472.439C155.937 472.277 156.067 472.076 156.156 471.837L157.563 472.091C157.45 472.505 157.248 472.868 156.957 473.18C156.668 473.488 156.305 473.728 155.868 473.901C155.434 474.07 154.938 474.154 154.381 474.154Z" fill="#E08900"/>
<rect x="364.5" y="453.5" width="119" height="31" rx="15.5" fill="url(#paint1_linear_4867_2607)" stroke="#E08900"/>
<path d="M389.353 474V463.818H392.982C393.774 463.818 394.431 463.962 394.951 464.251C395.471 464.539 395.861 464.933 396.119 465.434C396.378 465.931 396.507 466.491 396.507 467.114C396.507 467.741 396.376 468.304 396.114 468.805C395.856 469.302 395.465 469.696 394.941 469.988C394.421 470.276 393.766 470.42 392.977 470.42H390.482V469.118H392.838C393.339 469.118 393.745 469.032 394.056 468.859C394.368 468.684 394.596 468.445 394.742 468.143C394.888 467.842 394.961 467.499 394.961 467.114C394.961 466.73 394.888 466.388 394.742 466.09C394.596 465.792 394.366 465.558 394.051 465.389C393.74 465.22 393.329 465.136 392.818 465.136H390.889V474H389.353ZM401.31 474.154C400.594 474.154 399.969 473.99 399.435 473.662C398.902 473.334 398.487 472.875 398.192 472.285C397.897 471.695 397.75 471.005 397.75 470.217C397.75 469.424 397.897 468.732 398.192 468.138C398.487 467.545 398.902 467.085 399.435 466.756C399.969 466.428 400.594 466.264 401.31 466.264C402.026 466.264 402.65 466.428 403.184 466.756C403.718 467.085 404.132 467.545 404.427 468.138C404.722 468.732 404.869 469.424 404.869 470.217C404.869 471.005 404.722 471.695 404.427 472.285C404.132 472.875 403.718 473.334 403.184 473.662C402.65 473.99 402.026 474.154 401.31 474.154ZM401.315 472.906C401.779 472.906 402.163 472.784 402.468 472.538C402.773 472.293 402.998 471.967 403.144 471.559C403.293 471.151 403.368 470.702 403.368 470.212C403.368 469.724 403.293 469.277 403.144 468.869C402.998 468.458 402.773 468.129 402.468 467.88C402.163 467.631 401.779 467.507 401.315 467.507C400.847 467.507 400.46 467.631 400.151 467.88C399.846 468.129 399.619 468.458 399.47 468.869C399.324 469.277 399.251 469.724 399.251 470.212C399.251 470.702 399.324 471.151 399.47 471.559C399.619 471.967 399.846 472.293 400.151 472.538C400.46 472.784 400.847 472.906 401.315 472.906ZM412.201 466.493C412.148 466.022 411.929 465.658 411.545 465.399C411.16 465.137 410.677 465.006 410.093 465.006C409.676 465.006 409.314 465.073 409.009 465.205C408.704 465.335 408.468 465.513 408.298 465.742C408.133 465.968 408.05 466.224 408.05 466.513C408.05 466.755 408.106 466.964 408.219 467.139C408.335 467.315 408.486 467.462 408.671 467.582C408.86 467.698 409.062 467.795 409.278 467.875C409.493 467.951 409.7 468.014 409.899 468.064L410.894 468.322C411.218 468.402 411.552 468.51 411.893 468.646C412.234 468.781 412.551 468.96 412.843 469.183C413.134 469.405 413.369 469.68 413.548 470.008C413.731 470.336 413.822 470.729 413.822 471.186C413.822 471.763 413.673 472.275 413.374 472.722C413.079 473.17 412.65 473.523 412.087 473.781C411.527 474.04 410.849 474.169 410.053 474.169C409.291 474.169 408.632 474.048 408.075 473.806C407.518 473.564 407.082 473.221 406.767 472.777C406.452 472.33 406.278 471.799 406.245 471.186H407.786C407.816 471.554 407.936 471.861 408.144 472.106C408.356 472.348 408.627 472.528 408.955 472.648C409.286 472.764 409.649 472.822 410.044 472.822C410.478 472.822 410.864 472.754 411.202 472.618C411.543 472.479 411.812 472.286 412.007 472.041C412.203 471.793 412.301 471.503 412.301 471.171C412.301 470.87 412.214 470.623 412.042 470.43C411.873 470.238 411.643 470.079 411.351 469.953C411.063 469.827 410.736 469.716 410.372 469.62L409.169 469.292C408.353 469.07 407.707 468.743 407.23 468.312C406.756 467.882 406.519 467.312 406.519 466.602C406.519 466.016 406.678 465.504 406.996 465.066C407.314 464.629 407.745 464.289 408.289 464.047C408.832 463.802 409.445 463.679 410.128 463.679C410.817 463.679 411.426 463.8 411.953 464.042C412.483 464.284 412.901 464.617 413.205 465.041C413.51 465.462 413.669 465.946 413.683 466.493H412.201ZM424.916 466.493C424.863 466.022 424.644 465.658 424.26 465.399C423.875 465.137 423.391 465.006 422.808 465.006C422.39 465.006 422.029 465.073 421.724 465.205C421.419 465.335 421.182 465.513 421.013 465.742C420.848 465.968 420.765 466.224 420.765 466.513C420.765 466.755 420.821 466.964 420.934 467.139C421.05 467.315 421.201 467.462 421.386 467.582C421.575 467.698 421.777 467.795 421.993 467.875C422.208 467.951 422.415 468.014 422.614 468.064L423.608 468.322C423.933 468.402 424.266 468.51 424.608 468.646C424.949 468.781 425.266 468.96 425.557 469.183C425.849 469.405 426.084 469.68 426.263 470.008C426.446 470.336 426.537 470.729 426.537 471.186C426.537 471.763 426.388 472.275 426.089 472.722C425.794 473.17 425.365 473.523 424.802 473.781C424.242 474.04 423.564 474.169 422.768 474.169C422.006 474.169 421.346 474.048 420.79 473.806C420.233 473.564 419.797 473.221 419.482 472.777C419.167 472.33 418.993 471.799 418.96 471.186H420.501C420.531 471.554 420.65 471.861 420.859 472.106C421.071 472.348 421.341 472.528 421.67 472.648C422.001 472.764 422.364 472.822 422.758 472.822C423.193 472.822 423.579 472.754 423.917 472.618C424.258 472.479 424.527 472.286 424.722 472.041C424.918 471.793 425.015 471.503 425.015 471.171C425.015 470.87 424.929 470.623 424.757 470.43C424.588 470.238 424.358 470.079 424.066 469.953C423.778 469.827 423.451 469.716 423.086 469.62L421.883 469.292C421.068 469.07 420.422 468.743 419.944 468.312C419.47 467.882 419.233 467.312 419.233 466.602C419.233 466.016 419.393 465.504 419.711 465.066C420.029 464.629 420.46 464.289 421.003 464.047C421.547 463.802 422.16 463.679 422.843 463.679C423.532 463.679 424.14 463.8 424.667 464.042C425.198 464.284 425.615 464.617 425.92 465.041C426.225 465.462 426.384 465.946 426.398 466.493H424.916ZM431.818 466.364V467.557H427.647V466.364H431.818ZM428.765 464.534H430.252V471.758C430.252 472.046 430.295 472.263 430.381 472.409C430.467 472.552 430.578 472.649 430.714 472.702C430.853 472.752 431.004 472.777 431.167 472.777C431.286 472.777 431.39 472.769 431.48 472.752C431.569 472.736 431.639 472.722 431.689 472.712L431.957 473.94C431.871 473.973 431.748 474.007 431.589 474.04C431.43 474.076 431.231 474.096 430.993 474.099C430.601 474.106 430.237 474.036 429.899 473.891C429.561 473.745 429.287 473.519 429.078 473.214C428.87 472.91 428.765 472.527 428.765 472.066V464.534ZM435.684 474.169C435.201 474.169 434.763 474.08 434.372 473.901C433.981 473.718 433.671 473.455 433.442 473.11C433.217 472.765 433.104 472.343 433.104 471.842C433.104 471.411 433.187 471.057 433.353 470.778C433.519 470.5 433.742 470.28 434.024 470.117C434.306 469.955 434.621 469.832 434.969 469.749C435.317 469.666 435.671 469.603 436.032 469.56C436.49 469.507 436.861 469.464 437.146 469.431C437.431 469.395 437.638 469.337 437.768 469.257C437.897 469.178 437.961 469.048 437.961 468.869V468.835C437.961 468.4 437.839 468.064 437.594 467.825C437.352 467.587 436.99 467.467 436.51 467.467C436.009 467.467 435.615 467.578 435.327 467.8C435.041 468.019 434.844 468.263 434.735 468.531L433.338 468.213C433.504 467.749 433.746 467.375 434.064 467.089C434.385 466.801 434.755 466.592 435.172 466.463C435.59 466.33 436.029 466.264 436.49 466.264C436.795 466.264 437.118 466.301 437.459 466.374C437.804 466.443 438.126 466.572 438.424 466.761C438.725 466.95 438.972 467.22 439.165 467.572C439.357 467.92 439.453 468.372 439.453 468.929V474H438.001V472.956H437.942C437.845 473.148 437.701 473.337 437.509 473.523C437.317 473.708 437.07 473.862 436.768 473.985C436.467 474.108 436.105 474.169 435.684 474.169ZM436.008 472.976C436.419 472.976 436.77 472.895 437.062 472.732C437.357 472.57 437.58 472.358 437.733 472.096C437.889 471.831 437.966 471.547 437.966 471.246V470.261C437.913 470.314 437.811 470.364 437.658 470.411C437.509 470.454 437.338 470.492 437.146 470.525C436.954 470.555 436.767 470.583 436.584 470.609C436.402 470.633 436.25 470.652 436.127 470.669C435.839 470.705 435.575 470.767 435.336 470.853C435.101 470.939 434.912 471.063 434.77 471.226C434.631 471.385 434.561 471.597 434.561 471.862C434.561 472.23 434.697 472.509 434.969 472.697C435.24 472.883 435.587 472.976 436.008 472.976ZM442.8 471.41L442.79 469.595H443.049L446.091 466.364H447.871L444.401 470.043H444.167L442.8 471.41ZM441.433 474V463.818H442.919V474H441.433ZM446.255 474L443.521 470.371L444.545 469.332L448.08 474H446.255ZM452.203 474.154C451.45 474.154 450.802 473.993 450.259 473.672C449.718 473.347 449.301 472.891 449.006 472.305C448.714 471.715 448.568 471.024 448.568 470.232C448.568 469.449 448.714 468.76 449.006 468.163C449.301 467.567 449.712 467.101 450.239 466.766C450.769 466.432 451.389 466.264 452.098 466.264C452.529 466.264 452.947 466.335 453.351 466.478C453.755 466.621 454.118 466.844 454.44 467.149C454.761 467.454 455.015 467.85 455.2 468.337C455.386 468.821 455.479 469.41 455.479 470.102V470.629H449.409V469.516H454.022C454.022 469.125 453.943 468.778 453.784 468.477C453.624 468.172 453.401 467.931 453.112 467.756C452.827 467.58 452.493 467.492 452.108 467.492C451.691 467.492 451.326 467.595 451.014 467.8C450.706 468.003 450.468 468.268 450.298 468.596C450.133 468.921 450.05 469.274 450.05 469.655V470.525C450.05 471.035 450.139 471.469 450.318 471.827C450.501 472.185 450.754 472.459 451.079 472.648C451.404 472.833 451.783 472.926 452.218 472.926C452.499 472.926 452.756 472.886 452.988 472.807C453.22 472.724 453.421 472.601 453.59 472.439C453.759 472.277 453.888 472.076 453.977 471.837L455.384 472.091C455.272 472.505 455.07 472.868 454.778 473.18C454.49 473.488 454.127 473.728 453.689 473.901C453.255 474.07 452.759 474.154 452.203 474.154Z" fill="#E08900"/>
<rect x="0.5" y="352.5" width="49" height="49" rx="24.5" stroke="#E08900"/>
<path d="M21.125 375.667C23.7363 375.667 25.8466 373.619 25.8466 371.094V369.571C25.8466 367.05 23.7307 365 21.1268 365C18.5155 365 16.4071 367.046 16.4071 369.571V371.094C16.3978 373.619 18.5136 375.667 21.125 375.667ZM31.233 375.674C33.2893 375.674 34.9508 374.011 34.9508 371.957V370.715C34.9508 368.662 33.2856 366.998 31.233 366.998C29.1805 366.998 27.5153 368.662 27.5153 370.715V371.957C27.5116 374.011 29.1805 375.674 31.233 375.674ZM37.2529 378.766C35.4492 378.04 33.5197 377.667 31.572 377.669C30.6502 377.67 29.7304 377.757 28.8247 377.926C28.9644 377.972 29.1041 378.018 29.2438 378.07C31.017 378.832 32.2537 380.536 32.2537 382.532V385.649C34.0552 385.606 35.847 385.375 37.5993 384.959C38.4077 384.705 39 383.925 39 382.994V381.579C38.9963 380.317 38.2773 379.242 37.2566 378.764L37.2529 378.766ZM28.8659 379.79C23.8962 377.844 18.3622 377.842 13.3916 379.787C11.9872 380.423 11 381.862 11 383.548V385.425C11 386.667 11.8009 387.71 12.8998 388.047C15.5939 388.677 18.3527 388.997 21.1213 389C23.8861 389 26.6414 388.681 29.3315 388.051C30.4342 387.716 31.2407 386.67 31.2407 385.423V383.546C31.2407 381.864 30.2628 380.433 28.8659 379.789V379.79Z" fill="#E08900"/>
<rect x="516.5" y="352.5" width="49" height="49" rx="24.5" stroke="#E08900"/>
<path d="M537.125 375.299C539.736 375.299 541.847 373.322 541.847 370.884V369.413C541.847 366.979 539.731 365 537.127 365C534.516 365 532.407 366.976 532.407 369.413V370.884C532.398 373.322 534.514 375.299 537.125 375.299ZM547.233 375.306C549.289 375.306 550.951 373.7 550.951 371.717V370.518C550.951 368.535 549.286 366.929 547.233 366.929C545.18 366.929 543.515 368.535 543.515 370.518V371.717C543.512 373.7 545.18 375.306 547.233 375.306ZM553.253 378.291C551.449 377.59 549.52 377.23 547.572 377.232C546.65 377.233 545.73 377.317 544.825 377.481C544.964 377.525 545.104 377.57 545.244 377.619C547.017 378.355 548.254 380 548.254 381.928V384.937C550.055 384.895 551.847 384.672 553.599 384.271C554.408 384.026 555 383.273 555 382.374V381.007C554.996 379.789 554.277 378.751 553.257 378.289L553.253 378.291ZM544.866 379.28C539.896 377.401 534.362 377.4 529.392 379.277C527.987 379.892 527 381.281 527 382.908V384.72C527 385.92 527.801 386.927 528.9 387.252C531.594 387.861 534.353 388.169 537.121 388.172C539.886 388.172 542.641 387.865 545.332 387.256C546.434 386.932 547.241 385.923 547.241 384.719V382.907C547.241 381.283 546.263 379.9 544.866 379.279V379.28Z" fill="#E08900"/>
<rect x="249.5" y="444.5" width="49" height="49" rx="24.5" stroke="#E08900"/>
<path d="M285.05 473.005C285.503 471.755 285.75 470.406 285.75 469C285.75 467.93 285.607 466.894 285.339 465.909L285.322 465.913C285.313 465.882 285.311 465.849 285.316 465.816C285.32 465.784 285.331 465.752 285.347 465.724C285.364 465.695 285.385 465.671 285.412 465.651C285.438 465.631 285.467 465.616 285.499 465.608L285.681 465.453C286.098 465.099 286.67 464.987 287.19 465.158C287.246 465.143 287.306 465.148 287.358 465.172C287.411 465.196 287.453 465.237 287.479 465.289L287.501 465.283C287.826 466.467 288 467.713 288 469C288 470.755 287.677 472.434 287.088 473.981C287.562 474.507 287.851 475.204 287.851 475.969C287.851 477.608 286.522 478.938 284.882 478.938C284.582 478.938 284.283 478.892 283.995 478.803C281.455 481.393 277.915 483 274 483C266.268 483 260 476.732 260 469C260 467.281 260.31 465.634 260.877 464.112C260.339 463.57 260.007 462.824 260.007 462C260.007 460.343 261.351 459 263.007 459C263.365 459 263.707 459.062 264.025 459.177C266.564 456.599 270.095 455 274 455C275.438 455 276.825 455.217 278.13 455.619C278.632 455.231 279.262 455 279.945 455C281.585 455 282.914 456.329 282.914 457.969C282.914 459.608 281.585 460.938 279.945 460.938C278.305 460.938 276.976 459.608 276.976 457.969C276.976 457.856 276.983 457.745 276.995 457.635C276.039 457.384 275.035 457.25 274 457.25C270.761 457.25 267.828 458.561 265.703 460.681C265.898 461.079 266.008 461.527 266.008 462C266.008 463.657 264.664 465 263.007 465C262.988 465 262.968 465 262.949 464.999C262.497 466.248 262.25 467.595 262.25 469C262.25 475.489 267.511 480.75 274 480.75C277.219 480.75 280.136 479.455 282.258 477.358C282.038 476.944 281.914 476.471 281.914 475.969C281.914 474.329 283.243 473 284.882 473C284.939 473 284.995 473.002 285.05 473.005Z" fill="#E08900"/>
<path d="M274 475C277.314 475 280 472.314 280 469C280 465.686 277.314 463 274 463C270.686 463 268 465.686 268 469C268 472.314 270.686 475 274 475Z" fill="#E08900"/>
<path d="M286.5 467C287.328 467 288 466.328 288 465.5C288 464.672 287.328 464 286.5 464C285.672 464 285 464.672 285 465.5C285 466.328 285.672 467 286.5 467Z" fill="#E08900"/>
<path d="M125.616 65.1406V63.8182H133.496V65.1406H130.32V74H128.788V65.1406H125.616ZM135.581 66.3636L137.266 69.3366L138.966 66.3636H140.592L138.211 70.1818L140.612 74H138.986L137.266 71.1463L135.551 74H133.92L136.297 70.1818L133.95 66.3636H135.581Z" fill="white"/>
<path d="M59.1186 382V371.818H62.8473C63.5698 371.818 64.1681 371.937 64.642 372.176C65.116 372.411 65.4706 372.731 65.706 373.136C65.9413 373.537 66.0589 373.989 66.0589 374.493C66.0589 374.917 65.9811 375.275 65.8253 375.567C65.6695 375.855 65.4607 376.087 65.1989 376.263C64.9403 376.435 64.6553 376.561 64.3438 376.641V376.74C64.6818 376.757 65.0116 376.866 65.3331 377.068C65.6579 377.267 65.9264 377.55 66.1385 377.918C66.3506 378.286 66.4567 378.734 66.4567 379.261C66.4567 379.781 66.334 380.248 66.0888 380.663C65.8468 381.074 65.4723 381.4 64.9652 381.642C64.4581 381.881 63.8101 382 63.0213 382H59.1186ZM60.6548 380.683H62.8722C63.608 380.683 64.1349 380.54 64.4531 380.255C64.7713 379.97 64.9304 379.614 64.9304 379.186C64.9304 378.865 64.8492 378.57 64.6868 378.301C64.5244 378.033 64.2924 377.819 63.9908 377.66C63.6925 377.501 63.3378 377.421 62.9268 377.421H60.6548V380.683ZM60.6548 376.223H62.7131C63.0578 376.223 63.3677 376.157 63.6428 376.024C63.9212 375.892 64.1416 375.706 64.304 375.467C64.4697 375.225 64.5526 374.94 64.5526 374.612C64.5526 374.191 64.4051 373.838 64.1101 373.553C63.8151 373.268 63.3627 373.126 62.7528 373.126H60.6548V376.223ZM71.4506 382.154C70.6983 382.154 70.0503 381.993 69.5067 381.672C68.9665 381.347 68.5489 380.891 68.2539 380.305C67.9622 379.715 67.8164 379.024 67.8164 378.232C67.8164 377.449 67.9622 376.76 68.2539 376.163C68.5489 375.567 68.9599 375.101 69.4869 374.766C70.0172 374.432 70.637 374.264 71.3462 374.264C71.7771 374.264 72.1947 374.335 72.5991 374.478C73.0034 374.621 73.3664 374.844 73.6879 375.149C74.0094 375.454 74.2629 375.85 74.4485 376.337C74.6341 376.821 74.7269 377.41 74.7269 378.102V378.629H68.6566V377.516H73.2702C73.2702 377.125 73.1907 376.778 73.0316 376.477C72.8725 376.172 72.6488 375.931 72.3604 375.756C72.0754 375.58 71.7406 375.492 71.3562 375.492C70.9386 375.492 70.574 375.595 70.2624 375.8C69.9542 376.003 69.7156 376.268 69.5465 376.596C69.3808 376.921 69.2979 377.274 69.2979 377.655V378.525C69.2979 379.035 69.3874 379.469 69.5664 379.827C69.7487 380.185 70.0022 380.459 70.3271 380.648C70.6519 380.833 71.0314 380.926 71.4656 380.926C71.7473 380.926 72.0041 380.886 72.2362 380.807C72.4682 380.724 72.6687 380.601 72.8377 380.439C73.0067 380.277 73.136 380.076 73.2255 379.837L74.6325 380.091C74.5198 380.505 74.3176 380.868 74.0259 381.18C73.7376 381.488 73.3746 381.728 72.9371 381.901C72.503 382.07 72.0075 382.154 71.4506 382.154ZM77.8627 377.466V382H76.3762V374.364H77.8031V375.607H77.8975C78.0732 375.202 78.3483 374.877 78.7228 374.632C79.1007 374.387 79.5763 374.264 80.1497 374.264C80.67 374.264 81.1258 374.374 81.5169 374.592C81.908 374.808 82.2112 375.129 82.4267 375.557C82.6421 375.984 82.7498 376.513 82.7498 377.143V382H81.2633V377.322C81.2633 376.768 81.1191 376.336 80.8308 376.024C80.5424 375.709 80.1464 375.552 79.6426 375.552C79.2979 375.552 78.9913 375.626 78.7228 375.776C78.4577 375.925 78.2472 376.143 78.0914 376.432C77.939 376.717 77.8627 377.062 77.8627 377.466ZM88.0346 382.154C87.2823 382.154 86.6343 381.993 86.0907 381.672C85.5505 381.347 85.1329 380.891 84.8379 380.305C84.5462 379.715 84.4004 379.024 84.4004 378.232C84.4004 377.449 84.5462 376.76 84.8379 376.163C85.1329 375.567 85.5439 375.101 86.0708 374.766C86.6011 374.432 87.2209 374.264 87.9302 374.264C88.3611 374.264 88.7787 374.335 89.1831 374.478C89.5874 374.621 89.9503 374.844 90.2718 375.149C90.5933 375.454 90.8469 375.85 91.0325 376.337C91.2181 376.821 91.3109 377.41 91.3109 378.102V378.629H85.2406V377.516H89.8542C89.8542 377.125 89.7747 376.778 89.6156 376.477C89.4565 376.172 89.2328 375.931 88.9444 375.756C88.6594 375.58 88.3246 375.492 87.9402 375.492C87.5225 375.492 87.158 375.595 86.8464 375.8C86.5382 376.003 86.2995 376.268 86.1305 376.596C85.9648 376.921 85.8819 377.274 85.8819 377.655V378.525C85.8819 379.035 85.9714 379.469 86.1504 379.827C86.3327 380.185 86.5862 380.459 86.911 380.648C87.2359 380.833 87.6154 380.926 88.0495 380.926C88.3313 380.926 88.5881 380.886 88.8201 380.807C89.0521 380.724 89.2527 380.601 89.4217 380.439C89.5907 380.277 89.72 380.076 89.8095 379.837L91.2164 380.091C91.1038 380.505 90.9016 380.868 90.6099 381.18C90.3216 381.488 89.9586 381.728 89.5211 381.901C89.0869 382.07 88.5914 382.154 88.0346 382.154ZM96.5945 374.364V375.557H92.2791V374.364H96.5945ZM93.4624 382V373.479C93.4624 373.001 93.5668 372.605 93.7756 372.29C93.9844 371.972 94.2611 371.735 94.6058 371.58C94.9505 371.42 95.325 371.341 95.7294 371.341C96.0277 371.341 96.2829 371.366 96.495 371.415C96.7071 371.462 96.8646 371.505 96.9673 371.545L96.6193 372.748C96.5497 372.728 96.4602 372.705 96.3509 372.678C96.2415 372.648 96.1089 372.634 95.9531 372.634C95.5919 372.634 95.3333 372.723 95.1776 372.902C95.0251 373.081 94.9489 373.339 94.9489 373.678V382H93.4624ZM98.1282 382V374.364H99.6147V382H98.1282ZM98.8789 373.185C98.6204 373.185 98.3983 373.099 98.2127 372.927C98.0304 372.751 97.9393 372.542 97.9393 372.3C97.9393 372.055 98.0304 371.846 98.2127 371.674C98.3983 371.498 98.6204 371.411 98.8789 371.411C99.1374 371.411 99.3578 371.498 99.5401 371.674C99.7257 371.846 99.8185 372.055 99.8185 372.3C99.8185 372.542 99.7257 372.751 99.5401 372.927C99.3578 373.099 99.1374 373.185 98.8789 373.185ZM105.179 374.364V375.557H101.008V374.364H105.179ZM102.127 372.534H103.613V379.758C103.613 380.046 103.656 380.263 103.742 380.409C103.829 380.552 103.94 380.649 104.075 380.702C104.215 380.752 104.365 380.777 104.528 380.777C104.647 380.777 104.752 380.769 104.841 380.752C104.931 380.736 105 380.722 105.05 380.712L105.318 381.94C105.232 381.973 105.11 382.007 104.95 382.04C104.791 382.076 104.593 382.096 104.354 382.099C103.963 382.106 103.598 382.036 103.26 381.891C102.922 381.745 102.649 381.519 102.44 381.214C102.231 380.91 102.127 380.527 102.127 380.066V372.534ZM111.063 377.053V378.341H106.549V377.053H111.063ZM118.717 374.493C118.664 374.022 118.445 373.658 118.061 373.399C117.676 373.137 117.192 373.006 116.609 373.006C116.191 373.006 115.83 373.073 115.525 373.205C115.22 373.335 114.983 373.513 114.814 373.742C114.648 373.968 114.566 374.224 114.566 374.513C114.566 374.755 114.622 374.964 114.735 375.139C114.851 375.315 115.001 375.462 115.187 375.582C115.376 375.698 115.578 375.795 115.794 375.875C116.009 375.951 116.216 376.014 116.415 376.064L117.409 376.322C117.734 376.402 118.067 376.51 118.409 376.646C118.75 376.781 119.066 376.96 119.358 377.183C119.65 377.405 119.885 377.68 120.064 378.008C120.246 378.336 120.338 378.729 120.338 379.186C120.338 379.763 120.188 380.275 119.89 380.722C119.595 381.17 119.166 381.523 118.602 381.781C118.042 382.04 117.365 382.169 116.569 382.169C115.807 382.169 115.147 382.048 114.59 381.806C114.034 381.564 113.598 381.221 113.283 380.777C112.968 380.33 112.794 379.799 112.761 379.186H114.302C114.332 379.554 114.451 379.861 114.66 380.106C114.872 380.348 115.142 380.528 115.47 380.648C115.802 380.764 116.165 380.822 116.559 380.822C116.993 380.822 117.379 380.754 117.718 380.618C118.059 380.479 118.327 380.286 118.523 380.041C118.718 379.793 118.816 379.503 118.816 379.171C118.816 378.87 118.73 378.623 118.558 378.43C118.389 378.238 118.158 378.079 117.867 377.953C117.578 377.827 117.252 377.716 116.887 377.62L115.684 377.292C114.869 377.07 114.222 376.743 113.745 376.312C113.271 375.882 113.034 375.312 113.034 374.602C113.034 374.016 113.193 373.504 113.512 373.066C113.83 372.629 114.261 372.289 114.804 372.047C115.348 371.802 115.961 371.679 116.644 371.679C117.333 371.679 117.941 371.8 118.468 372.042C118.999 372.284 119.416 372.617 119.721 373.041C120.026 373.462 120.185 373.946 120.198 374.493H118.717ZM123.54 377.466V382H122.054V371.818H123.521V375.607H123.615C123.794 375.196 124.067 374.869 124.435 374.627C124.803 374.385 125.284 374.264 125.877 374.264C126.401 374.264 126.858 374.372 127.249 374.587C127.644 374.803 127.949 375.124 128.164 375.552C128.383 375.976 128.492 376.506 128.492 377.143V382H127.006V377.322C127.006 376.762 126.862 376.327 126.573 376.019C126.285 375.708 125.884 375.552 125.37 375.552C125.019 375.552 124.704 375.626 124.425 375.776C124.15 375.925 123.933 376.143 123.774 376.432C123.618 376.717 123.54 377.062 123.54 377.466ZM132.698 382.169C132.214 382.169 131.777 382.08 131.386 381.901C130.995 381.718 130.685 381.455 130.456 381.11C130.231 380.765 130.118 380.343 130.118 379.842C130.118 379.411 130.201 379.057 130.366 378.778C130.532 378.5 130.756 378.28 131.038 378.117C131.319 377.955 131.634 377.832 131.982 377.749C132.33 377.666 132.685 377.603 133.046 377.56C133.504 377.507 133.875 377.464 134.16 377.431C134.445 377.395 134.652 377.337 134.781 377.257C134.911 377.178 134.975 377.048 134.975 376.869V376.835C134.975 376.4 134.853 376.064 134.607 375.825C134.365 375.587 134.004 375.467 133.523 375.467C133.023 375.467 132.629 375.578 132.34 375.8C132.055 376.019 131.858 376.263 131.749 376.531L130.352 376.213C130.517 375.749 130.759 375.375 131.077 375.089C131.399 374.801 131.768 374.592 132.186 374.463C132.604 374.33 133.043 374.264 133.504 374.264C133.808 374.264 134.132 374.301 134.473 374.374C134.818 374.443 135.139 374.572 135.438 374.761C135.739 374.95 135.986 375.22 136.178 375.572C136.371 375.92 136.467 376.372 136.467 376.929V382H135.015V380.956H134.955C134.859 381.148 134.715 381.337 134.523 381.523C134.33 381.708 134.084 381.862 133.782 381.985C133.48 382.108 133.119 382.169 132.698 382.169ZM133.021 380.976C133.432 380.976 133.784 380.895 134.075 380.732C134.37 380.57 134.594 380.358 134.746 380.096C134.902 379.831 134.98 379.547 134.98 379.246V378.261C134.927 378.314 134.824 378.364 134.672 378.411C134.523 378.454 134.352 378.492 134.16 378.525C133.968 378.555 133.78 378.583 133.598 378.609C133.416 378.633 133.263 378.652 133.141 378.669C132.852 378.705 132.589 378.767 132.35 378.853C132.115 378.939 131.926 379.063 131.783 379.226C131.644 379.385 131.575 379.597 131.575 379.862C131.575 380.23 131.71 380.509 131.982 380.697C132.254 380.883 132.6 380.976 133.021 380.976ZM138.447 382V374.364H139.883V375.577H139.963C140.102 375.166 140.347 374.843 140.699 374.607C141.053 374.369 141.454 374.249 141.902 374.249C141.995 374.249 142.104 374.253 142.23 374.259C142.359 374.266 142.46 374.274 142.533 374.284V375.706C142.474 375.689 142.367 375.671 142.215 375.651C142.063 375.628 141.91 375.616 141.758 375.616C141.406 375.616 141.093 375.691 140.818 375.84C140.546 375.986 140.331 376.19 140.172 376.452C140.013 376.71 139.933 377.005 139.933 377.337V382H138.447ZM143.82 382V374.364H145.306V382H143.82ZM144.57 373.185C144.312 373.185 144.09 373.099 143.904 372.927C143.722 372.751 143.631 372.542 143.631 372.3C143.631 372.055 143.722 371.846 143.904 371.674C144.09 371.498 144.312 371.411 144.57 371.411C144.829 371.411 145.049 371.498 145.232 371.674C145.417 371.846 145.51 372.055 145.51 372.3C145.51 372.542 145.417 372.751 145.232 372.927C145.049 373.099 144.829 373.185 144.57 373.185ZM148.792 377.466V382H147.306V374.364H148.733V375.607H148.827C149.003 375.202 149.278 374.877 149.653 374.632C150.03 374.387 150.506 374.264 151.079 374.264C151.6 374.264 152.055 374.374 152.447 374.592C152.838 374.808 153.141 375.129 153.356 375.557C153.572 375.984 153.68 376.513 153.68 377.143V382H152.193V377.322C152.193 376.768 152.049 376.336 151.76 376.024C151.472 375.709 151.076 375.552 150.572 375.552C150.228 375.552 149.921 375.626 149.653 375.776C149.387 375.925 149.177 376.143 149.021 376.432C148.869 376.717 148.792 377.062 148.792 377.466ZM158.875 385.023C158.268 385.023 157.746 384.943 157.309 384.784C156.875 384.625 156.52 384.415 156.245 384.153C155.97 383.891 155.764 383.604 155.628 383.293L156.906 382.766C156.996 382.911 157.115 383.066 157.264 383.228C157.416 383.394 157.622 383.535 157.881 383.651C158.142 383.767 158.479 383.825 158.89 383.825C159.453 383.825 159.919 383.687 160.287 383.412C160.655 383.14 160.839 382.706 160.839 382.109V380.608H160.744C160.655 380.77 160.525 380.951 160.356 381.15C160.191 381.349 159.962 381.521 159.67 381.667C159.379 381.813 158.999 381.886 158.532 381.886C157.929 381.886 157.385 381.745 156.901 381.463C156.421 381.178 156.039 380.759 155.758 380.205C155.479 379.648 155.34 378.964 155.34 378.152C155.34 377.34 155.478 376.644 155.753 376.064C156.031 375.484 156.412 375.04 156.896 374.732C157.38 374.42 157.929 374.264 158.542 374.264C159.016 374.264 159.398 374.344 159.69 374.503C159.982 374.659 160.209 374.841 160.371 375.05C160.537 375.259 160.665 375.442 160.754 375.602H160.863V374.364H162.32V382.169C162.32 382.825 162.168 383.364 161.863 383.785C161.558 384.206 161.145 384.517 160.625 384.719C160.108 384.922 159.524 385.023 158.875 385.023ZM158.86 380.653C159.287 380.653 159.649 380.553 159.944 380.354C160.242 380.152 160.467 379.864 160.62 379.489C160.776 379.112 160.854 378.659 160.854 378.132C160.854 377.618 160.777 377.166 160.625 376.775C160.472 376.384 160.249 376.079 159.954 375.86C159.659 375.638 159.294 375.527 158.86 375.527C158.412 375.527 158.04 375.643 157.741 375.875C157.443 376.104 157.218 376.415 157.065 376.81C156.916 377.204 156.841 377.645 156.841 378.132C156.841 378.633 156.918 379.072 157.07 379.45C157.223 379.827 157.448 380.122 157.746 380.335C158.048 380.547 158.419 380.653 158.86 380.653Z" fill="#E08900"/>
<path d="M389.119 382V371.818H392.748C393.54 371.818 394.196 371.962 394.717 372.251C395.237 372.539 395.626 372.933 395.885 373.434C396.143 373.931 396.273 374.491 396.273 375.114C396.273 375.741 396.142 376.304 395.88 376.805C395.621 377.302 395.23 377.696 394.707 377.988C394.186 378.276 393.532 378.42 392.743 378.42H390.247V377.118H392.604C393.104 377.118 393.51 377.032 393.822 376.859C394.133 376.684 394.362 376.445 394.508 376.143C394.654 375.842 394.727 375.499 394.727 375.114C394.727 374.73 394.654 374.388 394.508 374.09C394.362 373.792 394.132 373.558 393.817 373.389C393.505 373.22 393.094 373.136 392.584 373.136H390.655V382H389.119ZM397.954 382V374.364H399.391V375.577H399.471C399.61 375.166 399.855 374.843 400.206 374.607C400.561 374.369 400.962 374.249 401.41 374.249C401.502 374.249 401.612 374.253 401.738 374.259C401.867 374.266 401.968 374.274 402.041 374.284V375.706C401.981 375.689 401.875 375.671 401.723 375.651C401.57 375.628 401.418 375.616 401.265 375.616C400.914 375.616 400.601 375.691 400.326 375.84C400.054 375.986 399.839 376.19 399.68 376.452C399.52 376.71 399.441 377.005 399.441 377.337V382H397.954ZM406.271 382.154C405.555 382.154 404.93 381.99 404.396 381.662C403.863 381.334 403.448 380.875 403.153 380.285C402.858 379.695 402.711 379.005 402.711 378.217C402.711 377.424 402.858 376.732 403.153 376.138C403.448 375.545 403.863 375.085 404.396 374.756C404.93 374.428 405.555 374.264 406.271 374.264C406.987 374.264 407.611 374.428 408.145 374.756C408.679 375.085 409.093 375.545 409.388 376.138C409.683 376.732 409.83 377.424 409.83 378.217C409.83 379.005 409.683 379.695 409.388 380.285C409.093 380.875 408.679 381.334 408.145 381.662C407.611 381.99 406.987 382.154 406.271 382.154ZM406.276 380.906C406.74 380.906 407.124 380.784 407.429 380.538C407.734 380.293 407.959 379.967 408.105 379.559C408.254 379.151 408.329 378.702 408.329 378.212C408.329 377.724 408.254 377.277 408.105 376.869C407.959 376.458 407.734 376.129 407.429 375.88C407.124 375.631 406.74 375.507 406.276 375.507C405.808 375.507 405.42 375.631 405.112 375.88C404.807 376.129 404.58 376.458 404.431 376.869C404.285 377.277 404.212 377.724 404.212 378.212C404.212 378.702 404.285 379.151 404.431 379.559C404.58 379.967 404.807 380.293 405.112 380.538C405.42 380.784 405.808 380.906 406.276 380.906ZM415.054 374.364V375.557H410.883V374.364H415.054ZM412.002 372.534H413.488V379.758C413.488 380.046 413.531 380.263 413.617 380.409C413.704 380.552 413.815 380.649 413.95 380.702C414.09 380.752 414.24 380.777 414.403 380.777C414.522 380.777 414.627 380.769 414.716 380.752C414.806 380.736 414.875 380.722 414.925 380.712L415.193 381.94C415.107 381.973 414.985 382.007 414.825 382.04C414.666 382.076 414.468 382.096 414.229 382.099C413.838 382.106 413.473 382.036 413.135 381.891C412.797 381.745 412.524 381.519 412.315 381.214C412.106 380.91 412.002 380.527 412.002 380.066V372.534ZM419.833 382.154C419.117 382.154 418.492 381.99 417.959 381.662C417.425 381.334 417.011 380.875 416.716 380.285C416.421 379.695 416.273 379.005 416.273 378.217C416.273 377.424 416.421 376.732 416.716 376.138C417.011 375.545 417.425 375.085 417.959 374.756C418.492 374.428 419.117 374.264 419.833 374.264C420.549 374.264 421.174 374.428 421.707 374.756C422.241 375.085 422.655 375.545 422.95 376.138C423.245 376.732 423.393 377.424 423.393 378.217C423.393 379.005 423.245 379.695 422.95 380.285C422.655 380.875 422.241 381.334 421.707 381.662C421.174 381.99 420.549 382.154 419.833 382.154ZM419.838 380.906C420.302 380.906 420.687 380.784 420.991 380.538C421.296 380.293 421.522 379.967 421.668 379.559C421.817 379.151 421.891 378.702 421.891 378.212C421.891 377.724 421.817 377.277 421.668 376.869C421.522 376.458 421.296 376.129 420.991 375.88C420.687 375.631 420.302 375.507 419.838 375.507C419.371 375.507 418.983 375.631 418.675 375.88C418.37 376.129 418.143 376.458 417.994 376.869C417.848 377.277 417.775 377.724 417.775 378.212C417.775 378.702 417.848 379.151 417.994 379.559C418.143 379.967 418.37 380.293 418.675 380.538C418.983 380.784 419.371 380.906 419.838 380.906ZM428.269 382.154C427.53 382.154 426.893 381.987 426.36 381.652C425.829 381.314 425.422 380.848 425.137 380.255C424.852 379.662 424.709 378.982 424.709 378.217C424.709 377.441 424.855 376.757 425.146 376.163C425.438 375.567 425.849 375.101 426.379 374.766C426.91 374.432 427.535 374.264 428.254 374.264C428.834 374.264 429.351 374.372 429.805 374.587C430.259 374.799 430.625 375.098 430.904 375.482C431.185 375.867 431.353 376.316 431.406 376.83H429.959C429.879 376.472 429.697 376.163 429.412 375.905C429.13 375.646 428.753 375.517 428.279 375.517C427.864 375.517 427.501 375.626 427.19 375.845C426.882 376.061 426.641 376.369 426.469 376.77C426.297 377.168 426.21 377.638 426.21 378.182C426.21 378.739 426.295 379.219 426.464 379.624C426.633 380.028 426.872 380.341 427.18 380.563C427.491 380.785 427.858 380.896 428.279 380.896C428.56 380.896 428.816 380.845 429.044 380.742C429.276 380.636 429.47 380.485 429.626 380.29C429.785 380.094 429.896 379.859 429.959 379.584H431.406C431.353 380.078 431.192 380.518 430.923 380.906C430.655 381.294 430.295 381.599 429.845 381.821C429.397 382.043 428.872 382.154 428.269 382.154ZM435.218 382.169C434.734 382.169 434.296 382.08 433.905 381.901C433.514 381.718 433.204 381.455 432.975 381.11C432.75 380.765 432.637 380.343 432.637 379.842C432.637 379.411 432.72 379.057 432.886 378.778C433.052 378.5 433.275 378.28 433.557 378.117C433.839 377.955 434.154 377.832 434.502 377.749C434.85 377.666 435.204 377.603 435.566 377.56C436.023 377.507 436.394 377.464 436.679 377.431C436.964 377.395 437.172 377.337 437.301 377.257C437.43 377.178 437.495 377.048 437.495 376.869V376.835C437.495 376.4 437.372 376.064 437.127 375.825C436.885 375.587 436.524 375.467 436.043 375.467C435.542 375.467 435.148 375.578 434.86 375.8C434.575 376.019 434.377 376.263 434.268 376.531L432.871 376.213C433.037 375.749 433.279 375.375 433.597 375.089C433.918 374.801 434.288 374.592 434.706 374.463C435.123 374.33 435.562 374.264 436.023 374.264C436.328 374.264 436.651 374.301 436.993 374.374C437.337 374.443 437.659 374.572 437.957 374.761C438.259 374.95 438.506 375.22 438.698 375.572C438.89 375.92 438.986 376.372 438.986 376.929V382H437.534V380.956H437.475C437.379 381.148 437.234 381.337 437.042 381.523C436.85 381.708 436.603 381.862 436.301 381.985C436 382.108 435.639 382.169 435.218 382.169ZM435.541 380.976C435.952 380.976 436.303 380.895 436.595 380.732C436.89 380.57 437.114 380.358 437.266 380.096C437.422 379.831 437.5 379.547 437.5 379.246V378.261C437.447 378.314 437.344 378.364 437.191 378.411C437.042 378.454 436.872 378.492 436.679 378.525C436.487 378.555 436.3 378.583 436.118 378.609C435.935 378.633 435.783 378.652 435.66 378.669C435.372 378.705 435.108 378.767 434.87 378.853C434.634 378.939 434.445 379.063 434.303 379.226C434.164 379.385 434.094 379.597 434.094 379.862C434.094 380.23 434.23 380.509 434.502 380.697C434.774 380.883 435.12 380.976 435.541 380.976ZM442.453 371.818V382H440.966V371.818H442.453ZM449.813 371.818V382H448.277V371.818H449.813ZM453.417 377.466V382H451.931V374.364H453.358V375.607H453.452C453.628 375.202 453.903 374.877 454.278 374.632C454.655 374.387 455.131 374.264 455.704 374.264C456.225 374.264 456.68 374.374 457.072 374.592C457.463 374.808 457.766 375.129 457.981 375.557C458.197 375.984 458.305 376.513 458.305 377.143V382H456.818V377.322C456.818 376.768 456.674 376.336 456.385 376.024C456.097 375.709 455.701 375.552 455.197 375.552C454.853 375.552 454.546 375.626 454.278 375.776C454.012 375.925 453.802 376.143 453.646 376.432C453.494 376.717 453.417 377.062 453.417 377.466ZM463.515 382.154C462.776 382.154 462.139 381.987 461.606 381.652C461.075 381.314 460.668 380.848 460.383 380.255C460.098 379.662 459.955 378.982 459.955 378.217C459.955 377.441 460.101 376.757 460.393 376.163C460.684 375.567 461.095 375.101 461.626 374.766C462.156 374.432 462.781 374.264 463.5 374.264C464.08 374.264 464.597 374.372 465.051 374.587C465.505 374.799 465.871 375.098 466.15 375.482C466.431 375.867 466.599 376.316 466.652 376.83H465.205C465.126 376.472 464.943 376.163 464.658 375.905C464.376 375.646 463.999 375.517 463.525 375.517C463.11 375.517 462.747 375.626 462.436 375.845C462.128 376.061 461.887 376.369 461.715 376.77C461.543 377.168 461.456 377.638 461.456 378.182C461.456 378.739 461.541 379.219 461.71 379.624C461.879 380.028 462.118 380.341 462.426 380.563C462.738 380.785 463.104 380.896 463.525 380.896C463.806 380.896 464.062 380.845 464.29 380.742C464.522 380.636 464.716 380.485 464.872 380.29C465.031 380.094 465.142 379.859 465.205 379.584H466.652C466.599 380.078 466.438 380.518 466.17 380.906C465.901 381.294 465.541 381.599 465.091 381.821C464.643 382.043 464.118 382.154 463.515 382.154ZM471.533 382.154C470.78 382.154 470.132 381.993 469.589 381.672C469.049 381.347 468.631 380.891 468.336 380.305C468.044 379.715 467.898 379.024 467.898 378.232C467.898 377.449 468.044 376.76 468.336 376.163C468.631 375.567 469.042 375.101 469.569 374.766C470.099 374.432 470.719 374.264 471.428 374.264C471.859 374.264 472.277 374.335 472.681 374.478C473.085 374.621 473.448 374.844 473.77 375.149C474.091 375.454 474.345 375.85 474.531 376.337C474.716 376.821 474.809 377.41 474.809 378.102V378.629H468.739V377.516H473.352C473.352 377.125 473.273 376.778 473.114 376.477C472.955 376.172 472.731 375.931 472.442 375.756C472.157 375.58 471.823 375.492 471.438 375.492C471.021 375.492 470.656 375.595 470.344 375.8C470.036 376.003 469.798 376.268 469.629 376.596C469.463 376.921 469.38 377.274 469.38 377.655V378.525C469.38 379.035 469.469 379.469 469.648 379.827C469.831 380.185 470.084 380.459 470.409 380.648C470.734 380.833 471.113 380.926 471.548 380.926C471.829 380.926 472.086 380.886 472.318 380.807C472.55 380.724 472.751 380.601 472.92 380.439C473.089 380.277 473.218 380.076 473.308 379.837L474.714 380.091C474.602 380.505 474.4 380.868 474.108 381.18C473.82 381.488 473.457 381.728 473.019 381.901C472.585 382.07 472.089 382.154 471.533 382.154ZM477.945 377.466V382H476.458V374.364H477.885V375.607H477.98C478.155 375.202 478.43 374.877 478.805 374.632C479.183 374.387 479.658 374.264 480.232 374.264C480.752 374.264 481.208 374.374 481.599 374.592C481.99 374.808 482.293 375.129 482.509 375.557C482.724 375.984 482.832 376.513 482.832 377.143V382H481.345V377.322C481.345 376.768 481.201 376.336 480.913 376.024C480.624 375.709 480.228 375.552 479.725 375.552C479.38 375.552 479.073 375.626 478.805 375.776C478.54 375.925 478.329 376.143 478.173 376.432C478.021 376.717 477.945 377.062 477.945 377.466ZM488.39 374.364V375.557H484.219V374.364H488.39ZM485.338 372.534H486.824V379.758C486.824 380.046 486.867 380.263 486.953 380.409C487.039 380.552 487.151 380.649 487.286 380.702C487.426 380.752 487.576 380.777 487.739 380.777C487.858 380.777 487.963 380.769 488.052 380.752C488.142 380.736 488.211 380.722 488.261 380.712L488.529 381.94C488.443 381.973 488.32 382.007 488.161 382.04C488.002 382.076 487.803 382.096 487.565 382.099C487.174 382.106 486.809 382.036 486.471 381.891C486.133 381.745 485.86 381.519 485.651 381.214C485.442 380.91 485.338 380.527 485.338 380.066V372.534ZM490.034 382V374.364H491.521V382H490.034ZM490.785 373.185C490.527 373.185 490.305 373.099 490.119 372.927C489.937 372.751 489.846 372.542 489.846 372.3C489.846 372.055 489.937 371.846 490.119 371.674C490.305 371.498 490.527 371.411 490.785 371.411C491.044 371.411 491.264 371.498 491.446 371.674C491.632 371.846 491.725 372.055 491.725 372.3C491.725 372.542 491.632 372.751 491.446 372.927C491.264 373.099 491.044 373.185 490.785 373.185ZM500.053 374.364L497.284 382H495.693L492.919 374.364H494.515L496.449 380.24H496.529L498.458 374.364H500.053ZM504.482 382.154C503.73 382.154 503.082 381.993 502.538 381.672C501.998 381.347 501.58 380.891 501.285 380.305C500.993 379.715 500.848 379.024 500.848 378.232C500.848 377.449 500.993 376.76 501.285 376.163C501.58 375.567 501.991 375.101 502.518 374.766C503.048 374.432 503.668 374.264 504.377 374.264C504.808 374.264 505.226 374.335 505.63 374.478C506.035 374.621 506.398 374.844 506.719 375.149C507.041 375.454 507.294 375.85 507.48 376.337C507.665 376.821 507.758 377.41 507.758 378.102V378.629H501.688V377.516H506.301C506.301 377.125 506.222 376.778 506.063 376.477C505.904 376.172 505.68 375.931 505.392 375.756C505.107 375.58 504.772 375.492 504.387 375.492C503.97 375.492 503.605 375.595 503.294 375.8C502.985 376.003 502.747 376.268 502.578 376.596C502.412 376.921 502.329 377.274 502.329 377.655V378.525C502.329 379.035 502.419 379.469 502.598 379.827C502.78 380.185 503.033 380.459 503.358 380.648C503.683 380.833 504.063 380.926 504.497 380.926C504.779 380.926 505.035 380.886 505.267 380.807C505.499 380.724 505.7 380.601 505.869 380.439C506.038 380.277 506.167 380.076 506.257 379.837L507.664 380.091C507.551 380.505 507.349 380.868 507.057 381.18C506.769 381.488 506.406 381.728 505.968 381.901C505.534 382.07 505.039 382.154 504.482 382.154Z" fill="#E08900"/>
<path d="M70.1186 513V502.818H71.6548V511.678H76.2685V513H70.1186ZM77.8817 513V511.886L81.3271 508.317C81.695 507.929 81.9982 507.589 82.2369 507.298C82.4788 507.003 82.6594 506.723 82.7788 506.457C82.8981 506.192 82.9577 505.911 82.9577 505.612C82.9577 505.274 82.8782 504.982 82.7191 504.737C82.56 504.489 82.3429 504.298 82.0678 504.165C81.7927 504.03 81.4828 503.962 81.1381 503.962C80.7736 503.962 80.4554 504.036 80.1836 504.185C79.9118 504.335 79.703 504.545 79.5572 504.817C79.4113 505.089 79.3384 505.407 79.3384 505.771H77.8718C77.8718 505.152 78.0143 504.61 78.2994 504.146C78.5844 503.682 78.9755 503.322 79.4727 503.067C79.9698 502.808 80.5349 502.679 81.168 502.679C81.8076 502.679 82.3711 502.807 82.8583 503.062C83.3488 503.314 83.7317 503.658 84.0067 504.096C84.2818 504.53 84.4194 505.021 84.4194 505.567C84.4194 505.945 84.3481 506.315 84.2056 506.676C84.0664 507.037 83.8228 507.44 83.4748 507.884C83.1268 508.325 82.6429 508.86 82.0231 509.49L79.9996 511.608V511.683H84.5835V513H77.8817ZM98.53 502.818V513H97.1181L91.9426 505.533H91.8482V513H90.312V502.818H91.7338L96.9142 510.295H97.0087V502.818H98.53ZM102.874 513.169C102.39 513.169 101.953 513.08 101.561 512.901C101.17 512.718 100.86 512.455 100.632 512.11C100.406 511.765 100.294 511.343 100.294 510.842C100.294 510.411 100.377 510.057 100.542 509.778C100.708 509.5 100.932 509.28 101.213 509.117C101.495 508.955 101.81 508.832 102.158 508.749C102.506 508.666 102.861 508.603 103.222 508.56C103.679 508.507 104.051 508.464 104.336 508.431C104.621 508.395 104.828 508.337 104.957 508.257C105.086 508.178 105.151 508.048 105.151 507.869V507.835C105.151 507.4 105.028 507.064 104.783 506.825C104.541 506.587 104.18 506.467 103.699 506.467C103.199 506.467 102.804 506.578 102.516 506.8C102.231 507.019 102.034 507.263 101.924 507.531L100.527 507.213C100.693 506.749 100.935 506.375 101.253 506.089C101.575 505.801 101.944 505.592 102.362 505.463C102.779 505.33 103.219 505.264 103.679 505.264C103.984 505.264 104.307 505.301 104.649 505.374C104.993 505.443 105.315 505.572 105.613 505.761C105.915 505.95 106.162 506.22 106.354 506.572C106.546 506.92 106.642 507.372 106.642 507.929V513H105.191V511.956H105.131C105.035 512.148 104.891 512.337 104.699 512.523C104.506 512.708 104.259 512.862 103.958 512.985C103.656 513.108 103.295 513.169 102.874 513.169ZM103.197 511.976C103.608 511.976 103.959 511.895 104.251 511.732C104.546 511.57 104.77 511.358 104.922 511.096C105.078 510.831 105.156 510.547 105.156 510.246V509.261C105.103 509.314 105 509.364 104.848 509.411C104.699 509.454 104.528 509.492 104.336 509.525C104.143 509.555 103.956 509.583 103.774 509.609C103.592 509.633 103.439 509.652 103.316 509.669C103.028 509.705 102.765 509.767 102.526 509.853C102.291 509.939 102.102 510.063 101.959 510.226C101.82 510.385 101.75 510.597 101.75 510.862C101.75 511.23 101.886 511.509 102.158 511.697C102.43 511.883 102.776 511.976 103.197 511.976ZM112.187 505.364V506.557H108.016V505.364H112.187ZM109.134 503.534H110.621V510.758C110.621 511.046 110.664 511.263 110.75 511.409C110.836 511.552 110.947 511.649 111.083 511.702C111.222 511.752 111.373 511.777 111.536 511.777C111.655 511.777 111.759 511.769 111.849 511.752C111.938 511.736 112.008 511.722 112.058 511.712L112.326 512.94C112.24 512.973 112.117 513.007 111.958 513.04C111.799 513.076 111.6 513.096 111.362 513.099C110.971 513.106 110.606 513.036 110.268 512.891C109.93 512.745 109.656 512.519 109.448 512.214C109.239 511.91 109.134 511.527 109.134 511.066V503.534ZM113.831 513V505.364H115.318V513H113.831ZM114.582 504.185C114.324 504.185 114.101 504.099 113.916 503.927C113.734 503.751 113.642 503.542 113.642 503.3C113.642 503.055 113.734 502.846 113.916 502.674C114.101 502.498 114.324 502.411 114.582 502.411C114.841 502.411 115.061 502.498 115.243 502.674C115.429 502.846 115.522 503.055 115.522 503.3C115.522 503.542 115.429 503.751 115.243 503.927C115.061 504.099 114.841 504.185 114.582 504.185ZM123.85 505.364L121.081 513H119.49L116.716 505.364H118.312L120.246 511.24H120.325L122.254 505.364H123.85ZM128.279 513.154C127.526 513.154 126.878 512.993 126.335 512.672C125.795 512.347 125.377 511.891 125.082 511.305C124.79 510.715 124.645 510.024 124.645 509.232C124.645 508.449 124.79 507.76 125.082 507.163C125.377 506.567 125.788 506.101 126.315 505.766C126.845 505.432 127.465 505.264 128.174 505.264C128.605 505.264 129.023 505.335 129.427 505.478C129.832 505.621 130.194 505.844 130.516 506.149C130.837 506.454 131.091 506.85 131.277 507.337C131.462 507.821 131.555 508.41 131.555 509.102V509.629H125.485V508.516H130.098C130.098 508.125 130.019 507.778 129.86 507.477C129.701 507.172 129.477 506.931 129.189 506.756C128.904 506.58 128.569 506.492 128.184 506.492C127.767 506.492 127.402 506.595 127.091 506.8C126.782 507.003 126.544 507.268 126.375 507.596C126.209 507.921 126.126 508.274 126.126 508.655V509.525C126.126 510.035 126.216 510.469 126.395 510.827C126.577 511.185 126.83 511.459 127.155 511.648C127.48 511.833 127.859 511.926 128.294 511.926C128.575 511.926 128.832 511.886 129.064 511.807C129.296 511.724 129.497 511.601 129.666 511.439C129.835 511.277 129.964 511.076 130.054 510.837L131.461 511.091C131.348 511.505 131.146 511.868 130.854 512.18C130.566 512.488 130.203 512.728 129.765 512.901C129.331 513.07 128.836 513.154 128.279 513.154ZM136.527 504.141V502.818H144.407V504.141H141.23V513H139.699V504.141H136.527ZM148.138 513.154C147.422 513.154 146.797 512.99 146.263 512.662C145.73 512.334 145.316 511.875 145.021 511.285C144.726 510.695 144.578 510.005 144.578 509.217C144.578 508.424 144.726 507.732 145.021 507.138C145.316 506.545 145.73 506.085 146.263 505.756C146.797 505.428 147.422 505.264 148.138 505.264C148.854 505.264 149.478 505.428 150.012 505.756C150.546 506.085 150.96 506.545 151.255 507.138C151.55 507.732 151.697 508.424 151.697 509.217C151.697 510.005 151.55 510.695 151.255 511.285C150.96 511.875 150.546 512.334 150.012 512.662C149.478 512.99 148.854 513.154 148.138 513.154ZM148.143 511.906C148.607 511.906 148.991 511.784 149.296 511.538C149.601 511.293 149.826 510.967 149.972 510.559C150.121 510.151 150.196 509.702 150.196 509.212C150.196 508.724 150.121 508.277 149.972 507.869C149.826 507.458 149.601 507.129 149.296 506.88C148.991 506.631 148.607 506.507 148.143 506.507C147.675 506.507 147.288 506.631 146.979 506.88C146.674 507.129 146.447 507.458 146.298 507.869C146.152 508.277 146.08 508.724 146.08 509.212C146.08 509.702 146.152 510.151 146.298 510.559C146.447 510.967 146.674 511.293 146.979 511.538C147.288 511.784 147.675 511.906 148.143 511.906ZM154.724 510.41L154.714 508.595H154.972L158.015 505.364H159.795L156.325 509.043H156.091L154.724 510.41ZM153.357 513V502.818H154.843V513H153.357ZM158.179 513L155.445 509.371L156.469 508.332L160.004 513H158.179ZM164.126 513.154C163.374 513.154 162.726 512.993 162.183 512.672C161.642 512.347 161.225 511.891 160.93 511.305C160.638 510.715 160.492 510.024 160.492 509.232C160.492 508.449 160.638 507.76 160.93 507.163C161.225 506.567 161.636 506.101 162.163 505.766C162.693 505.432 163.313 505.264 164.022 505.264C164.453 505.264 164.871 505.335 165.275 505.478C165.679 505.621 166.042 505.844 166.364 506.149C166.685 506.454 166.939 506.85 167.124 507.337C167.31 507.821 167.403 508.41 167.403 509.102V509.629H161.332V508.516H165.946C165.946 508.125 165.866 507.778 165.707 507.477C165.548 507.172 165.325 506.931 165.036 506.756C164.751 506.58 164.416 506.492 164.032 506.492C163.614 506.492 163.25 506.595 162.938 506.8C162.63 507.003 162.391 507.268 162.222 507.596C162.057 507.921 161.974 508.274 161.974 508.655V509.525C161.974 510.035 162.063 510.469 162.242 510.827C162.424 511.185 162.678 511.459 163.003 511.648C163.328 511.833 163.707 511.926 164.141 511.926C164.423 511.926 164.68 511.886 164.912 511.807C165.144 511.724 165.344 511.601 165.513 511.439C165.683 511.277 165.812 511.076 165.901 510.837L167.308 511.091C167.196 511.505 166.993 511.868 166.702 512.18C166.413 512.488 166.05 512.728 165.613 512.901C165.179 513.07 164.683 513.154 164.126 513.154ZM170.539 508.466V513H169.052V505.364H170.479V506.607H170.573C170.749 506.202 171.024 505.877 171.399 505.632C171.776 505.387 172.252 505.264 172.825 505.264C173.346 505.264 173.802 505.374 174.193 505.592C174.584 505.808 174.887 506.129 175.102 506.557C175.318 506.984 175.426 507.513 175.426 508.143V513H173.939V508.322C173.939 507.768 173.795 507.336 173.507 507.024C173.218 506.709 172.822 506.552 172.318 506.552C171.974 506.552 171.667 506.626 171.399 506.776C171.133 506.925 170.923 507.143 170.767 507.432C170.615 507.717 170.539 508.062 170.539 508.466Z" fill="#E08900"/>
<path d="M381.119 513V502.818H384.748C385.537 502.818 386.191 502.954 386.712 503.226C387.235 503.498 387.626 503.874 387.885 504.354C388.143 504.832 388.273 505.384 388.273 506.01C388.273 506.633 388.142 507.182 387.88 507.656C387.621 508.126 387.23 508.492 386.707 508.754C386.186 509.016 385.532 509.147 384.743 509.147H381.994V507.825H384.604C385.101 507.825 385.505 507.753 385.817 507.611C386.132 507.468 386.362 507.261 386.508 506.989C386.654 506.718 386.727 506.391 386.727 506.01C386.727 505.625 386.652 505.292 386.503 505.011C386.357 504.729 386.127 504.513 385.812 504.364C385.5 504.212 385.091 504.136 384.584 504.136H382.655V513H381.119ZM386.145 508.406L388.661 513H386.911L384.445 508.406H386.145ZM393.218 513.154C392.466 513.154 391.818 512.993 391.274 512.672C390.734 512.347 390.316 511.891 390.021 511.305C389.73 510.715 389.584 510.024 389.584 509.232C389.584 508.449 389.73 507.76 390.021 507.163C390.316 506.567 390.727 506.101 391.254 505.766C391.785 505.432 392.405 505.264 393.114 505.264C393.545 505.264 393.962 505.335 394.367 505.478C394.771 505.621 395.134 505.844 395.455 506.149C395.777 506.454 396.03 506.85 396.216 507.337C396.402 507.821 396.494 508.41 396.494 509.102V509.629H390.424V508.516H395.038C395.038 508.125 394.958 507.778 394.799 507.477C394.64 507.172 394.416 506.931 394.128 506.756C393.843 506.58 393.508 506.492 393.124 506.492C392.706 506.492 392.342 506.595 392.03 506.8C391.722 507.003 391.483 507.268 391.314 507.596C391.148 507.921 391.066 508.274 391.066 508.655V509.525C391.066 510.035 391.155 510.469 391.334 510.827C391.516 511.185 391.77 511.459 392.095 511.648C392.419 511.833 392.799 511.926 393.233 511.926C393.515 511.926 393.772 511.886 394.004 511.807C394.236 511.724 394.436 511.601 394.605 511.439C394.774 511.277 394.904 511.076 394.993 510.837L396.4 511.091C396.287 511.505 396.085 511.868 395.794 512.18C395.505 512.488 395.142 512.728 394.705 512.901C394.271 513.07 393.775 513.154 393.218 513.154ZM403.866 507.228L402.519 507.467C402.462 507.294 402.373 507.13 402.25 506.974C402.131 506.819 401.969 506.691 401.763 506.592C401.558 506.492 401.301 506.442 400.993 506.442C400.572 506.442 400.22 506.537 399.939 506.726C399.657 506.911 399.516 507.152 399.516 507.447C399.516 507.702 399.61 507.907 399.799 508.063C399.988 508.219 400.293 508.347 400.714 508.446L401.927 508.724C402.63 508.887 403.154 509.137 403.498 509.475C403.843 509.813 404.015 510.252 404.015 510.793C404.015 511.25 403.883 511.658 403.618 512.016C403.356 512.37 402.989 512.649 402.519 512.851C402.051 513.053 401.51 513.154 400.893 513.154C400.038 513.154 399.34 512.972 398.8 512.607C398.26 512.239 397.928 511.717 397.806 511.041L399.243 510.822C399.332 511.197 399.516 511.48 399.794 511.673C400.073 511.862 400.436 511.956 400.883 511.956C401.37 511.956 401.76 511.855 402.051 511.653C402.343 511.447 402.489 511.197 402.489 510.902C402.489 510.663 402.4 510.463 402.221 510.3C402.045 510.138 401.775 510.015 401.41 509.933L400.118 509.649C399.405 509.487 398.878 509.228 398.537 508.874C398.199 508.519 398.029 508.07 398.029 507.526C398.029 507.076 398.155 506.681 398.407 506.343C398.659 506.005 399.007 505.741 399.451 505.553C399.895 505.36 400.404 505.264 400.978 505.264C401.803 505.264 402.453 505.443 402.926 505.801C403.4 506.156 403.714 506.631 403.866 507.228ZM409.214 505.364V506.557H405.043V505.364H409.214ZM406.162 503.534H407.648V510.758C407.648 511.046 407.691 511.263 407.778 511.409C407.864 511.552 407.975 511.649 408.111 511.702C408.25 511.752 408.401 511.777 408.563 511.777C408.682 511.777 408.787 511.769 408.876 511.752C408.966 511.736 409.035 511.722 409.085 511.712L409.354 512.94C409.267 512.973 409.145 513.007 408.986 513.04C408.827 513.076 408.628 513.096 408.389 513.099C407.998 513.106 407.633 513.036 407.295 512.891C406.957 512.745 406.684 512.519 406.475 512.214C406.266 511.91 406.162 511.527 406.162 511.066V503.534ZM413.081 513.169C412.597 513.169 412.16 513.08 411.768 512.901C411.377 512.718 411.067 512.455 410.839 512.11C410.613 511.765 410.501 511.343 410.501 510.842C410.501 510.411 410.584 510.057 410.749 509.778C410.915 509.5 411.139 509.28 411.42 509.117C411.702 508.955 412.017 508.832 412.365 508.749C412.713 508.666 413.068 508.603 413.429 508.56C413.886 508.507 414.258 508.464 414.543 508.431C414.828 508.395 415.035 508.337 415.164 508.257C415.293 508.178 415.358 508.048 415.358 507.869V507.835C415.358 507.4 415.235 507.064 414.99 506.825C414.748 506.587 414.387 506.467 413.906 506.467C413.406 506.467 413.011 506.578 412.723 506.8C412.438 507.019 412.241 507.263 412.131 507.531L410.734 507.213C410.9 506.749 411.142 506.375 411.46 506.089C411.782 505.801 412.151 505.592 412.569 505.463C412.987 505.33 413.426 505.264 413.886 505.264C414.191 505.264 414.514 505.301 414.856 505.374C415.201 505.443 415.522 505.572 415.82 505.761C416.122 505.95 416.369 506.22 416.561 506.572C416.753 506.92 416.849 507.372 416.849 507.929V513H415.398V511.956H415.338C415.242 512.148 415.098 512.337 414.906 512.523C414.713 512.708 414.466 512.862 414.165 512.985C413.863 513.108 413.502 513.169 413.081 513.169ZM413.404 511.976C413.815 511.976 414.166 511.895 414.458 511.732C414.753 511.57 414.977 511.358 415.129 511.096C415.285 510.831 415.363 510.547 415.363 510.246V509.261C415.31 509.314 415.207 509.364 415.055 509.411C414.906 509.454 414.735 509.492 414.543 509.525C414.35 509.555 414.163 509.583 413.981 509.609C413.799 509.633 413.646 509.652 413.523 509.669C413.235 509.705 412.972 509.767 412.733 509.853C412.498 509.939 412.309 510.063 412.166 510.226C412.027 510.385 411.957 510.597 411.957 510.862C411.957 511.23 412.093 511.509 412.365 511.697C412.637 511.883 412.983 511.976 413.404 511.976ZM420.197 510.41L420.187 508.595H420.445L423.488 505.364H425.268L421.797 509.043H421.564L420.197 510.41ZM418.829 513V502.818H420.316V513H418.829ZM423.652 513L420.917 509.371L421.942 508.332L425.476 513H423.652ZM429.599 513.154C428.847 513.154 428.199 512.993 427.655 512.672C427.115 512.347 426.697 511.891 426.402 511.305C426.111 510.715 425.965 510.024 425.965 509.232C425.965 508.449 426.111 507.76 426.402 507.163C426.697 506.567 427.108 506.101 427.635 505.766C428.166 505.432 428.785 505.264 429.495 505.264C429.926 505.264 430.343 505.335 430.748 505.478C431.152 505.621 431.515 505.844 431.836 506.149C432.158 506.454 432.411 506.85 432.597 507.337C432.783 507.821 432.875 508.41 432.875 509.102V509.629H426.805V508.516H431.419C431.419 508.125 431.339 507.778 431.18 507.477C431.021 507.172 430.797 506.931 430.509 506.756C430.224 506.58 429.889 506.492 429.505 506.492C429.087 506.492 428.722 506.595 428.411 506.8C428.103 507.003 427.864 507.268 427.695 507.596C427.529 507.921 427.446 508.274 427.446 508.655V509.525C427.446 510.035 427.536 510.469 427.715 510.827C427.897 511.185 428.151 511.459 428.475 511.648C428.8 511.833 429.18 511.926 429.614 511.926C429.896 511.926 430.153 511.886 430.385 511.807C430.617 511.724 430.817 511.601 430.986 511.439C431.155 511.277 431.284 511.076 431.374 510.837L432.781 511.091C432.668 511.505 432.466 511.868 432.174 512.18C431.886 512.488 431.523 512.728 431.086 512.901C430.651 513.07 430.156 513.154 429.599 513.154ZM438.349 513V502.818H444.733V504.141H439.885V507.243H444.4V508.56H439.885V511.678H444.792V513H438.349ZM446.282 504.141V502.818H454.162V504.141H450.986V513H449.454V504.141H446.282ZM455.904 513V502.818H457.44V507.243H462.516V502.818H464.057V513H462.516V508.56H457.44V513H455.904Z" fill="#E08900"/>
<path d="M126.119 262V251.818H129.847C130.57 251.818 131.168 251.937 131.642 252.176C132.116 252.411 132.471 252.731 132.706 253.136C132.941 253.537 133.059 253.989 133.059 254.493C133.059 254.917 132.981 255.275 132.825 255.567C132.67 255.855 132.461 256.087 132.199 256.263C131.94 256.435 131.655 256.561 131.344 256.641V256.74C131.682 256.757 132.012 256.866 132.333 257.068C132.658 257.267 132.926 257.55 133.138 257.918C133.351 258.286 133.457 258.734 133.457 259.261C133.457 259.781 133.334 260.248 133.089 260.663C132.847 261.074 132.472 261.4 131.965 261.642C131.458 261.881 130.81 262 130.021 262H126.119ZM127.655 260.683H129.872C130.608 260.683 131.135 260.54 131.453 260.255C131.771 259.97 131.93 259.614 131.93 259.186C131.93 258.865 131.849 258.57 131.687 258.301C131.524 258.033 131.292 257.819 130.991 257.66C130.692 257.501 130.338 257.421 129.927 257.421H127.655V260.683ZM127.655 256.223H129.713C130.058 256.223 130.368 256.157 130.643 256.024C130.921 255.892 131.142 255.706 131.304 255.467C131.47 255.225 131.553 254.94 131.553 254.612C131.553 254.191 131.405 253.838 131.11 253.553C130.815 253.268 130.363 253.126 129.753 253.126H127.655V256.223ZM136.646 251.818V262H135.159V251.818H136.646ZM141.862 262.154C141.146 262.154 140.522 261.99 139.988 261.662C139.454 261.334 139.04 260.875 138.745 260.285C138.45 259.695 138.303 259.005 138.303 258.217C138.303 257.424 138.45 256.732 138.745 256.138C139.04 255.545 139.454 255.085 139.988 254.756C140.522 254.428 141.146 254.264 141.862 254.264C142.578 254.264 143.203 254.428 143.737 254.756C144.27 255.085 144.685 255.545 144.98 256.138C145.275 256.732 145.422 257.424 145.422 258.217C145.422 259.005 145.275 259.695 144.98 260.285C144.685 260.875 144.27 261.334 143.737 261.662C143.203 261.99 142.578 262.154 141.862 262.154ZM141.867 260.906C142.331 260.906 142.716 260.784 143.021 260.538C143.326 260.293 143.551 259.967 143.697 259.559C143.846 259.151 143.921 258.702 143.921 258.212C143.921 257.724 143.846 257.277 143.697 256.869C143.551 256.458 143.326 256.129 143.021 255.88C142.716 255.631 142.331 255.507 141.867 255.507C141.4 255.507 141.012 255.631 140.704 255.88C140.399 256.129 140.172 256.458 140.023 256.869C139.877 257.277 139.804 257.724 139.804 258.212C139.804 258.702 139.877 259.151 140.023 259.559C140.172 259.967 140.399 260.293 140.704 260.538C141.012 260.784 141.4 260.906 141.867 260.906ZM147.201 262V251.818H148.687V255.602H148.777C148.863 255.442 148.987 255.259 149.15 255.05C149.312 254.841 149.537 254.659 149.826 254.503C150.114 254.344 150.495 254.264 150.969 254.264C151.586 254.264 152.136 254.42 152.62 254.732C153.104 255.043 153.483 255.492 153.758 256.079C154.037 256.665 154.176 257.371 154.176 258.197C154.176 259.022 154.038 259.73 153.763 260.32C153.488 260.906 153.11 261.359 152.63 261.677C152.149 261.992 151.6 262.149 150.984 262.149C150.52 262.149 150.141 262.071 149.846 261.915C149.554 261.76 149.325 261.577 149.159 261.369C148.994 261.16 148.866 260.974 148.777 260.812H148.652V262H147.201ZM148.657 258.182C148.657 258.719 148.735 259.189 148.891 259.594C149.047 259.998 149.272 260.315 149.567 260.543C149.862 260.769 150.223 260.881 150.651 260.881C151.095 260.881 151.466 260.764 151.765 260.528C152.063 260.29 152.288 259.967 152.441 259.559C152.596 259.151 152.674 258.692 152.674 258.182C152.674 257.678 152.598 257.226 152.446 256.825C152.297 256.424 152.071 256.107 151.77 255.875C151.471 255.643 151.098 255.527 150.651 255.527C150.22 255.527 149.855 255.638 149.557 255.86C149.262 256.082 149.038 256.392 148.886 256.79C148.734 257.187 148.657 257.652 148.657 258.182ZM161.567 256.228L160.22 256.467C160.164 256.294 160.074 256.13 159.952 255.974C159.832 255.819 159.67 255.691 159.464 255.592C159.259 255.492 159.002 255.442 158.694 255.442C158.273 255.442 157.921 255.537 157.64 255.726C157.358 255.911 157.217 256.152 157.217 256.447C157.217 256.702 157.312 256.907 157.501 257.063C157.689 257.219 157.994 257.347 158.415 257.446L159.628 257.724C160.331 257.887 160.855 258.137 161.199 258.475C161.544 258.813 161.716 259.252 161.716 259.793C161.716 260.25 161.584 260.658 161.319 261.016C161.057 261.37 160.691 261.649 160.22 261.851C159.753 262.053 159.211 262.154 158.594 262.154C157.739 262.154 157.041 261.972 156.501 261.607C155.961 261.239 155.63 260.717 155.507 260.041L156.944 259.822C157.033 260.197 157.217 260.48 157.496 260.673C157.774 260.862 158.137 260.956 158.584 260.956C159.072 260.956 159.461 260.855 159.753 260.653C160.044 260.447 160.19 260.197 160.19 259.902C160.19 259.663 160.101 259.463 159.922 259.3C159.746 259.138 159.476 259.015 159.111 258.933L157.819 258.649C157.106 258.487 156.579 258.228 156.238 257.874C155.9 257.519 155.731 257.07 155.731 256.526C155.731 256.076 155.857 255.681 156.108 255.343C156.36 255.005 156.708 254.741 157.153 254.553C157.597 254.36 158.105 254.264 158.679 254.264C159.504 254.264 160.154 254.443 160.628 254.801C161.102 255.156 161.415 255.631 161.567 256.228Z" fill="white"/>
<path d="M85.1674 179V168.818H86.7037V177.678H91.3173V179H85.1674ZM95.1728 179.169C94.6889 179.169 94.2514 179.08 93.8603 178.901C93.4692 178.718 93.1593 178.455 92.9306 178.11C92.7052 177.765 92.5925 177.343 92.5925 176.842C92.5925 176.411 92.6754 176.057 92.8411 175.778C93.0068 175.5 93.2305 175.28 93.5123 175.117C93.794 174.955 94.1088 174.832 94.4569 174.749C94.8049 174.666 95.1595 174.603 95.5208 174.56C95.9782 174.507 96.3494 174.464 96.6344 174.431C96.9194 174.395 97.1266 174.337 97.2559 174.257C97.3851 174.178 97.4498 174.048 97.4498 173.869V173.835C97.4498 173.4 97.3271 173.064 97.0819 172.825C96.8399 172.587 96.4786 172.467 95.998 172.467C95.4976 172.467 95.1032 172.578 94.8148 172.8C94.5298 173.019 94.3326 173.263 94.2232 173.531L92.8262 173.213C92.9919 172.749 93.2338 172.375 93.552 172.089C93.8735 171.801 94.2431 171.592 94.6607 171.463C95.0783 171.33 95.5175 171.264 95.9782 171.264C96.2831 171.264 96.6062 171.301 96.9476 171.374C97.2923 171.443 97.6138 171.572 97.9121 171.761C98.2137 171.95 98.4606 172.22 98.6529 172.572C98.8451 172.92 98.9412 173.372 98.9412 173.929V179H97.4895V177.956H97.4299C97.3337 178.148 97.1896 178.337 96.9973 178.523C96.8051 178.708 96.5582 178.862 96.2566 178.985C95.955 179.108 95.5937 179.169 95.1728 179.169ZM95.4959 177.976C95.9069 177.976 96.2582 177.895 96.5499 177.732C96.8449 177.57 97.0686 177.358 97.2211 177.096C97.3768 176.831 97.4547 176.547 97.4547 176.246V175.261C97.4017 175.314 97.2989 175.364 97.1465 175.411C96.9973 175.454 96.8266 175.492 96.6344 175.525C96.4422 175.555 96.2549 175.583 96.0726 175.609C95.8903 175.633 95.7379 175.652 95.6152 175.669C95.3269 175.705 95.0634 175.767 94.8248 175.853C94.5894 175.939 94.4005 176.063 94.258 176.226C94.1188 176.385 94.0492 176.597 94.0492 176.862C94.0492 177.23 94.1851 177.509 94.4569 177.697C94.7286 177.883 95.075 177.976 95.4959 177.976ZM101.587 181.864C101.365 181.864 101.163 181.845 100.981 181.809C100.799 181.776 100.663 181.739 100.573 181.7L100.931 180.482C101.203 180.554 101.445 180.586 101.657 180.576C101.869 180.566 102.056 180.487 102.219 180.337C102.384 180.188 102.53 179.945 102.656 179.607L102.84 179.099L100.046 171.364H101.637L103.571 177.29H103.651L105.585 171.364H107.18L104.033 180.019C103.888 180.417 103.702 180.753 103.477 181.028C103.251 181.307 102.983 181.516 102.671 181.655C102.36 181.794 101.998 181.864 101.587 181.864ZM111.609 179.154C110.856 179.154 110.209 178.993 109.665 178.672C109.125 178.347 108.707 177.891 108.412 177.305C108.12 176.715 107.975 176.024 107.975 175.232C107.975 174.449 108.12 173.76 108.412 173.163C108.707 172.567 109.118 172.101 109.645 171.766C110.175 171.432 110.795 171.264 111.504 171.264C111.935 171.264 112.353 171.335 112.757 171.478C113.162 171.621 113.525 171.844 113.846 172.149C114.168 172.454 114.421 172.85 114.607 173.337C114.792 173.821 114.885 174.41 114.885 175.102V175.629H108.815V174.516H113.428C113.428 174.125 113.349 173.778 113.19 173.477C113.031 173.172 112.807 172.931 112.519 172.756C112.234 172.58 111.899 172.492 111.514 172.492C111.097 172.492 110.732 172.595 110.421 172.8C110.112 173.003 109.874 173.268 109.705 173.596C109.539 173.921 109.456 174.274 109.456 174.655V175.525C109.456 176.035 109.546 176.469 109.725 176.827C109.907 177.185 110.16 177.459 110.485 177.648C110.81 177.833 111.19 177.926 111.624 177.926C111.905 177.926 112.162 177.886 112.394 177.807C112.626 177.724 112.827 177.601 112.996 177.439C113.165 177.277 113.294 177.076 113.384 176.837L114.791 177.091C114.678 177.505 114.476 177.868 114.184 178.18C113.896 178.488 113.533 178.728 113.095 178.901C112.661 179.07 112.166 179.154 111.609 179.154ZM116.534 179V171.364H117.971V172.577H118.051C118.19 172.166 118.435 171.843 118.787 171.607C119.141 171.369 119.542 171.249 119.99 171.249C120.083 171.249 120.192 171.253 120.318 171.259C120.447 171.266 120.548 171.274 120.621 171.284V172.706C120.561 172.689 120.455 172.671 120.303 172.651C120.15 172.628 119.998 172.616 119.846 172.616C119.494 172.616 119.181 172.691 118.906 172.84C118.634 172.986 118.419 173.19 118.26 173.452C118.1 173.71 118.021 174.005 118.021 174.337V179H116.534ZM121.888 179V177.886L125.333 174.317C125.701 173.929 126.004 173.589 126.243 173.298C126.485 173.003 126.665 172.723 126.785 172.457C126.904 172.192 126.964 171.911 126.964 171.612C126.964 171.274 126.884 170.982 126.725 170.737C126.566 170.489 126.349 170.298 126.074 170.165C125.799 170.03 125.489 169.962 125.144 169.962C124.779 169.962 124.461 170.036 124.189 170.185C123.918 170.335 123.709 170.545 123.563 170.817C123.417 171.089 123.344 171.407 123.344 171.771H121.878C121.878 171.152 122.02 170.61 122.305 170.146C122.59 169.682 122.981 169.322 123.479 169.067C123.976 168.808 124.541 168.679 125.174 168.679C125.814 168.679 126.377 168.807 126.864 169.062C127.355 169.314 127.738 169.658 128.013 170.096C128.288 170.53 128.425 171.021 128.425 171.567C128.425 171.945 128.354 172.315 128.211 172.676C128.072 173.037 127.829 173.44 127.481 173.884C127.133 174.325 126.649 174.86 126.029 175.49L124.006 177.608V177.683H128.589V179H121.888ZM136.216 173.228L134.868 173.467C134.812 173.294 134.723 173.13 134.6 172.974C134.481 172.819 134.318 172.691 134.113 172.592C133.907 172.492 133.65 172.442 133.342 172.442C132.921 172.442 132.57 172.537 132.288 172.726C132.006 172.911 131.866 173.152 131.866 173.447C131.866 173.702 131.96 173.907 132.149 174.063C132.338 174.219 132.643 174.347 133.064 174.446L134.277 174.724C134.979 174.887 135.503 175.137 135.848 175.475C136.193 175.813 136.365 176.252 136.365 176.793C136.365 177.25 136.232 177.658 135.967 178.016C135.705 178.37 135.339 178.649 134.868 178.851C134.401 179.053 133.859 179.154 133.243 179.154C132.388 179.154 131.69 178.972 131.15 178.607C130.609 178.239 130.278 177.717 130.155 177.041L131.592 176.822C131.682 177.197 131.866 177.48 132.144 177.673C132.422 177.862 132.785 177.956 133.233 177.956C133.72 177.956 134.109 177.855 134.401 177.653C134.693 177.447 134.839 177.197 134.839 176.902C134.839 176.663 134.749 176.463 134.57 176.3C134.394 176.138 134.124 176.015 133.76 175.933L132.467 175.649C131.755 175.487 131.228 175.228 130.886 174.874C130.548 174.519 130.379 174.07 130.379 173.526C130.379 173.076 130.505 172.681 130.757 172.343C131.009 172.005 131.357 171.741 131.801 171.553C132.245 171.36 132.754 171.264 133.327 171.264C134.153 171.264 134.802 171.443 135.276 171.801C135.75 172.156 136.063 172.631 136.216 173.228Z" fill="white"/>
<defs>
<linearGradient id="paint0_linear_4867_2607" x1="63" y1="469" x2="183" y2="469" gradientUnits="userSpaceOnUse">
<stop stop-color="#FD7923" stop-opacity="0.13"/>
<stop offset="1" stop-color="#FFC700" stop-opacity="0.21"/>
</linearGradient>
<linearGradient id="paint1_linear_4867_2607" x1="364" y1="469" x2="484" y2="469" gradientUnits="userSpaceOnUse">
<stop stop-color="#FD7923" stop-opacity="0.13"/>
<stop offset="1" stop-color="#FFC700" stop-opacity="0.21"/>
</linearGradient>
<clipPath id="clip0_4867_2607">
<rect width="27.1363" height="23.2286" fill="white" transform="translate(220 280.438)"/>
</clipPath>
</defs>
</svg>
