<svg width="14" height="14" viewBox="0 0 14 14" fill="none" xmlns="http://www.w3.org/2000/svg">
<path d="M13.1875 3.48424H10.8346V2.41978C10.8346 2.10912 10.5828 1.85728 10.2721 1.85728H9.88786V1.3006C9.88786 0.98994 9.63601 0.738098 9.32536 0.738098H4.7098C4.39914 0.738098 4.1473 0.98994 4.1473 1.3006V1.85728H3.76302C3.45237 1.85728 3.20052 2.10912 3.20052 2.41978V3.48424H0.8125C0.501842 3.48424 0.25 3.73608 0.25 4.04674V13.165C0.25 13.4756 0.501842 13.7275 0.8125 13.7275H13.1875C13.4982 13.7275 13.75 13.4756 13.75 13.165V4.04674C13.75 3.73608 13.4982 3.48424 13.1875 3.48424ZM12.625 12.6025H1.375V4.60924H3.76302C4.07368 4.60924 4.32552 4.3574 4.32552 4.04674V2.98228H4.7098C5.02046 2.98228 5.2723 2.73044 5.2723 2.41978V1.8631H8.76286V2.41978C8.76286 2.73044 9.0147 2.98228 9.32536 2.98228H9.70963V4.04674C9.70963 4.3574 9.96147 4.60924 10.2721 4.60924H12.625V12.6025Z" fill="white"/>
</svg>
