<svg width="440" height="304" viewBox="0 0 440 304" fill="none" xmlns="http://www.w3.org/2000/svg">
<path d="M1.99352 299.931C0.121818 297.122 0.00744396 292.855 0.000454879 285.48L0.500455 285.479C0.5 285 0.5 284.507 0.5 284V283H0V273H0.5V271H0V261H0.5V259H0V249H0.5V247H0V237H0.5V235H0V225H0.5V223H0V213H0.5V211H0V201H0.5V199H0V189H0.5V187H0V177H0.5V175H0V165H0.5V163H0V153H0.5V151H0V141H0.5V139H0V129H0.5V127H0V117H0.5V115H0V105H0.5V103H0V93H0.5V91H0V81H0.5V79H0V69H0.5V67H0V57H0.5V55H0V45H0.5V43H0V33H0.5V31H0V21H0.5V20C0.5 19.4932 0.5 19.0002 0.500455 18.5205L0.000454889 18.5201C0.00744406 11.1451 0.121819 6.87813 1.99352 4.06923L2.4096 4.34648C2.66399 3.96472 2.95312 3.61186 3.28249 3.28249C3.61186 2.95311 3.96472 2.66399 4.34649 2.4096L4.06923 1.99352C6.87813 0.121819 11.1451 0.00744406 18.5201 0.000454888L18.5205 0.500455C19.0002 0.5 19.4932 0.5 20 0.5H21.01V0H31.111V0.5H33.1312V0H43.2322V0.5H45.2524V0H55.3534V0.5H57.3737V0H67.4747V0.5H69.4949V0H79.5959V0.5H81.6161V0H91.7171V0.5H93.7373V0H103.838V0.5H105.859V0H115.96V0.5H117.98V0H128.081V0.5H130.101V0H140.202V0.5H142.222V0H152.323V0.5H154.343V0H164.444V0.5H166.465V0H176.566V0.5H178.586V0H188.687V0.5H190.707V0H200.808V0.5H202.828V0H212.929V0.5H214.949V0H225.05V0.5H227.071V0H237.172V0.5H239.192V0H249.293V0.5H251.313V0H261.414V0.5H263.434V0H273.535V0.5H275.556V0H285.657V0.5H287.677V0H297.778V0.5H299.798V0H309.899V0.5H311.919V0H322.02V0.5H324.04V0H334.141V0.5H336.162V0H346.263V0.5H348.283V0H358.384V0.5H360.404V0H370.505V0.5H372.525V0H382.626V0.5H384.646V0H394.747V0.5H396.768V0H406.869V0.5H408.889V0H418.99V0.5H420C420.507 0.5 421 0.5 421.479 0.500455L421.48 0.000454879C428.855 0.00744396 433.122 0.121818 435.931 1.99352L435.654 2.4096C436.035 2.66399 436.388 2.95311 436.718 3.28249C437.047 3.61186 437.336 3.96472 437.59 4.34648L438.007 4.06923C439.878 6.87813 439.993 11.1451 440 18.5201L439.5 18.5205C439.5 19.0002 439.5 19.4932 439.5 20V21H440V31H439.5V33H440V43H439.5V45H440V55H439.5V57H440V67H439.5V69H440V79H439.5V81H440V91H439.5V93H440V103H439.5V105H440V115H439.5V117H440V127H439.5V129H440V139H439.5V141H440V151H439.5V153H440V163H439.5V165H440V175H439.5V177H440V187H439.5V189H440V199H439.5V201H440V211H439.5V213H440V223H439.5V225H440V235H439.5V237H440V247H439.5V249H440V259H439.5V261H440V271H439.5V273H440V283H439.5V284L439.5 284.549C439.5 284.865 439.5 285.175 439.5 285.479L440 285.48C439.993 292.855 439.878 297.122 438.007 299.931L437.59 299.654C437.336 300.035 437.047 300.388 436.718 300.718C436.388 301.047 436.035 301.336 435.654 301.59L435.931 302.007C433.122 303.878 428.855 303.993 421.48 304L421.479 303.5C421 303.5 420.507 303.5 420 303.5H418.99V304H408.889V303.5H406.869V304H396.768V303.5H394.748V304H384.647V303.5H382.626V304H372.525V303.5H370.505V304H360.404V303.5H358.384V304H348.283V303.5H346.263V304H336.162V303.5H334.141V304H324.04V303.5H322.02V304H311.919V303.5H309.899V304H299.798V303.5H297.778V304H287.677V303.5H285.657V304H275.556V303.5H273.535V304H263.434V303.5H261.414V304H251.313V303.5H249.293V304H239.192V303.5H237.172V304H227.071V303.5H225.051V304H214.95V303.5H212.929V304H202.828V303.5H200.808V304H190.707V303.5H188.687V304H178.586V303.5H176.566V304H166.465V303.5H164.444V304H154.343V303.5H152.323V304H142.222V303.5H140.202V304H130.101V303.5H128.081V304H117.98V303.5H115.96V304H105.859V303.5H103.838V304H93.7374V303.5H91.7172V304H81.6162V303.5H79.596V304H69.495V303.5H67.4748V304H57.3737V303.5H55.3535V304H45.2525V303.5H43.2323V304H33.1313V303.5H31.1111V304H21.0101V303.5H20C19.4932 303.5 19.0003 303.5 18.5205 303.5L18.5201 304C11.1451 303.993 6.87813 303.878 4.06923 302.007L4.34649 301.59C3.96472 301.336 3.61186 301.047 3.28249 300.718C2.95311 300.388 2.66399 300.035 2.4096 299.654L1.99352 299.931Z" fill="white" stroke="black" stroke-dasharray="2 10"/>
</svg>
