<svg width="440" height="68" viewBox="0 0 440 68" fill="none" xmlns="http://www.w3.org/2000/svg">
<path d="M1.99352 63.9308C0.121819 61.1219 0.00744407 56.8549 0.000454889 49.4799L0.500455 49.4795C0.5 48.9997 0.5 48.5068 0.5 48V46.8333H0V35.1667H0.5V32.8333H0V21.1667H0.5V20C0.5 19.4932 0.5 19.0002 0.500455 18.5205L0.000454889 18.5201C0.00744406 11.1451 0.121819 6.87813 1.99352 4.06923L2.4096 4.34649C2.66399 3.96472 2.95312 3.61186 3.28249 3.28249C3.61186 2.95311 3.96472 2.66399 4.34649 2.4096L4.06923 1.99352C6.87813 0.121819 11.1451 0.00744406 18.5201 0.000454888L18.5205 0.500455C19.0002 0.5 19.4932 0.5 20 0.5H21.01V0H31.111V0.5H33.1312V0H43.2322V0.5H45.2524V0H55.3534V0.5H57.3737V0H67.4747V0.5H69.4949V0H79.5959V0.5H81.6161V0H91.7171V0.5H93.7373V0H103.838V0.5H105.859V0H115.96V0.5H117.98V0H128.081V0.5H130.101V0H140.202V0.5H142.222V0H152.323V0.5H154.343V0H164.444V0.5H166.465V0H176.566V0.5H178.586V0H188.687V0.5H190.707V0H200.808V0.5H202.828V0H212.929V0.5H214.949V0H225.05V0.5H227.071V0H237.172V0.5H239.192V0H249.293V0.5H251.313V0H261.414V0.5H263.434V0H273.535V0.5H275.556V0H285.657V0.5H287.677V0H297.778V0.5H299.798V0H309.899V0.5H311.919V0H322.02V0.5H324.04V0H334.141V0.5H336.162V0H346.263V0.5H348.283V0H358.384V0.5H360.404V0H370.505V0.5H372.525V0H382.626V0.5H384.646V0H394.747V0.5H396.768V0H406.869V0.5H408.889V0H418.99V0.5H420C420.507 0.5 421 0.5 421.479 0.500455L421.48 0.000454879C428.855 0.00744396 433.122 0.121818 435.931 1.99352L435.654 2.4096C436.035 2.66399 436.388 2.95311 436.718 3.28249C437.047 3.61186 437.336 3.96472 437.59 4.34648L438.007 4.06923C439.878 6.87813 439.993 11.1451 440 18.5201L439.5 18.5205C439.5 19.0002 439.5 19.4932 439.5 20V21.1667H440V32.8333H439.5V35.1667H440V46.8333H439.5V48C439.5 48.0634 439.5 48.1266 439.5 48.1896C439.5 48.63 439.5 49.0598 439.5 49.4795L440 49.4799C439.993 56.8549 439.878 61.1219 438.007 63.9308L437.59 63.6535C437.336 64.0353 437.047 64.3881 436.718 64.7175C436.388 65.0469 436.035 65.336 435.654 65.5904L435.931 66.0065C433.122 67.8782 428.855 67.9926 421.48 67.9995L421.479 67.4995C421 67.5 420.507 67.5 420 67.5H418.99V68H408.889V67.5H406.869V68H396.768V67.5H394.748V68H384.647V67.5H382.626V68H372.525V67.5H370.505V68H360.404V67.5H358.384V68H348.283V67.5H346.263V68H336.162V67.5H334.141V68H324.04V67.5H322.02V68H311.919V67.5H309.899V68H299.798V67.5H297.778V68H287.677V67.5H285.657V68H275.556V67.5H273.535V68H263.434V67.5H261.414V68H251.313V67.5H249.293V68H239.192V67.5H237.172V68H227.071V67.5H225.051V68H214.95V67.5H212.929V68H202.828V67.5H200.808V68H190.707V67.5H188.687V68H178.586V67.5H176.566V68H166.465V67.5H164.444V68H154.343V67.5H152.323V68H142.222V67.5H140.202V68H130.101V67.5H128.081V68H117.98V67.5H115.96V68H105.859V67.5H103.838V68H93.7374V67.5H91.7172V68H81.6162V67.5H79.596V68H69.495V67.5H67.4748V68H57.3737V67.5H55.3535V68H45.2525V67.5H43.2323V68H33.1313V67.5H31.1111V68H21.0101V67.5H20C19.4932 67.5 19.0003 67.5 18.5205 67.4995L18.5201 67.9995C11.1451 67.9926 6.87813 67.8782 4.06923 66.0065L4.34649 65.5904C3.96472 65.336 3.61186 65.0469 3.28249 64.7175C2.95311 64.3881 2.66399 64.0353 2.4096 63.6535L1.99352 63.9308Z" fill="white" stroke="black" stroke-dasharray="2 10"/>
</svg>
