<svg width="201" height="51" viewBox="0 0 201 51" fill="none" xmlns="http://www.w3.org/2000/svg">
<path d="M189.085 40.4333C189.672 45.3266 193.225 49.3734 198.002 50.588L197.897 51H187.667V50.5H186.5H185.529V51H175.815V50.5H173.872V51H164.159V50.5H162.216V51H152.503V50.5H150.56V51H140.846V50.5H138.904V51H129.19V50.5H127.247V51H117.534V50.5H115.591V51H105.878V50.5H103.935V51H94.2214V50.5H92.2786V51H82.5651V50.5H80.6224V51H70.9089V50.5H68.9661V51H59.2526V50.5H57.3099V51H47.5964V50.5H45.6536V51H35.9401V50.5H33.9974V51H24.2839V50.5H22.3411V51H12.6276V50.5H10.6849V51H0.971354V50.5H0.5V49.9167H0V39.0833H0.5V36.9167H0V26.0833H0.5V23.9167H0V13.0833H0.5V12C0.5 11.7468 0.508174 11.4956 0.524263 11.2467L0.0253036 11.2144C0.20126 8.49157 1.28534 6.01611 2.97776 4.08779L3.35355 4.41761C3.68475 4.04025 4.04025 3.68475 4.41761 3.35355L4.08779 2.97776C6.01611 1.28534 8.49157 0.20126 11.2144 0.0253037L11.2467 0.524263C11.4956 0.508174 11.7468 0.5 12 0.5H12.9822V0H22.8036V0.5H24.7679V0H34.5893V0.5H36.5536V0H46.375V0.5H48.3393V0H58.1607V0.5H60.125V0H69.9464V0.5H71.9107V0H81.7321V0.5H83.6964V0H93.5179V0.5H95.4821V0H105.304V0.5H107.268V0H117.089V0.5H119.054V0H128.875V0.5H130.839V0H140.661V0.5H142.625V0H152.446V0.5H154.411V0H164.232V0.5H166.196V0H176.018V0.5H177C177.253 0.5 177.504 0.508174 177.753 0.524263L177.786 0.0253034C180.508 0.201259 182.984 1.28534 184.912 2.97776L184.582 3.35355C184.96 3.68475 185.315 4.04025 185.646 4.41761L186.022 4.08779C187.715 6.01611 188.799 8.49157 188.975 11.2144L188.476 11.2467C188.492 11.4956 188.5 11.7468 188.5 12V13.125H189V24.375H188.5V26.625H189V37.875H188.5V39C188.5 39.5044 188.53 40.0026 188.589 40.4929L189.085 40.4333Z" fill="white" stroke="black" stroke-dasharray="2 10"/>
</svg>
