<svg width="120" height="120" viewBox="0 0 120 120" fill="none" xmlns="http://www.w3.org/2000/svg">
<path d="M105.451 33.7164C106.486 35.5099 105.872 37.8034 104.078 38.839L86.2164 49.1515C84.4227 50.187 82.1293 49.5724 81.0938 47.7789C80.0582 45.9852 80.6727 43.6918 82.4664 42.6562L100.328 32.3438C102.122 31.3082 104.415 31.9227 105.451 33.7164ZM60 7.5C62.0711 7.5 63.75 9.17895 63.75 11.25V31.875C63.75 33.9461 62.0711 35.625 60 35.625C57.9289 35.625 56.25 33.9461 56.25 31.875V11.25C56.25 9.17895 57.9289 7.5 60 7.5ZM112.5 60C112.5 62.0711 110.821 63.75 108.75 63.75H88.125C86.0539 63.75 84.375 62.0711 84.375 60C84.375 57.9289 86.0539 56.25 88.125 56.25H108.75C110.821 56.25 112.5 57.9289 112.5 60ZM86.25 105.466C84.4564 106.502 82.163 105.887 81.1274 104.094C80.0919 102.3 80.7064 100.007 82.5 98.9712C84.2936 97.9356 86.587 98.5501 87.6226 100.344C88.6581 102.137 88.0436 104.431 86.25 105.466ZM47.8125 38.8905C46.0189 39.926 43.7255 39.3115 42.6899 37.5179L32.3774 19.6562C31.3419 17.8625 31.9564 15.5691 33.75 14.5336C35.5436 13.498 37.837 14.1125 38.8726 15.9061L49.1851 33.7678C50.2206 35.5615 49.6061 37.855 47.8125 38.8905ZM35.846 46.0547C34.8104 47.8482 32.5171 48.4629 30.7234 47.4273L15.9062 38.8726C14.1127 37.837 13.4981 35.5436 14.5337 33.75C15.5692 31.9564 17.8627 31.3418 19.6562 32.3774L34.4734 40.9321C36.2671 41.9677 36.8816 44.2611 35.846 46.0547ZM28.5938 60C28.5938 62.0711 26.9148 63.75 24.8438 63.75H11.25C9.17895 63.75 7.5 62.0711 7.5 60C7.5 57.9289 9.17895 56.25 11.25 56.25H24.8438C26.9148 56.25 28.5938 57.9289 28.5938 60ZM29.7544 77.4273C30.7898 79.2209 30.1753 81.5143 28.3818 82.5499L19.6539 87.589C17.8602 88.6245 15.5668 88.0099 14.5312 86.2164C13.4957 84.4227 14.1102 82.1293 15.9039 81.0938L24.6318 76.0547C26.4253 75.0191 28.7188 75.6336 29.7544 77.4273ZM86.2164 14.5312C88.0099 15.5668 88.6246 17.8602 87.589 19.6539L77.2765 37.5156C76.2409 39.3093 73.9474 39.9238 72.1539 38.8882C70.3602 37.8527 69.7457 35.5593 70.7812 33.7656L81.0938 15.9039C82.1293 14.1102 84.4227 13.4957 86.2164 14.5312ZM40.7769 93.205C42.5705 94.2405 43.1851 96.5339 42.1495 98.3276L38.8683 104.011C37.8327 105.804 35.5392 106.419 33.7457 105.383C31.952 104.348 31.3375 102.054 32.373 100.261L35.6543 94.5776C36.6899 92.7839 38.9832 92.1694 40.7769 93.205ZM60 101.953C62.0711 101.953 63.75 103.632 63.75 105.703V108.75C63.75 110.821 62.0711 112.5 60 112.5C57.9289 112.5 56.25 110.821 56.25 108.75V105.703C56.25 103.632 57.9289 101.953 60 101.953Z" fill="#FF8F0D"/>
</svg>
