<svg width="119" height="26" viewBox="0 0 119 26" fill="none" xmlns="http://www.w3.org/2000/svg">
<path d="M8.02833 1.87837C8.53013 1.00855 9.458 0.472656 10.4622 0.472656H26.7783C27.8597 0.472656 28.5357 1.64304 27.9951 2.57967L26.5769 5.03783C26.0333 5.98012 25.0283 6.56067 23.9403 6.56067H8.1649C6.90338 6.56067 6.11473 5.19523 6.74516 4.10252L8.02833 1.87837Z" fill="#FC7823"/>
<path d="M21.2664 10.073H2.58958C1.42841 10.073 0.694927 11.321 1.25981 12.3354L7.60094 23.7235C8.22088 24.837 9.39527 25.5272 10.6696 25.5272H26.7791C27.7496 25.5272 28.3715 24.4945 27.9174 23.6368L26.7465 21.4252C26.1378 20.2754 24.9435 19.5563 23.6423 19.5563H14.1786C13.4021 19.5563 12.6761 19.1713 12.2405 18.5287L11.463 17.3819C11.094 16.8377 11.4839 16.1025 12.1413 16.1025H18.6565C19.6786 16.1025 20.6201 15.5474 21.1151 14.6532L22.4958 12.1582C23.0139 11.2218 22.3366 10.073 21.2664 10.073Z" fill="white"/>
<path d="M97.1083 25.8864C95.7757 25.8864 94.861 24.5446 95.3483 23.3041L103.483 2.59867C103.767 1.87504 104.465 1.39917 105.243 1.39917H107.349C108.129 1.39917 108.828 1.87711 109.111 2.60302L117.186 23.3085C117.67 24.5484 116.755 25.8864 115.424 25.8864H114.148C113.36 25.8864 112.656 25.3988 112.378 24.6621L107.872 12.6983C107.732 12.3018 107.557 11.8121 107.347 11.2291C107.161 10.646 106.962 10.028 106.752 9.37503C106.543 8.72203 106.344 8.10403 106.158 7.52099C106.053 7.13083 105.957 6.78895 105.872 6.49534C105.806 6.27129 105.968 6.04325 106.201 6.0346C106.44 6.02576 106.618 6.25103 106.552 6.48061C106.444 6.85669 106.324 7.25012 106.193 7.66092C106.03 8.22063 105.843 8.80367 105.633 9.41001C105.447 10.0164 105.248 10.5994 105.038 11.1591C104.852 11.7188 104.665 12.2552 104.479 12.7683L100.007 24.6611C99.7298 25.3984 99.0247 25.8864 98.2369 25.8864H97.1083ZM101.63 20.7441C100.286 20.7441 99.3705 19.3803 99.8804 18.1361L100.08 17.6502C100.371 16.9401 101.062 16.4763 101.829 16.4763H110.461C111.223 16.4763 111.911 16.9344 112.206 17.6379L112.409 18.1239C112.929 19.3697 112.014 20.7441 110.664 20.7441H101.63Z" fill="white"/>
<path d="M72.3973 25.8864C71.353 25.8864 70.5063 25.0398 70.5063 23.9955V3.29008C70.5063 2.24576 71.353 1.39917 72.3973 1.39917H80.5811C82.3536 1.39917 83.9744 1.70235 85.4436 2.3087C86.9128 2.89174 88.1722 3.73128 89.2216 4.82739C90.2711 5.90015 91.0757 7.1945 91.6354 8.71038C92.1951 10.2029 92.4749 11.8471 92.4749 13.6428C92.4749 15.4619 92.1951 17.1177 91.6354 18.6102C91.0757 20.1028 90.2711 21.3971 89.2216 22.4932C88.1722 23.566 86.9128 24.4056 85.4436 25.0119C83.9978 25.595 82.377 25.8864 80.5811 25.8864H72.3973ZM75.7536 21.3619C75.7536 21.5596 75.4955 21.6352 75.3889 21.4686C75.3048 21.3368 75.3993 21.1639 75.5558 21.1639H80.4062C81.4557 21.1639 82.3886 20.989 83.2047 20.6392C84.0443 20.2894 84.7558 19.788 85.3386 19.135C85.9452 18.4586 86.3999 17.6657 86.7029 16.7562C87.0062 15.8233 87.1577 14.7856 87.1577 13.6428C87.1577 12.5001 87.0062 11.4739 86.7029 10.5644C86.3999 9.63155 85.9452 8.83865 85.3386 8.18565C84.7558 7.50932 84.0443 6.99627 83.2047 6.64645C82.3886 6.29663 81.4557 6.12172 80.4062 6.12172H75.5409C75.3608 6.12172 75.2622 5.91214 75.3769 5.77337C75.5038 5.61957 75.7536 5.70941 75.7536 5.9089V21.3619Z" fill="white"/>
<path d="M48.2915 25.8865C47.7693 25.8865 47.346 25.4632 47.346 24.9411V0.945455C47.346 0.423294 47.7693 0 48.2915 0H51.333C51.8551 0 52.2784 0.423294 52.2784 0.945455V10.903C52.2784 11.0584 52.1858 11.1989 52.043 11.2601C51.7433 11.3885 51.4415 11.1159 51.58 10.8209C51.8357 10.2768 52.1969 9.77158 52.6632 9.30516C53.3395 8.60553 54.1441 8.04582 55.077 7.62604C56.0099 7.20625 56.9776 6.99636 57.9805 6.99636C59.3798 6.99636 60.5457 7.27622 61.4787 7.83593C62.4348 8.39564 63.1462 9.24685 63.6126 10.3896C64.1023 11.509 64.3472 12.9083 64.3472 14.5874V24.9411C64.3472 25.4632 63.9238 25.8865 63.4017 25.8865H60.3252C59.8031 25.8865 59.3798 25.4632 59.3798 24.9411V14.9372C59.3798 14.0977 59.2632 13.398 59.0299 12.8383C58.7966 12.2786 58.4468 11.8705 57.9805 11.614C57.5141 11.3574 56.9194 11.2408 56.1964 11.2641C55.6367 11.2641 55.1236 11.3574 54.6572 11.544C54.1909 11.7073 53.7711 11.9521 53.3979 12.2786C53.048 12.6051 52.7798 12.9783 52.5933 13.398C52.4068 13.8178 52.3134 14.2842 52.3134 14.7973V24.9411C52.3134 25.4632 51.8901 25.8865 51.368 25.8865H49.8297C49.3166 25.8865 48.8502 25.8865 48.4304 25.8865C48.3834 25.8865 48.3371 25.8865 48.2915 25.8865Z" fill="white"/>
<path d="M35.6087 25.8865C35.0865 25.8865 34.6632 25.4632 34.6632 24.9411V3.63906C34.6632 3.11691 35.0865 2.6936 35.6087 2.6936H38.6852C39.2073 2.6936 39.6306 3.11691 39.6306 3.63906V24.9411C39.6306 25.4632 39.2073 25.8865 38.6852 25.8865H35.6087ZM32.1455 11.8239C31.6233 11.8239 31.2 11.4006 31.2 10.8784V8.32662C31.2 7.80447 31.6233 7.38117 32.1455 7.38117H42.4982C43.0203 7.38117 43.4436 7.80447 43.4436 8.32662V10.8784C43.4436 11.4006 43.0203 11.8239 42.4982 11.8239H32.1455Z" fill="white"/>
</svg>
