<svg width="44" height="39" viewBox="0 0 44 39" fill="none" xmlns="http://www.w3.org/2000/svg">
<path d="M32.2335 27.5319L42.416 21.6522C42.9558 21.3399 43.2894 20.7606 43.2894 20.139V8.37958C43.2894 7.75795 42.9558 7.17878 42.416 6.86643L32.2335 0.986709C31.6936 0.674383 31.0235 0.677417 30.4868 0.986709L20.3041 6.86643C19.7644 7.17878 19.4308 7.75795 19.4308 8.37958V29.3937L12.2896 33.5147L5.14844 29.3937V21.1489L12.2896 17.0279L16.9989 19.7478V14.2168L13.1629 12.0002C12.8991 11.8486 12.596 11.7667 12.2896 11.7667C11.9833 11.7667 11.6802 11.8486 11.4164 12.0002L1.23368 17.8799C0.693917 18.1923 0.360352 18.7715 0.360352 19.3931V31.1526C0.360352 31.7742 0.693917 32.3533 1.23368 32.6656L11.4164 38.5454C11.956 38.8547 12.6232 38.8547 13.1629 38.5454L23.3456 32.6656C23.8854 32.3533 24.2188 31.7742 24.2188 31.1526V10.1353L24.3462 10.0625L31.3571 6.01435L38.4983 10.1353V18.3803L31.3571 22.5013L26.6538 19.7872V25.3184L30.4837 27.5289C31.0235 27.8382 31.6936 27.8382 32.2304 27.5289L32.2335 27.5319Z" fill="url(#paint0_linear_4908_161)"/>
<defs>
<linearGradient id="paint0_linear_4908_161" x1="0.22086" y1="32.3048" x2="41.4457" y2="8.37653" gradientUnits="userSpaceOnUse">
<stop stop-color="#A726C1"/>
<stop offset="0.88" stop-color="#803BDF"/>
<stop offset="1" stop-color="#7B3FE4"/>
</linearGradient>
</defs>
</svg>
