<svg width="25" height="25" viewBox="0 0 25 25" fill="none" xmlns="http://www.w3.org/2000/svg">
<path d="M19.6551 15.1914L24.6259 10.5555C24.8894 10.3094 25.002 9.93974 24.9211 9.58961L23.3919 2.96598C23.3111 2.61584 23.0479 2.333 22.7032 2.22726L16.2032 0.239567C15.8585 0.133845 15.4815 0.222695 15.2193 0.466705L10.2484 5.10268C9.98507 5.34879 9.87248 5.71839 9.95332 6.06853L12.686 17.905L9.1995 21.1548L4.64126 19.7623L3.5691 15.1183L7.05557 11.8684L10.0618 12.7881L9.3426 9.67267L6.89365 8.92297C6.72533 8.87188 6.54396 8.86518 6.37141 8.90502C6.19886 8.94485 6.03879 9.03038 5.9099 9.15009L0.938974 13.7861C0.675565 14.0322 0.563006 14.4018 0.643838 14.7519L2.17303 21.3756C2.25386 21.7257 2.51705 22.0085 2.8617 22.1143L9.36183 24.102C9.70601 24.206 10.0818 24.1193 10.3456 23.8749L15.3165 19.2389C15.5799 18.9927 15.6924 18.6232 15.6116 18.2731L12.8785 6.43485L12.9408 6.37728L16.3634 3.1854L20.9216 4.57795L21.9938 9.22204L18.5073 12.4719L15.5052 11.5548L16.2245 14.6702L18.6691 15.4173C19.0134 15.5213 19.3909 15.4342 19.653 15.1902L19.6551 15.1914Z" fill="white"/>
</svg>
