<svg width="20" height="20" viewBox="0 0 20 20" fill="none" xmlns="http://www.w3.org/2000/svg">
<path d="M16.5383 7.16291V16.7842C16.5383 17.2036 16.5417 17.6233 16.5383 18.0428C16.538 18.1084 16.5335 18.1739 16.5247 18.239L16.5492 18.06C16.5319 18.17 16.5014 18.2775 16.4585 18.3804L16.5265 18.2195C16.495 18.292 16.457 18.3616 16.4131 18.4276C16.3223 18.5636 16.5054 18.3271 16.4306 18.4083C16.4079 18.4336 16.3852 18.4593 16.3607 18.4835C16.3362 18.5077 16.3103 18.5298 16.2849 18.5529C16.2032 18.6271 16.4426 18.4448 16.3055 18.5352C16.2397 18.5781 16.1702 18.6151 16.0977 18.6457L16.2606 18.5786C16.1587 18.6197 16.052 18.6481 15.9429 18.6631L16.1245 18.639C15.9586 18.6575 15.7877 18.6486 15.6214 18.6486H3.61758C3.06187 18.6486 2.5057 18.6529 1.95044 18.6486C1.8941 18.6483 1.83783 18.6451 1.78184 18.639L1.96337 18.6631C1.85433 18.648 1.74762 18.6196 1.64569 18.5786L1.80861 18.6457C1.73612 18.6151 1.66656 18.5781 1.60076 18.5352C1.46461 18.4457 1.70332 18.6271 1.62141 18.5529C1.59599 18.5305 1.57013 18.5081 1.54585 18.4835C1.52157 18.4589 1.4991 18.4336 1.47573 18.4083C1.40107 18.3271 1.5851 18.5636 1.49343 18.4276C1.44952 18.3616 1.41155 18.292 1.37997 18.2195L1.44805 18.3804C1.40509 18.2775 1.37462 18.17 1.35728 18.06L1.38156 18.239C1.35887 18.0627 1.36794 17.8797 1.36794 17.7021V5.50966C1.36794 4.95038 1.36568 4.39109 1.36794 3.83047C1.36827 3.76314 1.37282 3.6959 1.38156 3.62912L1.35728 3.80809C1.37462 3.69823 1.40509 3.59077 1.44805 3.48796L1.37997 3.64859C1.41165 3.57615 1.44961 3.50654 1.49343 3.44053C1.58419 3.30474 1.40107 3.54098 1.47573 3.45977C1.49842 3.43449 1.52111 3.40899 1.54585 3.38483C1.57058 3.36067 1.59599 3.33852 1.62141 3.31548C1.70332 3.2412 1.4637 3.42331 1.60076 3.33293C1.66656 3.29004 1.73612 3.25305 1.80861 3.22241L1.64569 3.28953C1.74763 3.24854 1.85434 3.22021 1.96337 3.20519L1.78184 3.22912C1.91685 3.21413 2.05414 3.21928 2.19028 3.21906L2.95521 3.21727L5.50687 3.21167L8.64511 3.20451L11.3499 3.19915C11.792 3.19803 12.2349 3.20563 12.6774 3.19624H12.6955C13.0525 3.19624 13.3944 2.88751 13.3779 2.52375C13.3613 2.15999 13.0781 1.85015 12.6955 1.85105L11.0903 1.85462L7.54276 1.86268L3.87059 1.87096C3.23387 1.8723 2.59737 1.8723 1.96065 1.87521C1.61398 1.87386 1.27309 1.96277 0.972432 2.13292C0.408548 2.45888 0.0795211 3.03002 0.0114466 3.66044C-0.0046644 3.80832 0.00191617 3.95955 0.00191617 4.10787V16.6922C0.00191617 17.1439 -0.00239521 17.5956 0.00191617 18.0473C0.00615746 18.5406 0.193328 19.0153 0.528132 19.3819C0.879623 19.7732 1.41174 19.988 1.93682 19.9933C2.06298 19.9947 2.18938 19.9933 2.31554 19.9933H15.0455C15.718 19.9933 16.4664 20.0752 17.0439 19.6636C17.5679 19.2902 17.8867 18.7258 17.9032 18.0833V7.16291C17.9032 6.81123 17.5896 6.47409 17.2211 6.49042C16.8526 6.50675 16.5388 6.78595 16.5388 7.16291H16.5383Z" fill="black"/>
<path d="M19.319 0H15.0941C14.7374 0 14.3954 0.309396 14.412 0.672707C14.4286 1.03602 14.7118 1.34519 15.0941 1.34519H17.6444L17.4629 1.52416L15.4279 3.52618L12.9525 5.96153L10.8247 8.05482C10.4773 8.39598 10.1238 8.73155 9.78362 9.07898L9.76932 9.0933C9.51631 9.34206 9.49702 9.79889 9.76932 10.0445C10.0416 10.2902 10.4641 10.3101 10.7342 10.0445L11.5892 9.20381L13.6239 7.20202L16.0998 4.7651L18.2274 2.67181C18.3635 2.53759 18.4996 2.40455 18.6358 2.27271V4.75593C18.6358 5.10783 18.9496 5.44497 19.3181 5.42864C19.6866 5.41231 20.0002 5.13311 20.0002 4.75593V0.672707C20.0011 0.308949 19.6887 0 19.319 0Z" fill="black"/>
</svg>
