<svg width="54" height="54" viewBox="0 0 54 54" fill="none" xmlns="http://www.w3.org/2000/svg">
<path d="M8.4668 29.5947H44.0069V43.2702H8.4668V29.5947Z" fill="#FC7823"/>
<path d="M41.8477 40.1713C41.8477 41.2759 40.9523 42.1713 39.8477 42.1713H12.6276C11.523 42.1713 10.6276 41.2759 10.6276 40.1713V14.9924C10.6276 13.8878 11.523 12.9924 12.6276 12.9924H23.5613C24.6659 12.9924 25.5613 12.097 25.5613 10.9924V10.6724C25.5613 9.56783 24.6659 8.6724 23.5613 8.6724H8.30761C7.20304 8.6724 6.30762 9.56783 6.30762 10.6724V44.4913C6.30762 45.5959 7.20305 46.4913 8.30762 46.4913H44.1677C45.2723 46.4913 46.1677 45.5959 46.1677 44.4913V32.8502C46.1677 31.7456 45.2723 30.8502 44.1677 30.8502H43.8477C42.7431 30.8502 41.8477 31.7456 41.8477 32.8502V40.1713Z" fill="black"/>
<path d="M21.6592 23.7249C17.9359 28.4445 17.1772 32.9589 17.1475 33.1506L21.4108 33.8418C21.5053 33.2802 23.8111 20.9088 40.4269 17.8578L36.7522 23.1093L40.2892 25.5852L47.7898 14.8662L38.2048 6.3531L35.3374 9.5931L39.8383 13.5864C30.1642 15.3198 24.6535 19.9287 21.6592 23.7249Z" fill="black"/>
</svg>
