<svg width="240" height="240" viewBox="0 0 240 240" fill="none" xmlns="http://www.w3.org/2000/svg">
<path d="M218.4 171C218.4 192.541 174.343 210 120 210C65.6561 210 21.5996 192.541 21.5996 171C21.5996 149.459 65.6561 132 120 132C174.343 132 218.4 149.459 218.4 171Z" fill="url(#paint0_linear_381_804)"/>
<path d="M181.23 156.918C181.23 159.618 179.04 161.808 176.34 161.808C173.64 161.808 171.45 159.618 171.45 156.918C171.45 154.218 173.64 152.028 176.34 152.028C179.04 152.028 181.23 154.218 181.23 156.918Z" fill="url(#paint1_linear_381_804)"/>
<path d="M69.5344 67.212C69.5344 71.334 66.1924 74.676 62.0704 74.676C57.9484 74.676 54.6064 71.334 54.6064 67.212C54.6064 63.09 57.9484 59.748 62.0704 59.748C66.1924 59.748 69.5344 63.09 69.5344 67.212Z" fill="url(#paint2_linear_381_804)"/>
<path d="M54.6956 114.324H54.2816C52.3016 108.624 45.1076 104.4 36.5336 104.4C27.3536 104.4 19.7336 109.248 18.4496 115.566C13.2596 116.91 9.59961 120.186 9.59961 124.02C9.59961 129.054 15.9116 133.134 23.6996 133.134C27.2216 133.2 30.6836 132.27 33.6956 130.446C34.6376 130.548 35.5856 130.602 36.5336 130.602C39.9836 130.632 43.4036 129.9 46.5416 128.466C48.8816 130.248 51.7556 131.19 54.6956 131.136C60.8636 131.136 65.8676 127.368 65.8676 122.736C65.8676 118.104 60.8456 114.324 54.6956 114.324Z" fill="url(#paint3_linear_381_804)"/>
<path d="M218.508 71.6061C218.393 71.6061 218.278 71.6061 218.167 71.6061C216.517 64.9397 210.536 60 203.406 60C195.768 60 189.445 65.6661 188.356 73.0533C184.044 74.6291 181 78.4624 181 82.9439C181 88.8279 186.25 93.6 192.728 93.6C195.979 93.6 198.916 92.3986 201.042 90.4596C201.829 90.5825 202.616 90.644 203.406 90.644C206.276 90.6719 209.117 89.8226 211.728 88.1462C213.676 90.2305 216.064 91.3257 218.508 91.2643C223.639 91.2643 227.8 86.861 227.8 81.4296C227.8 75.9981 223.639 71.6061 218.508 71.6061Z" fill="url(#paint4_linear_381_804)"/>
<path d="M194.382 119.142H194.166C193.14 116.19 189.408 114 184.968 114C180.204 114 176.262 116.514 175.584 119.784C172.896 120.486 171 122.184 171 124.17C171 126.78 174.27 128.898 178.308 128.898C180.132 128.934 181.932 128.448 183.492 127.506C183.972 127.554 184.464 127.584 184.968 127.584C186.756 127.596 188.532 127.218 190.158 126.474C191.364 127.392 192.84 127.884 194.358 127.86C197.556 127.86 200.148 125.91 200.148 123.498C200.148 121.086 197.58 119.142 194.382 119.142Z" fill="url(#paint5_linear_381_804)"/>
<path d="M154.986 160.476C154.986 162.684 139.32 164.472 120 164.472C100.68 164.472 85.0137 162.684 85.0137 160.476C85.0137 158.268 100.68 156.48 120 156.48C139.32 156.48 154.986 158.268 154.986 160.476Z" fill="url(#paint6_linear_381_804)"/>
<path d="M121.95 142.668C121.95 135.312 125.88 128.514 132.252 124.842C138.63 121.17 146.484 121.182 152.844 124.878V87.6781C152.844 86.1841 152.25 84.7501 151.194 83.6941C150.138 82.6381 148.704 82.05 147.21 82.05H138.654L133.668 90.336H106.332L101.346 82.05H92.7902C91.2962 82.05 89.8622 82.6381 88.8062 83.6941C87.7502 84.7501 87.1562 86.1841 87.1562 87.6781V153.834C87.1562 155.328 87.7502 156.762 88.8062 157.818C89.8622 158.874 91.2962 159.468 92.7902 159.468H130.656C125.196 155.616 121.95 149.352 121.95 142.668Z" fill="url(#paint7_linear_381_804)"/>
<path d="M110.46 85.8539H129.54C130.548 85.7999 131.34 84.9599 131.34 83.9459C131.34 82.9379 130.548 82.0979 129.54 82.0439H110.46C109.452 82.0979 108.66 82.9379 108.66 83.9459C108.66 84.9599 109.452 85.7999 110.46 85.8539Z" fill="#FC7823" fill-opacity="0.54"/>
<path opacity="0.25" d="M101.694 110.658H138.312C139.344 110.658 140.184 111.498 140.184 112.53C140.184 113.562 139.344 114.402 138.312 114.402H101.694C100.662 114.402 99.8223 113.562 99.8223 112.53C99.8223 111.498 100.662 110.658 101.694 110.658Z" fill="#FC7823"/>
<path opacity="0.25" d="M101.694 124.332H119.676C120.708 124.332 121.548 125.172 121.548 126.204C121.548 127.236 120.708 128.076 119.676 128.076H101.694C100.662 128.076 99.8223 127.236 99.8223 126.204C99.8223 125.172 100.662 124.332 101.694 124.332Z" fill="#FC7823"/>
<path d="M101.694 138.006H112.536C113.568 138.006 114.408 138.846 114.408 139.878C114.408 140.91 113.568 141.75 112.536 141.75H101.694C100.662 141.75 99.8223 140.91 99.8223 139.878C99.8223 138.846 100.662 138.006 101.694 138.006Z" fill="#FC7823" fill-opacity="0.25"/>
<path d="M101.694 109.362H138.312C139.344 109.362 140.184 110.202 140.184 111.234C140.184 112.266 139.344 113.106 138.312 113.106H101.694C100.662 113.106 99.8223 112.266 99.8223 111.234C99.8223 110.202 100.662 109.362 101.694 109.362Z" fill="white"/>
<path d="M101.694 123.036H119.676C120.708 123.036 121.548 123.876 121.548 124.908C121.548 125.94 120.708 126.78 119.676 126.78H101.694C100.662 126.78 99.8223 125.94 99.8223 124.908C99.8223 123.876 100.662 123.036 101.694 123.036Z" fill="white"/>
<path d="M101.694 136.71H112.536C113.568 136.71 114.408 137.55 114.408 138.582C114.408 139.614 113.568 140.454 112.536 140.454H101.694C100.662 140.454 99.8223 139.614 99.8223 138.582C99.8223 137.55 100.662 136.71 101.694 136.71Z" fill="white"/>
<path d="M138.654 82.0439L133.668 90.3299H106.332L101.346 82.0439H92.7903C91.2963 82.0439 89.8623 82.6319 88.8063 83.6879C87.7503 84.7439 87.1562 86.1779 87.1562 87.6719V153.834C87.1562 155.328 87.7503 156.762 88.8063 157.818C89.8623 158.874 91.2963 159.468 92.7903 159.468H93.0423L143.502 82.0679L138.654 82.0439Z" fill="url(#paint8_linear_381_804)"/>
<path d="M159.36 142.668C159.36 151.968 151.818 159.51 142.518 159.51C133.218 159.51 125.676 151.968 125.676 142.668C125.676 133.368 133.218 125.826 142.518 125.826C151.818 125.826 159.36 133.368 159.36 142.668Z" fill="url(#paint9_linear_381_804)"/>
<path opacity="0.25" d="M142.758 151.266C142.368 151.266 141.99 151.158 141.66 150.954L135.6 147.234C134.604 146.628 134.292 145.332 134.898 144.336C135.504 143.34 136.8 143.028 137.796 143.634L142.218 146.352L148.596 137.85C149.292 136.92 150.612 136.734 151.536 137.436C152.466 138.132 152.652 139.446 151.956 140.376L144.432 150.402C144.042 150.936 143.418 151.254 142.758 151.266Z" fill="#FC7823"/>
<path d="M142.758 149.718C142.368 149.718 141.99 149.61 141.66 149.406L135.6 145.686C134.604 145.08 134.292 143.784 134.898 142.788C135.504 141.792 136.8 141.48 137.796 142.086L142.218 144.804L148.596 136.308C149.292 135.378 150.606 135.192 151.536 135.888C152.466 136.584 152.652 137.898 151.956 138.828L144.432 148.854C144.042 149.388 143.418 149.706 142.758 149.718Z" fill="white"/>
<defs>
<linearGradient id="paint0_linear_381_804" x1="120" y1="132" x2="120" y2="193.5" gradientUnits="userSpaceOnUse">
<stop stop-color="#FC7823" stop-opacity="0.2"/>
<stop offset="1" stop-color="#FC7823" stop-opacity="0"/>
</linearGradient>
<linearGradient id="paint1_linear_381_804" x1="176.34" y1="152.028" x2="176.34" y2="161.808" gradientUnits="userSpaceOnUse">
<stop stop-color="#FC7823"/>
<stop offset="1" stop-color="#FC7823" stop-opacity="0"/>
</linearGradient>
<linearGradient id="paint2_linear_381_804" x1="62.0704" y1="59.748" x2="62.0704" y2="74.676" gradientUnits="userSpaceOnUse">
<stop stop-color="#FC7823"/>
<stop offset="1" stop-color="#FC7823" stop-opacity="0"/>
</linearGradient>
<linearGradient id="paint3_linear_381_804" x1="37.1996" y1="75.5999" x2="37.7336" y2="133.137" gradientUnits="userSpaceOnUse">
<stop stop-color="#FC7823"/>
<stop offset="1" stop-color="#FC7823" stop-opacity="0"/>
</linearGradient>
<linearGradient id="paint4_linear_381_804" x1="203.2" y1="41.4" x2="205" y2="90" gradientUnits="userSpaceOnUse">
<stop stop-color="#FC7823"/>
<stop offset="1" stop-color="#FC7823" stop-opacity="0"/>
</linearGradient>
<linearGradient id="paint5_linear_381_804" x1="185.574" y1="114" x2="185.574" y2="128.9" gradientUnits="userSpaceOnUse">
<stop stop-color="#FC7823"/>
<stop offset="1" stop-color="#FC7823" stop-opacity="0"/>
</linearGradient>
<linearGradient id="paint6_linear_381_804" x1="120" y1="145.8" x2="120" y2="164.472" gradientUnits="userSpaceOnUse">
<stop stop-color="#FC7823"/>
<stop offset="1" stop-color="#FC7823" stop-opacity="0.22"/>
</linearGradient>
<linearGradient id="paint7_linear_381_804" x1="120" y1="82.05" x2="120" y2="159.468" gradientUnits="userSpaceOnUse">
<stop stop-color="#FC7823"/>
<stop offset="1" stop-color="white"/>
</linearGradient>
<linearGradient id="paint8_linear_381_804" x1="118.926" y1="72.3059" x2="90.2043" y2="169.212" gradientUnits="userSpaceOnUse">
<stop stop-color="white" stop-opacity="0.3"/>
<stop offset="0.03" stop-color="white" stop-opacity="0.28"/>
<stop offset="0.29" stop-color="white" stop-opacity="0.16"/>
<stop offset="0.55" stop-color="white" stop-opacity="0.07"/>
<stop offset="0.79" stop-color="white" stop-opacity="0.02"/>
<stop offset="1" stop-color="white" stop-opacity="0"/>
</linearGradient>
<linearGradient id="paint9_linear_381_804" x1="142.518" y1="125.826" x2="142.518" y2="159.51" gradientUnits="userSpaceOnUse">
<stop stop-color="#FC7823"/>
<stop offset="1" stop-color="white"/>
</linearGradient>
</defs>
</svg>
