<svg width="50" height="50" viewBox="0 0 50 50" fill="none" xmlns="http://www.w3.org/2000/svg">
<rect width="50" height="50" rx="25" fill="white"/>
<path d="M20.6377 23.2225C24.155 23.2225 26.9975 20.4918 26.9975 17.1257V15.0943C26.9975 11.7331 24.1475 9 20.6402 9C17.1229 9 14.283 11.7282 14.283 15.0943V17.1257C14.2704 20.4918 17.1204 23.2225 20.6377 23.2225ZM34.2527 23.2323C37.0224 23.2323 39.2602 21.0144 39.2602 18.2764V16.6203C39.2602 13.8823 37.0173 11.6644 34.2527 11.6644C31.488 11.6644 29.2451 13.8823 29.2451 16.6203V18.2764C29.2401 21.0144 31.488 23.2323 34.2527 23.2323ZM42.361 27.3541C39.9315 26.386 37.3327 25.8894 34.7093 25.8918C33.4676 25.8938 32.2287 26.0088 31.0088 26.2353C31.197 26.2966 31.3851 26.358 31.5733 26.4267C33.9616 27.4424 35.6275 29.7143 35.6275 32.3762V36.5323C38.054 36.4745 40.4674 36.1661 42.8277 35.6123C43.9165 35.2737 44.7143 34.2335 44.7143 32.992V31.1053C44.7093 29.4223 43.7409 27.9895 42.3661 27.3516L42.361 27.3541ZM31.0642 28.7206C24.3704 26.1249 16.9164 26.1232 10.2213 28.7157C8.32965 29.5646 7 31.4832 7 33.7305V36.233C7 37.8891 8.07878 39.2802 9.55896 39.7291C13.1877 40.5694 16.9037 40.9959 20.6327 41C24.3567 40.9997 28.068 40.5748 31.6914 39.734C33.1766 39.2875 34.2629 37.894 34.2629 36.2305V33.7281C34.2629 31.4856 32.9458 29.5769 31.0642 28.7182V28.7206Z" fill="black"/>
</svg>
