<svg width="50" height="50" viewBox="0 0 50 50" fill="none" xmlns="http://www.w3.org/2000/svg">
<rect x="0.5" y="0.5" width="49" height="49" rx="24.5" stroke="#E08900"/>
<path d="M21.125 23.6669C23.7363 23.6669 25.8466 21.6189 25.8466 19.0943V17.5707C25.8466 15.0498 23.7307 13 21.1268 13C18.5155 13 16.4071 15.0462 16.4071 17.5707V19.0943C16.3978 21.6189 18.5136 23.6669 21.125 23.6669ZM31.233 23.6742C33.2893 23.6742 34.9508 22.0108 34.9508 19.9573V18.7152C34.9508 16.6617 33.2856 14.9983 31.233 14.9983C29.1805 14.9983 27.5153 16.6617 27.5153 18.7152V19.9573C27.5116 22.0108 29.1805 23.6742 31.233 23.6742ZM37.2529 26.7655C35.4492 26.0395 33.5197 25.667 31.572 25.6689C30.6502 25.6703 29.7304 25.7566 28.8247 25.9265C28.9644 25.9725 29.1041 26.0185 29.2438 26.07C31.017 26.8318 32.2537 28.5357 32.2537 30.5322V33.6492C34.0552 33.6058 35.847 33.3745 37.5993 32.9592C38.4077 32.7053 39 31.9251 39 30.994V29.579C38.9963 28.3167 38.2773 27.2421 37.2566 26.7637L37.2529 26.7655ZM28.8659 27.7905C23.8962 25.8437 18.3622 25.8424 13.3916 27.7868C11.9872 28.4234 11 29.8624 11 31.5479V33.4247C11 34.6668 11.8009 35.7101 12.8998 36.0468C15.5939 36.6771 18.3527 36.9969 21.1213 37C23.8861 36.9998 26.6414 36.6811 29.3315 36.0505C30.4342 35.7156 31.2407 34.6705 31.2407 33.4229V31.546C31.2407 29.8642 30.2628 28.4326 28.8659 27.7886V27.7905Z" fill="#E08900"/>
</svg>
