<svg width="50" height="50" viewBox="0 0 50 50" fill="none" xmlns="http://www.w3.org/2000/svg">
<rect width="50" height="50" rx="25" fill="white"/>
<path d="M38.75 14.965H33.5214V12.5995C33.5214 11.9091 32.9618 11.3495 32.2714 11.3495H31.4175V10.1124C31.4175 9.42208 30.8578 8.86243 30.1675 8.86243H19.9107C19.2203 8.86243 18.6607 9.42208 18.6607 10.1124V11.3495H17.8067C17.1164 11.3495 16.5567 11.9091 16.5567 12.5995V14.965H11.25C10.5596 14.965 10 15.5246 10 16.215V36.4777C10 37.1681 10.5596 37.7277 11.25 37.7277H38.75C39.4404 37.7277 40 37.1681 40 36.4777V16.215C40 15.5246 39.4404 14.965 38.75 14.965ZM37.5 35.2277H12.5V17.465H17.8067C18.4971 17.465 19.0567 16.9053 19.0567 16.215V13.8495H19.9107C20.601 13.8495 21.1607 13.2898 21.1607 12.5995V11.3624H28.9175V12.5995C28.9175 13.2898 29.4771 13.8495 30.1675 13.8495H31.0214V16.215C31.0214 16.9053 31.5811 17.465 32.2714 17.465H37.5V35.2277Z" fill="black"/>
<path d="M32.5 16H33.5L38.5 16.5V36H11.5V16H17.5V12.5H20.5V10H29.5L30 12.5L32.5 13.5V16Z" fill="black"/>
<path d="M15.0215 21.2166V31.2096C15.0215 31.9 15.5811 32.4596 16.2715 32.4596H33.7703C34.4607 32.4596 35.0203 31.9 35.0203 31.2096V21.2166C35.0203 20.5262 34.4607 19.9666 33.7703 19.9666H16.2715C15.5811 19.9666 15.0215 20.5262 15.0215 21.2166ZM17.5215 22.4666H32.5203V29.9596H30.9019V27.7906C30.9019 27.1003 30.3422 26.5406 29.6519 26.5406C28.9615 26.5406 28.4019 27.1003 28.4019 27.7906V29.9596H26.3214V27.7906C26.3214 27.1003 25.7617 26.5406 25.0714 26.5406C24.381 26.5406 23.8214 27.1003 23.8214 27.7906V29.9596H21.8505V27.7906C21.8505 27.1003 21.2908 26.5406 20.6005 26.5406C19.9101 26.5406 19.3505 27.1003 19.3505 27.7906V29.9596H17.5215V22.4666Z" fill="white"/>
</svg>
