<svg width="109" height="24" viewBox="0 0 109 24" fill="none" xmlns="http://www.w3.org/2000/svg">
<g clip-path="url(#clip0_4867_2609)">
<path d="M7.44312 1.7415C7.90836 0.935073 8.76859 0.438232 9.6996 0.438232H24.8266C25.8291 0.438232 26.4559 1.52332 25.9548 2.39168L24.64 4.67071C24.136 5.54433 23.2041 6.08257 22.1955 6.08257H7.56975C6.40015 6.08257 5.66899 4.81663 6.25346 3.80355L7.44312 1.7415Z" fill="#FC7823"/>
<path d="M19.7167 9.33887H2.40092C1.32438 9.33887 0.644348 10.4959 1.16806 11.4364L7.04707 21.9947C7.62183 23.0268 8.71063 23.6668 9.8921 23.6668H24.8276C25.7273 23.6668 26.3038 22.7093 25.8829 21.9141L24.7973 19.8637C24.233 18.7977 23.1256 18.131 21.9195 18.131H13.1453C12.4255 18.131 11.7524 17.7741 11.3485 17.1783L10.6276 16.1151C10.2856 15.6106 10.647 14.9289 11.2565 14.9289H17.297C18.2446 14.9289 19.1174 14.4143 19.5763 13.5853L20.8564 11.2721C21.3368 10.404 20.7089 9.33887 19.7167 9.33887Z" fill="white"/>
</g>
<path d="M90.0312 23.9999C88.7955 23.9999 87.9476 22.7559 88.3995 21.6058L95.9409 2.40932C96.2045 1.73843 96.8518 1.29724 97.5726 1.29724H99.5258C100.248 1.29724 100.897 1.74035 101.159 2.41336L108.646 21.6099C109.094 22.7593 108.246 23.9999 107.012 23.9999H105.829C105.099 23.9999 104.445 23.5478 104.188 22.8648L100.01 11.7729C99.8805 11.4053 99.7184 10.9513 99.5238 10.4108C99.3508 9.87021 99.167 9.29724 98.9724 8.69184C98.7778 8.08643 98.594 7.51346 98.4211 6.97292C98.3237 6.61119 98.2352 6.29422 98.1558 6.02202C98.0951 5.8143 98.2449 5.60286 98.4612 5.59485C98.6825 5.58666 98.8482 5.79551 98.7869 6.00837C98.6865 6.35703 98.5754 6.72179 98.4535 7.10265C98.3021 7.62157 98.1292 8.16211 97.9346 8.72427C97.7616 9.28643 97.5778 9.82697 97.3832 10.3459C97.2103 10.8648 97.0373 11.3621 96.8643 11.8378L92.7185 22.8638C92.4615 23.5473 91.8078 23.9999 91.0776 23.9999H90.0312ZM94.2234 19.2324C92.9768 19.2324 92.1285 17.9679 92.6012 16.8145L92.7859 16.3639C93.0557 15.7056 93.6966 15.2756 94.408 15.2756H102.411C103.118 15.2756 103.755 15.7003 104.028 16.3526L104.216 16.8031C104.699 17.9581 103.851 19.2324 102.599 19.2324H94.2234Z" fill="white"/>
<path d="M67.1213 23.9999C66.1531 23.9999 65.3682 23.2151 65.3682 22.2468V3.05034C65.3682 2.08213 66.1531 1.29724 67.1213 1.29724H74.7087C76.3519 1.29724 77.8547 1.57832 79.2168 2.14049C80.579 2.68103 81.7465 3.4594 82.7195 4.47562C83.6925 5.47021 84.4384 6.67021 84.9574 8.07562C85.4763 9.4594 85.7357 10.9837 85.7357 12.6486C85.7357 14.3351 85.4763 15.8702 84.9574 17.254C84.4384 18.6378 83.6925 19.8378 82.7195 20.854C81.7465 21.8486 80.579 22.627 79.2168 23.1891C77.8763 23.7297 76.3736 23.9999 74.7087 23.9999H67.1213ZM70.233 19.8051C70.233 19.9885 69.9937 20.0585 69.8949 19.904C69.8167 19.7819 69.9044 19.6216 70.0495 19.6216H74.5465C75.5195 19.6216 76.3844 19.4594 77.1411 19.1351C77.9195 18.8108 78.579 18.3459 79.1195 17.7405C79.6817 17.1135 80.1033 16.3783 80.3844 15.5351C80.6655 14.6702 80.806 13.7081 80.806 12.6486C80.806 11.5891 80.6655 10.6378 80.3844 9.79454C80.1033 8.92967 79.6817 8.19454 79.1195 7.58913C78.579 6.96211 77.9195 6.48643 77.1411 6.16211C76.3844 5.83778 75.5195 5.67562 74.5465 5.67562H70.0357C69.8688 5.67562 69.7773 5.48132 69.8836 5.35266C70.0014 5.21006 70.233 5.29336 70.233 5.47832V19.8051Z" fill="white"/>
<path d="M44.772 24C44.2879 24 43.8955 23.6076 43.8955 23.1234V0.876552C43.8955 0.392445 44.288 0 44.7721 0H47.5919C48.076 0 48.4685 0.392446 48.4685 0.876552V10.1084C48.4685 10.2525 48.3826 10.3827 48.2502 10.4395C47.9724 10.5585 47.6925 10.3058 47.821 10.0323C48.0581 9.52789 48.3928 9.05946 48.8252 8.62703C49.4523 7.97838 50.1982 7.45946 51.0631 7.07027C51.9279 6.68108 52.8252 6.48649 53.755 6.48649C55.0523 6.48649 56.1333 6.74594 56.9982 7.26486C57.8847 7.78378 58.5442 8.57297 58.9766 9.63243C59.4306 10.6703 59.6577 11.9676 59.6577 13.5243V23.1234C59.6577 23.6076 59.2652 24 58.7811 24H55.9288C55.4447 24 55.0523 23.6076 55.0523 23.1234V13.8486C55.0523 13.0703 54.9442 12.4216 54.7279 11.9027C54.5117 11.3838 54.1874 11.0054 53.755 10.7676C53.3225 10.5297 52.7712 10.4216 52.1009 10.4432C51.582 10.4432 51.1063 10.5297 50.6739 10.7027C50.2415 10.8541 49.8523 11.0811 49.5063 11.3838C49.182 11.6865 48.9333 12.0324 48.7604 12.4216C48.5874 12.8108 48.5009 13.2432 48.5009 13.7189V23.1234C48.5009 23.6076 48.1085 24 47.6244 24H46.1982C45.7225 24 45.2901 24 44.9009 24C44.8573 24 44.8143 24 44.772 24Z" fill="white"/>
<path d="M33.0136 24C32.5295 24 32.1371 23.6076 32.1371 23.1235V3.37387C32.1371 2.88976 32.5295 2.49731 33.0136 2.49731H35.8659C36.35 2.49731 36.7425 2.88976 36.7425 3.37387V23.1235C36.7425 23.6076 36.35 24 35.8659 24H33.0136ZM29.8028 10.9622C29.3187 10.9622 28.9263 10.5697 28.9263 10.0856V7.71981C28.9263 7.23571 29.3187 6.84326 29.8028 6.84326H39.4011C39.8852 6.84326 40.2776 7.23571 40.2776 7.71981V10.0856C40.2776 10.5697 39.8852 10.9622 39.4011 10.9622H29.8028Z" fill="white"/>
<defs>
<clipPath id="clip0_4867_2609">
<rect width="27.1363" height="23.2286" fill="white" transform="translate(0 0.438232)"/>
</clipPath>
</defs>
</svg>
